{
.appVersion = "1287";
DisplayStrings = (

glyphs = (
{
glyphname = A;
lastChange = "2020-08-01 17:50:15 +0000";
layers = (
{
layerId = "AEA248FC-48D8-43C3-8E42-77E797A92BBC";
paths = (
{
closed = 1;
nodes = (
"520 0 LINE",
"545 0 OFFCURVE",
"595 0 OFFCURVE",
"620 0 CURVE",
"625 5 LINE",
"594 87 OFFCURVE",
"380 673 OFFCURVE",
"375 700 CURVE",
"370 705 LINE",
"345 700 OFFCURVE",
"295 700 OFFCURVE",
"270 705 CURVE",
"265 700 LINE"
);
},
{
closed = 1;
nodes = (
"311 701 LINE",
"286 699 OFFCURVE",
"295 700 OFFCURVE",
"270 705 CURVE",
"265 700 LINE",
"260 673 OFFCURVE",
"46 87 OFFCURVE",
"15 5 CURVE",
"20 0 LINE",
"43 0 OFFCURVE",
"36 0 OFFCURVE",
"61 0 CURVE",
"66 4 LINE",
"89 84 OFFCURVE",
"278 666 OFFCURVE",
"316 696 CURVE"
);
},
{
closed = 1;
nodes = (
"130 212 LINE",
"180 290 OFFCURVE",
"335 282 OFFCURVE",
"424 282 CURVE",
"434 342 LINE",
"399 342 LINE",
"321 342 OFFCURVE",
"179 350 OFFCURVE",
"140 272 CURVE"
);
}
);
width = 635;
},
{
layerId = "B6F795C8-F751-4DF7-955B-5EAABF4BC2BE";
width = 600;
},
{
associatedMasterId = "E103E4E6-9333-477C-9ADC-F52051F3C867";
layerId = "8E169918-2BDA-47B4-A650-6EBA9D9168E8";
paths = (
{
closed = 1;
nodes = (
"520 0 LINE",
"545 0 OFFCURVE",
"595 0 OFFCURVE",
"620 0 CURVE",
"625 5 LINE",
"594 87 OFFCURVE",
"380 673 OFFCURVE",
"375 700 CURVE",
"370 705 LINE",
"345 700 OFFCURVE",
"295 700 OFFCURVE",
"270 705 CURVE",
"265 700 LINE"
);
},
{
closed = 1;
nodes = (
"311 701 LINE",
"286 699 OFFCURVE",
"295 700 OFFCURVE",
"270 705 CURVE",
"265 700 LINE",
"260 673 OFFCURVE",
"46 87 OFFCURVE",
"15 5 CURVE",
"20 0 LINE",
"43 0 OFFCURVE",
"36 0 OFFCURVE",
"61 0 CURVE",
"66 4 LINE",
"89 84 OFFCURVE",
"278 666 OFFCURVE",
"316 696 CURVE"
);
},
{
closed = 1;
nodes = (
"130 212 LINE",
"180 290 OFFCURVE",
"335 282 OFFCURVE",
"424 282 CURVE",
"434 342 LINE",
"399 342 LINE",
"321 342 OFFCURVE",
"179 350 OFFCURVE",
"140 272 CURVE"
);
}
);
width = 635;
},
{
layerId = "E103E4E6-9333-477C-9ADC-F52051F3C867";
width = 600;
}
);
leftKerningGroup = A;
rightKerningGroup = A;
unicode = 0041;
},
{
glyphname = B;
lastChange = "2020-08-01 17:51:37 +0000";
layers = (
{
layerId = "AEA248FC-48D8-43C3-8E42-77E797A92BBC";
paths = (
{
closed = 1;
nodes = (
"49 618 OFFCURVE",
"54 433 OFFCURVE",
"54 356 CURVE SMOOTH",
"54 276 OFFCURVE",
"49 86 OFFCURVE",
"40 5 CURVE",
"45 0 LINE",
"70 0 OFFCURVE",
"136 0 OFFCURVE",
"161 0 CURVE",
"166 5 LINE",
"165 15 OFFCURVE",
"164 27 OFFCURVE",
"152 40 CURVE",
"152 356 LINE",
"157 650 LINE",
"157 700 LINE",
"45 700 LINE",
"40 695 LINE"
);
},
{
closed = 1;
nodes = (
"319 376 OFFCURVE",
"328 384 OFFCURVE",
"333 388 CURVE SMOOTH",
"339 393 OFFCURVE",
"342 395 OFFCURVE",
"347 398 CURVE",
"456 458 OFFCURVE",
"471 497 OFFCURVE",
"471 560 CURVE SMOOTH",
"471 643 OFFCURVE",
"402 700 OFFCURVE",
"268 700 CURVE SMOOTH",
"100 700 LINE",
"100 660 LINE",
"268 660 LINE SMOOTH",
"323 660 OFFCURVE",
"361 620 OFFCURVE",
"361 560 CURVE SMOOTH",
"361 478 OFFCURVE",
"348 441 OFFCURVE",
"98 346 CURVE",
"98 316 LINE",
"312 407 OFFCURVE",
"411 332 OFFCURVE",
"411 189 CURVE SMOOTH",
"411 84 OFFCURVE",
"365 40 OFFCURVE",
"298 40 CURVE SMOOTH",
"100 40 LINE",
"100 0 LINE",
"298 0 LINE",
"444 0 OFFCURVE",
"521 50 OFFCURVE",
"521 189 CURVE SMOOTH",
"521 279 OFFCURVE",
"491 379 OFFCURVE",
"346 372 CURVE",
"342 372 OFFCURVE",
"336 372 OFFCURVE",
"333 373 CURVE SMOOTH"
);
}
);
width = 556;
},
{
associatedMasterId = "AEA248FC-48D8-43C3-8E42-77E797A92BBC";
layerId = "2C52A76F-7CFE-45F3-AD1D-B96E5829EE64";
name = "Jul 14 20, 21:21";
paths = (
{
closed = 1;
nodes = (
"332 670 OFFCURVE",
"369 613 OFFCURVE",
"369 540 CURVE SMOOTH",
"369 469 OFFCURVE",
"332 421 OFFCURVE",
"277 421 CURVE SMOOTH",
"109 421 LINE",
"109 381 LINE",
"277 381 LINE SMOOTH",
"362 381 OFFCURVE",
"419 308 OFFCURVE",
"419 199 CURVE SMOOTH",
"419 104 OFFCURVE",
"374 40 OFFCURVE",
"307 40 CURVE SMOOTH",
"167 40 LINE",
"109 40 LINE",
"109 0 LINE",
"307 0 LINE",
"307 0 OFFCURVE",
"307 0 OFFCURVE",
"307 0 CURVE SMOOTH",
"453 0 OFFCURVE",
"550 80 OFFCURVE",
"550 199 CURVE SMOOTH",
"550 332 OFFCURVE",
"441 421 OFFCURVE",
"277 421 CURVE",
"277 381 LINE",
"411 381 OFFCURVE",
"500 445 OFFCURVE",
"500 540 CURVE SMOOTH",
"500 636 OFFCURVE",
"411 710 OFFCURVE",
"277 710 CURVE SMOOTH",
"109 710 LINE",
"109 670 LINE",
"277 670 LINE SMOOTH"
);
},
{
closed = 1;
nodes = (
"58 628 OFFCURVE",
"63 433 OFFCURVE",
"63 356 CURVE SMOOTH",
"63 276 OFFCURVE",
"58 86 OFFCURVE",
"49 5 CURVE",
"54 0 LINE",
"79 0 OFFCURVE",
"145 0 OFFCURVE",
"170 0 CURVE",
"175 5 LINE",
"174 15 OFFCURVE",
"173 27 OFFCURVE",
"161 40 CURVE",
"161 356 LINE",
"166 660 LINE",
"172 678 OFFCURVE",
"174 693 OFFCURVE",
"175 705 CURVE",
"170 710 LINE",
"54 710 LINE",
"49 705 LINE"
);
},
{
closed = 1;
nodes = (
"277 421 LINE"
);
}
);
width = 600;
},
{
associatedMasterId = "AEA248FC-48D8-43C3-8E42-77E797A92BBC";
layerId = "C1D2E951-A239-4684-85B3-2ACF3609EDF0";
name = "Jul 16 20, 00:13";
paths = (
{
closed = 1;
nodes = (
"58 628 OFFCURVE",
"63 433 OFFCURVE",
"63 356 CURVE SMOOTH",
"63 276 OFFCURVE",
"58 86 OFFCURVE",
"49 5 CURVE",
"54 0 LINE",
"79 0 OFFCURVE",
"145 0 OFFCURVE",
"170 0 CURVE",
"175 5 LINE",
"174 15 OFFCURVE",
"173 27 OFFCURVE",
"161 40 CURVE",
"161 356 LINE",
"166 660 LINE",
"166 710 LINE",
"54 710 LINE",
"49 705 LINE"
);
},
{
closed = 1;
nodes = (
"337 396 OFFCURVE",
"337 405 OFFCURVE",
"342 413 CURVE",
"462 429 OFFCURVE",
"500 458 OFFCURVE",
"500 540 CURVE SMOOTH",
"500 646 OFFCURVE",
"411 710 OFFCURVE",
"277 710 CURVE SMOOTH",
"109 710 LINE",
"109 650 LINE",
"277 650 LINE SMOOTH",
"332 650 OFFCURVE",
"389 623 OFFCURVE",
"389 540 CURVE SMOOTH",
"389 463 OFFCURVE",
"348 431 OFFCURVE",
"197 431 CURVE",
"107 431 LINE",
"107 371 LINE",
"197 371 LINE",
"381 371 OFFCURVE",
"439 313 OFFCURVE",
"439 199 CURVE SMOOTH",
"439 84 OFFCURVE",
"374 60 OFFCURVE",
"307 60 CURVE SMOOTH",
"109 60 LINE",
"109 0 LINE",
"307 0 LINE",
"453 0 OFFCURVE",
"550 50 OFFCURVE",
"550 199 CURVE SMOOTH",
"550 302 OFFCURVE",
"497 363 OFFCURVE",
"342 388 CURVE"
);
}
);
width = 600;
},
{
associatedMasterId = "E103E4E6-9333-477C-9ADC-F52051F3C867";
layerId = "8E169918-2BDA-47B4-A650-6EBA9D9168E8";
paths = (
{
closed = 1;
nodes = (
"49 618 OFFCURVE",
"54 433 OFFCURVE",
"54 356 CURVE SMOOTH",
"54 276 OFFCURVE",
"49 86 OFFCURVE",
"40 5 CURVE",
"45 0 LINE",
"70 0 OFFCURVE",
"136 0 OFFCURVE",
"161 0 CURVE",
"166 5 LINE",
"165 15 OFFCURVE",
"164 27 OFFCURVE",
"152 40 CURVE",
"152 356 LINE",
"157 650 LINE",
"157 700 LINE",
"45 700 LINE",
"40 695 LINE"
);
},
{
closed = 1;
nodes = (
"319 376 OFFCURVE",
"328 384 OFFCURVE",
"333 388 CURVE SMOOTH",
"339 393 OFFCURVE",
"342 395 OFFCURVE",
"347 398 CURVE",
"456 458 OFFCURVE",
"471 497 OFFCURVE",
"471 560 CURVE SMOOTH",
"471 643 OFFCURVE",
"402 700 OFFCURVE",
"268 700 CURVE SMOOTH",
"100 700 LINE",
"100 660 LINE",
"268 660 LINE SMOOTH",
"323 660 OFFCURVE",
"361 620 OFFCURVE",
"361 560 CURVE SMOOTH",
"361 478 OFFCURVE",
"348 441 OFFCURVE",
"98 346 CURVE",
"98 316 LINE",
"312 407 OFFCURVE",
"411 332 OFFCURVE",
"411 189 CURVE SMOOTH",
"411 84 OFFCURVE",
"365 40 OFFCURVE",
"298 40 CURVE SMOOTH",
"100 40 LINE",
"100 0 LINE",
"298 0 LINE",
"444 0 OFFCURVE",
"521 50 OFFCURVE",
"521 189 CURVE SMOOTH",
"521 279 OFFCURVE",
"491 379 OFFCURVE",
"346 372 CURVE",
"342 372 OFFCURVE",
"336 372 OFFCURVE",
"333 373 CURVE SMOOTH"
);
}
);
width = 556;
},
{
associatedMasterId = "E103E4E6-9333-477C-9ADC-F52051F3C867";
layerId = "AC88F069-2AA6-4709-8649-CA75DE523D84";
name = "Jul 14 20, 21:21";
paths = (
{
closed = 1;
nodes = (
"332 670 OFFCURVE",
"369 613 OFFCURVE",
"369 540 CURVE SMOOTH",
"369 469 OFFCURVE",
"332 421 OFFCURVE",
"277 421 CURVE SMOOTH",
"109 421 LINE",
"109 381 LINE",
"277 381 LINE SMOOTH",
"362 381 OFFCURVE",
"419 308 OFFCURVE",
"419 199 CURVE SMOOTH",
"419 104 OFFCURVE",
"374 40 OFFCURVE",
"307 40 CURVE SMOOTH",
"167 40 LINE",
"109 40 LINE",
"109 0 LINE",
"307 0 LINE",
"307 0 OFFCURVE",
"307 0 OFFCURVE",
"307 0 CURVE SMOOTH",
"453 0 OFFCURVE",
"550 80 OFFCURVE",
"550 199 CURVE SMOOTH",
"550 332 OFFCURVE",
"441 421 OFFCURVE",
"277 421 CURVE",
"277 381 LINE",
"411 381 OFFCURVE",
"500 445 OFFCURVE",
"500 540 CURVE SMOOTH",
"500 636 OFFCURVE",
"411 710 OFFCURVE",
"277 710 CURVE SMOOTH",
"109 710 LINE",
"109 670 LINE",
"277 670 LINE SMOOTH"
);
},
{
closed = 1;
nodes = (
"58 628 OFFCURVE",
"63 433 OFFCURVE",
"63 356 CURVE SMOOTH",
"63 276 OFFCURVE",
"58 86 OFFCURVE",
"49 5 CURVE",
"54 0 LINE",
"79 0 OFFCURVE",
"145 0 OFFCURVE",
"170 0 CURVE",
"175 5 LINE",
"174 15 OFFCURVE",
"173 27 OFFCURVE",
"161 40 CURVE",
"161 356 LINE",
"166 660 LINE",
"172 678 OFFCURVE",
"174 693 OFFCURVE",
"175 705 CURVE",
"170 710 LINE",
"54 710 LINE",
"49 705 LINE"
);
},
{
closed = 1;
nodes = (
"277 421 LINE"
);
}
);
width = 600;
},
{
associatedMasterId = "E103E4E6-9333-477C-9ADC-F52051F3C867";
layerId = "BC7FE95F-893E-44A5-A007-B6AAF0848EBB";
name = "Jul 16 20, 00:13";
paths = (
{
closed = 1;
nodes = (
"58 628 OFFCURVE",
"63 433 OFFCURVE",
"63 356 CURVE SMOOTH",
"63 276 OFFCURVE",
"58 86 OFFCURVE",
"49 5 CURVE",
"54 0 LINE",
"79 0 OFFCURVE",
"145 0 OFFCURVE",
"170 0 CURVE",
"175 5 LINE",
"174 15 OFFCURVE",
"173 27 OFFCURVE",
"161 40 CURVE",
"161 356 LINE",
"166 660 LINE",
"166 710 LINE",
"54 710 LINE",
"49 705 LINE"
);
},
{
closed = 1;
nodes = (
"337 396 OFFCURVE",
"337 405 OFFCURVE",
"342 413 CURVE",
"462 429 OFFCURVE",
"500 458 OFFCURVE",
"500 540 CURVE SMOOTH",
"500 646 OFFCURVE",
"411 710 OFFCURVE",
"277 710 CURVE SMOOTH",
"109 710 LINE",
"109 650 LINE",
"277 650 LINE SMOOTH",
"332 650 OFFCURVE",
"389 623 OFFCURVE",
"389 540 CURVE SMOOTH",
"389 463 OFFCURVE",
"348 431 OFFCURVE",
"197 431 CURVE",
"107 431 LINE",
"107 371 LINE",
"197 371 LINE",
"381 371 OFFCURVE",
"439 313 OFFCURVE",
"439 199 CURVE SMOOTH",
"439 84 OFFCURVE",
"374 60 OFFCURVE",
"307 60 CURVE SMOOTH",
"109 60 LINE",
"109 0 LINE",
"307 0 LINE",
"453 0 OFFCURVE",
"550 50 OFFCURVE",
"550 199 CURVE SMOOTH",
"550 302 OFFCURVE",
"497 363 OFFCURVE",
"342 388 CURVE"
);
}
);
width = 600;
},
{
layerId = "E103E4E6-9333-477C-9ADC-F52051F3C867";
width = 600;
},
{
layerId = "B6F795C8-F751-4DF7-955B-5EAABF4BC2BE";
width = 600;
}
);
leftKerningGroup = H;
leftMetricsKey = H;
unicode = 0042;
},
{
glyphname = C;
lastChange = "2020-08-01 17:52:37 +0000";
layers = (
{
layerId = "AEA248FC-48D8-43C3-8E42-77E797A92BBC";
paths = (
{
closed = 1;
nodes = (
"493 -15 OFFCURVE",
"606 20 OFFCURVE",
"684 85 CURVE",
"691 104 LINE",
"658 131 OFFCURVE",
"620 163 OFFCURVE",
"606 199 CURVE",
"579 199 LINE",
"556 96 OFFCURVE",
"500 25 OFFCURVE",
"387 25 CURVE SMOOTH",
"258 25 OFFCURVE",
"150 164 OFFCURVE",
"150 349 CURVE SMOOTH",
"150 535 OFFCURVE",
"245 675 OFFCURVE",
"387 675 CURVE SMOOTH",
"500 675 OFFCURVE",
"556 589 OFFCURVE",
"579 459 CURVE",
"606 459 LINE",
"620 509 OFFCURVE",
"658 559 OFFCURVE",
"691 595 CURVE",
"684 615 LINE",
"606 680 OFFCURVE",
"493 715 OFFCURVE",
"379 715 CURVE SMOOTH",
"180 715 OFFCURVE",
"40 568 OFFCURVE",
"40 349 CURVE SMOOTH",
"40 131 OFFCURVE",
"180 -15 OFFCURVE",
"379 -15 CURVE SMOOTH"
);
}
);
width = 706;
},
{
associatedMasterId = "E103E4E6-9333-477C-9ADC-F52051F3C867";
layerId = "8E169918-2BDA-47B4-A650-6EBA9D9168E8";
paths = (
{
closed = 1;
nodes = (
"493 -15 OFFCURVE",
"606 20 OFFCURVE",
"684 85 CURVE",
"691 104 LINE",
"658 131 OFFCURVE",
"620 163 OFFCURVE",
"606 199 CURVE",
"579 199 LINE",
"556 96 OFFCURVE",
"500 25 OFFCURVE",
"387 25 CURVE SMOOTH",
"258 25 OFFCURVE",
"150 164 OFFCURVE",
"150 349 CURVE SMOOTH",
"150 535 OFFCURVE",
"245 675 OFFCURVE",
"387 675 CURVE SMOOTH",
"500 675 OFFCURVE",
"556 589 OFFCURVE",
"579 459 CURVE",
"606 459 LINE",
"620 509 OFFCURVE",
"658 559 OFFCURVE",
"691 595 CURVE",
"684 615 LINE",
"606 680 OFFCURVE",
"493 715 OFFCURVE",
"379 715 CURVE SMOOTH",
"180 715 OFFCURVE",
"40 568 OFFCURVE",
"40 349 CURVE SMOOTH",
"40 131 OFFCURVE",
"180 -15 OFFCURVE",
"379 -15 CURVE SMOOTH"
);
}
);
width = 706;
},
{
layerId = "E103E4E6-9333-477C-9ADC-F52051F3C867";
width = 600;
},
{
layerId = "B6F795C8-F751-4DF7-955B-5EAABF4BC2BE";
width = 600;
}
);
leftKerningGroup = O;
leftMetricsKey = O;
rightKerningGroup = C;
unicode = 0043;
},
{
glyphname = D;
lastChange = "2020-08-01 17:53:13 +0000";
layers = (
{
layerId = "AEA248FC-48D8-43C3-8E42-77E797A92BBC";
paths = (
{
closed = 1;
nodes = (
"49 618 OFFCURVE",
"54 433 OFFCURVE",
"54 356 CURVE SMOOTH",
"54 276 OFFCURVE",
"49 86 OFFCURVE",
"40 5 CURVE",
"45 0 LINE",
"70 0 OFFCURVE",
"136 0 OFFCURVE",
"161 0 CURVE",
"166 5 LINE",
"152 40 LINE",
"152 356 LINE",
"157 650 LINE",
"163 668 OFFCURVE",
"165 683 OFFCURVE",
"166 695 CURVE",
"161 700 LINE",
"45 700 LINE",
"40 695 LINE"
);
},
{
closed = 1;
nodes = (
"267 660 LINE",
"433 659 OFFCURVE",
"498 529 OFFCURVE",
"498 346 CURVE SMOOTH",
"498 153 OFFCURVE",
"435 40 OFFCURVE",
"267 40 CURVE",
"267 0 LINE",
"456 1 OFFCURVE",
"608 141 OFFCURVE",
"608 346 CURVE SMOOTH",
"608 542 OFFCURVE",
"456 699 OFFCURVE",
"267 700 CURVE"
);
},
{
closed = 1;
nodes = (
"132 660 LINE",
"267 660 LINE",
"267 700 LINE",
"132 700 LINE"
);
},
{
closed = 1;
nodes = (
"132 0 LINE",
"267 0 LINE",
"267 40 LINE",
"132 40 LINE"
);
}
);
width = 648;
},
{
associatedMasterId = "E103E4E6-9333-477C-9ADC-F52051F3C867";
layerId = "8E169918-2BDA-47B4-A650-6EBA9D9168E8";
paths = (
{
closed = 1;
nodes = (
"49 618 OFFCURVE",
"54 433 OFFCURVE",
"54 356 CURVE SMOOTH",
"54 276 OFFCURVE",
"49 86 OFFCURVE",
"40 5 CURVE",
"45 0 LINE",
"70 0 OFFCURVE",
"136 0 OFFCURVE",
"161 0 CURVE",
"166 5 LINE",
"152 40 LINE",
"152 356 LINE",
"157 650 LINE",
"163 668 OFFCURVE",
"165 683 OFFCURVE",
"166 695 CURVE",
"161 700 LINE",
"45 700 LINE",
"40 695 LINE"
);
},
{
closed = 1;
nodes = (
"267 660 LINE",
"433 659 OFFCURVE",
"498 529 OFFCURVE",
"498 346 CURVE SMOOTH",
"498 153 OFFCURVE",
"435 40 OFFCURVE",
"267 40 CURVE",
"267 0 LINE",
"456 1 OFFCURVE",
"608 141 OFFCURVE",
"608 346 CURVE SMOOTH",
"608 542 OFFCURVE",
"456 699 OFFCURVE",
"267 700 CURVE"
);
},
{
closed = 1;
nodes = (
"132 660 LINE",
"267 660 LINE",
"267 700 LINE",
"132 700 LINE"
);
},
{
closed = 1;
nodes = (
"132 0 LINE",
"267 0 LINE",
"267 40 LINE",
"132 40 LINE"
);
}
);
width = 648;
},
{
layerId = "B6F795C8-F751-4DF7-955B-5EAABF4BC2BE";
width = 600;
},
{
layerId = "E103E4E6-9333-477C-9ADC-F52051F3C867";
width = 600;
}
);
leftKerningGroup = H;
leftMetricsKey = H;
rightKerningGroup = O;
rightMetricsKey = O;
unicode = 0044;
},
{
glyphname = E;
lastChange = "2020-08-01 17:54:33 +0000";
layers = (
{
layerId = "AEA248FC-48D8-43C3-8E42-77E797A92BBC";
paths = (
{
closed = 1;
nodes = (
"49 618 OFFCURVE",
"54 433 OFFCURVE",
"54 356 CURVE SMOOTH",
"54 276 OFFCURVE",
"49 86 OFFCURVE",
"40 5 CURVE",
"45 0 LINE",
"152 0 LINE",
"152 356 LINE",
"152 700 LINE",
"45 700 LINE",
"40 695 LINE"
);
},
{
closed = 1;
nodes = (
"107 660 LINE",
"169 660 OFFCURVE",
"231 660 OFFCURVE",
"293 660 CURVE SMOOTH",
"352 660 OFFCURVE",
"411 663 OFFCURVE",
"470 630 CURVE",
"475 635 LINE",
"475 658 OFFCURVE",
"475 672 OFFCURVE",
"475 695 CURVE",
"470 700 LINE",
"107 700 LINE"
);
},
{
closed = 1;
nodes = (
"470 0 LINE",
"475 5 LINE",
"505 85 LINE",
"500 90 LINE",
"441 57 OFFCURVE",
"372 40 OFFCURVE",
"313 40 CURVE SMOOTH",
"251 40 OFFCURVE",
"169 40 OFFCURVE",
"107 40 CURVE",
"107 0 LINE"
);
},
{
closed = 1;
nodes = (
"405 405 LINE",
"400 410 LINE",
"341 397 OFFCURVE",
"169 440 OFFCURVE",
"107 310 CURVE",
"107 270 LINE",
"161 400 OFFCURVE",
"341 323 OFFCURVE",
"400 310 CURVE",
"405 315 LINE"
);
}
);
width = 550;
},
{
associatedMasterId = "E103E4E6-9333-477C-9ADC-F52051F3C867";
layerId = "8E169918-2BDA-47B4-A650-6EBA9D9168E8";
paths = (
{
closed = 1;
nodes = (
"49 618 OFFCURVE",
"54 433 OFFCURVE",
"54 356 CURVE SMOOTH",
"54 276 OFFCURVE",
"49 86 OFFCURVE",
"40 5 CURVE",
"45 0 LINE",
"152 0 LINE",
"152 356 LINE",
"152 700 LINE",
"45 700 LINE",
"40 695 LINE"
);
},
{
closed = 1;
nodes = (
"107 660 LINE",
"169 660 OFFCURVE",
"231 660 OFFCURVE",
"293 660 CURVE SMOOTH",
"352 660 OFFCURVE",
"411 663 OFFCURVE",
"470 630 CURVE",
"475 635 LINE",
"475 658 OFFCURVE",
"475 672 OFFCURVE",
"475 695 CURVE",
"470 700 LINE",
"107 700 LINE"
);
},
{
closed = 1;
nodes = (
"470 0 LINE",
"475 5 LINE",
"505 85 LINE",
"500 90 LINE",
"441 57 OFFCURVE",
"372 40 OFFCURVE",
"313 40 CURVE SMOOTH",
"251 40 OFFCURVE",
"169 40 OFFCURVE",
"107 40 CURVE",
"107 0 LINE"
);
},
{
closed = 1;
nodes = (
"405 405 LINE",
"400 410 LINE",
"341 397 OFFCURVE",
"169 440 OFFCURVE",
"107 310 CURVE",
"107 270 LINE",
"161 400 OFFCURVE",
"341 323 OFFCURVE",
"400 310 CURVE",
"405 315 LINE"
);
}
);
width = 550;
},
{
layerId = "E103E4E6-9333-477C-9ADC-F52051F3C867";
width = 600;
},
{
layerId = "B6F795C8-F751-4DF7-955B-5EAABF4BC2BE";
width = 600;
}
);
leftKerningGroup = H;
leftMetricsKey = H;
rightKerningGroup = E;
unicode = 0045;
},
{
glyphname = F;
lastChange = "2020-08-01 17:57:10 +0000";
layers = (
{
layerId = "AEA248FC-48D8-43C3-8E42-77E797A92BBC";
paths = (
{
closed = 1;
nodes = (
"49 618 OFFCURVE",
"54 433 OFFCURVE",
"54 356 CURVE SMOOTH",
"54 276 OFFCURVE",
"49 86 OFFCURVE",
"40 5 CURVE",
"45 0 LINE",
"161 0 LINE",
"166 5 LINE",
"158 86 OFFCURVE",
"151 276 OFFCURVE",
"152 356 CURVE SMOOTH",
"153 432 OFFCURVE",
"160 616 OFFCURVE",
"166 695 CURVE",
"161 700 LINE",
"45 700 LINE",
"40 695 LINE"
);
},
{
closed = 1;
nodes = (
"107 660 LINE",
"169 660 OFFCURVE",
"231 660 OFFCURVE",
"293 660 CURVE SMOOTH",
"352 660 OFFCURVE",
"416 633 OFFCURVE",
"450 610 CURVE",
"455 615 LINE",
"475 695 LINE",
"470 700 LINE",
"107 700 LINE"
);
},
{
closed = 1;
nodes = (
"405 405 LINE",
"400 410 LINE",
"341 397 OFFCURVE",
"169 440 OFFCURVE",
"107 310 CURVE",
"107 270 LINE",
"161 400 OFFCURVE",
"341 323 OFFCURVE",
"400 310 CURVE",
"405 315 LINE"
);
}
);
width = 520;
},
{
associatedMasterId = "E103E4E6-9333-477C-9ADC-F52051F3C867";
layerId = "8E169918-2BDA-47B4-A650-6EBA9D9168E8";
paths = (
{
closed = 1;
nodes = (
"49 618 OFFCURVE",
"54 433 OFFCURVE",
"54 356 CURVE SMOOTH",
"54 276 OFFCURVE",
"49 86 OFFCURVE",
"40 5 CURVE",
"45 0 LINE",
"161 0 LINE",
"166 5 LINE",
"158 86 OFFCURVE",
"151 276 OFFCURVE",
"152 356 CURVE SMOOTH",
"153 432 OFFCURVE",
"160 616 OFFCURVE",
"166 695 CURVE",
"161 700 LINE",
"45 700 LINE",
"40 695 LINE"
);
},
{
closed = 1;
nodes = (
"107 660 LINE",
"169 660 OFFCURVE",
"231 660 OFFCURVE",
"293 660 CURVE SMOOTH",
"352 660 OFFCURVE",
"416 633 OFFCURVE",
"450 610 CURVE",
"455 615 LINE",
"475 695 LINE",
"470 700 LINE",
"107 700 LINE"
);
},
{
closed = 1;
nodes = (
"405 405 LINE",
"400 410 LINE",
"341 397 OFFCURVE",
"169 440 OFFCURVE",
"107 310 CURVE",
"107 270 LINE",
"161 400 OFFCURVE",
"341 323 OFFCURVE",
"400 310 CURVE",
"405 315 LINE"
);
}
);
width = 520;
},
{
layerId = "E103E4E6-9333-477C-9ADC-F52051F3C867";
width = 600;
},
{
layerId = "B6F795C8-F751-4DF7-955B-5EAABF4BC2BE";
width = 600;
}
);
leftKerningGroup = H;
leftMetricsKey = H;
rightKerningGroup = F;
rightMetricsKey = E;
unicode = 0046;
},
{
glyphname = G;
lastChange = "2020-08-01 17:58:33 +0000";
layers = (
{
layerId = "AEA248FC-48D8-43C3-8E42-77E797A92BBC";
paths = (
{
closed = 1;
nodes = (
"532 348 LINE",
"532 156 OFFCURVE",
"532 15 OFFCURVE",
"362 15 CURVE SMOOTH",
"218 15 OFFCURVE",
"151 155 OFFCURVE",
"150 348 CURVE SMOOTH",
"149 540 OFFCURVE",
"219 675 OFFCURVE",
"362 675 CURVE SMOOTH",
"492 675 OFFCURVE",
"534 570 OFFCURVE",
"545 450 CURVE",
"555 450 LINE",
"585 482 OFFCURVE",
"643 533 OFFCURVE",
"665 558 CURVE",
"657 566 LINE",
"600 652 OFFCURVE",
"524 715 OFFCURVE",
"362 715 CURVE SMOOTH",
"184 715 OFFCURVE",
"41 553 OFFCURVE",
"40 348 CURVE SMOOTH",
"39 143 OFFCURVE",
"152 -15 OFFCURVE",
"362 -15 CURVE SMOOTH",
"572 -15 OFFCURVE",
"572 169 OFFCURVE",
"572 348 CURVE"
);
},
{
closed = 1;
nodes = (
"346 273 LINE",
"356 271 LINE",
"436 361 OFFCURVE",
"552 308 OFFCURVE",
"632 308 CURVE",
"652 323 LINE",
"652 348 LINE",
"558 348 OFFCURVE",
"425 403 OFFCURVE",
"331 313 CURVE",
"329 303 LINE"
);
},
{
closed = 1;
nodes = (
"542 160 LINE",
"574 160 LINE",
"605 116 OFFCURVE",
"613 67 OFFCURVE",
"613 0 CURVE",
"653 0 LINE",
"652 331 LINE",
"542 331 LINE"
);
}
);
width = 705;
},
{
associatedMasterId = "E103E4E6-9333-477C-9ADC-F52051F3C867";
layerId = "8E169918-2BDA-47B4-A650-6EBA9D9168E8";
paths = (
{
closed = 1;
nodes = (
"532 348 LINE",
"532 156 OFFCURVE",
"532 15 OFFCURVE",
"362 15 CURVE SMOOTH",
"218 15 OFFCURVE",
"151 155 OFFCURVE",
"150 348 CURVE SMOOTH",
"149 540 OFFCURVE",
"219 675 OFFCURVE",
"362 675 CURVE SMOOTH",
"492 675 OFFCURVE",
"534 570 OFFCURVE",
"545 450 CURVE",
"555 450 LINE",
"585 482 OFFCURVE",
"643 533 OFFCURVE",
"665 558 CURVE",
"657 566 LINE",
"600 652 OFFCURVE",
"524 715 OFFCURVE",
"362 715 CURVE SMOOTH",
"184 715 OFFCURVE",
"41 553 OFFCURVE",
"40 348 CURVE SMOOTH",
"39 143 OFFCURVE",
"152 -15 OFFCURVE",
"362 -15 CURVE SMOOTH",
"572 -15 OFFCURVE",
"572 169 OFFCURVE",
"572 348 CURVE"
);
},
{
closed = 1;
nodes = (
"346 273 LINE",
"356 271 LINE",
"436 361 OFFCURVE",
"552 308 OFFCURVE",
"632 308 CURVE",
"652 323 LINE",
"652 348 LINE",
"558 348 OFFCURVE",
"425 403 OFFCURVE",
"331 313 CURVE",
"329 303 LINE"
);
},
{
closed = 1;
nodes = (
"542 160 LINE",
"574 160 LINE",
"605 116 OFFCURVE",
"613 67 OFFCURVE",
"613 0 CURVE",
"653 0 LINE",
"652 331 LINE",
"542 331 LINE"
);
}
);
width = 705;
},
{
layerId = "E103E4E6-9333-477C-9ADC-F52051F3C867";
width = 600;
},
{
layerId = "B6F795C8-F751-4DF7-955B-5EAABF4BC2BE";
width = 600;
}
);
leftKerningGroup = O;
leftMetricsKey = O;
rightKerningGroup = G;
unicode = 0047;
},
{
glyphname = H;
lastChange = "2020-08-01 18:00:10 +0000";
layers = (
{
layerId = "AEA248FC-48D8-43C3-8E42-77E797A92BBC";
paths = (
{
closed = 1;
nodes = (
"49 623 OFFCURVE",
"54 433 OFFCURVE",
"54 356 CURVE SMOOTH",
"54 276 OFFCURVE",
"49 86 OFFCURVE",
"40 5 CURVE",
"45 0 LINE",
"161 0 LINE",
"166 5 LINE",
"158 86 OFFCURVE",
"151 276 OFFCURVE",
"152 356 CURVE SMOOTH",
"153 432 OFFCURVE",
"160 621 OFFCURVE",
"166 700 CURVE",
"161 705 LINE",
"122 701 OFFCURVE",
"84 701 OFFCURVE",
"45 705 CURVE",
"40 700 LINE"
);
},
{
closed = 1;
nodes = (
"497 623 OFFCURVE",
"502 433 OFFCURVE",
"502 356 CURVE SMOOTH",
"502 276 OFFCURVE",
"497 86 OFFCURVE",
"488 5 CURVE",
"493 0 LINE",
"609 0 LINE",
"614 5 LINE",
"606 86 OFFCURVE",
"599 276 OFFCURVE",
"600 356 CURVE SMOOTH",
"601 432 OFFCURVE",
"608 621 OFFCURVE",
"614 700 CURVE",
"609 705 LINE",
"570 700 OFFCURVE",
"532 700 OFFCURVE",
"493 705 CURVE",
"488 700 LINE"
);
},
{
closed = 1;
nodes = (
"142 261 LINE",
"215 391 OFFCURVE",
"389 301 OFFCURVE",
"512 351 CURVE",
"512 396 LINE",
"389 346 OFFCURVE",
"215 446 OFFCURVE",
"142 306 CURVE"
);
}
);
width = 654;
},
{
associatedMasterId = "E103E4E6-9333-477C-9ADC-F52051F3C867";
layerId = "8E169918-2BDA-47B4-A650-6EBA9D9168E8";
paths = (
{
closed = 1;
nodes = (
"49 623 OFFCURVE",
"54 433 OFFCURVE",
"54 356 CURVE SMOOTH",
"54 276 OFFCURVE",
"49 86 OFFCURVE",
"40 5 CURVE",
"45 0 LINE",
"161 0 LINE",
"166 5 LINE",
"158 86 OFFCURVE",
"151 276 OFFCURVE",
"152 356 CURVE SMOOTH",
"153 432 OFFCURVE",
"160 621 OFFCURVE",
"166 700 CURVE",
"161 705 LINE",
"122 701 OFFCURVE",
"84 701 OFFCURVE",
"45 705 CURVE",
"40 700 LINE"
);
},
{
closed = 1;
nodes = (
"497 623 OFFCURVE",
"502 433 OFFCURVE",
"502 356 CURVE SMOOTH",
"502 276 OFFCURVE",
"497 86 OFFCURVE",
"488 5 CURVE",
"493 0 LINE",
"609 0 LINE",
"614 5 LINE",
"606 86 OFFCURVE",
"599 276 OFFCURVE",
"600 356 CURVE SMOOTH",
"601 432 OFFCURVE",
"608 621 OFFCURVE",
"614 700 CURVE",
"609 705 LINE",
"570 700 OFFCURVE",
"532 700 OFFCURVE",
"493 705 CURVE",
"488 700 LINE"
);
},
{
closed = 1;
nodes = (
"142 261 LINE",
"215 391 OFFCURVE",
"389 301 OFFCURVE",
"512 351 CURVE",
"512 396 LINE",
"389 346 OFFCURVE",
"215 446 OFFCURVE",
"142 306 CURVE"
);
}
);
width = 654;
},
{
layerId = "B6F795C8-F751-4DF7-955B-5EAABF4BC2BE";
width = 600;
},
{
layerId = "E103E4E6-9333-477C-9ADC-F52051F3C867";
width = 600;
}
);
leftKerningGroup = H;
rightKerningGroup = H;
unicode = 0048;
},
{
glyphname = I;
lastChange = "2020-08-01 18:01:03 +0000";
layers = (
{
layerId = "AEA248FC-48D8-43C3-8E42-77E797A92BBC";
paths = (
{
closed = 1;
nodes = (
"181 0 LINE",
"186 5 LINE",
"177 86 OFFCURVE",
"172 272 OFFCURVE",
"172 353 CURVE SMOOTH",
"172 429 OFFCURVE",
"177 626 OFFCURVE",
"186 699 CURVE",
"181 704 LINE",
"156 699 OFFCURVE",
"90 699 OFFCURVE",
"65 704 CURVE",
"60 699 LINE",
"69 619 OFFCURVE",
"74 426 OFFCURVE",
"74 353 CURVE SMOOTH",
"74 273 OFFCURVE",
"69 86 OFFCURVE",
"60 5 CURVE",
"65 0 LINE"
);
}
);
width = 246;
},
{
associatedMasterId = "E103E4E6-9333-477C-9ADC-F52051F3C867";
layerId = "8E169918-2BDA-47B4-A650-6EBA9D9168E8";
paths = (
{
closed = 1;
nodes = (
"181 0 LINE",
"186 5 LINE",
"177 86 OFFCURVE",
"172 272 OFFCURVE",
"172 353 CURVE SMOOTH",
"172 429 OFFCURVE",
"177 626 OFFCURVE",
"186 699 CURVE",
"181 704 LINE",
"156 699 OFFCURVE",
"90 699 OFFCURVE",
"65 704 CURVE",
"60 699 LINE",
"69 619 OFFCURVE",
"74 426 OFFCURVE",
"74 353 CURVE SMOOTH",
"74 273 OFFCURVE",
"69 86 OFFCURVE",
"60 5 CURVE",
"65 0 LINE"
);
}
);
width = 246;
},
{
layerId = "E103E4E6-9333-477C-9ADC-F52051F3C867";
width = 600;
},
{
layerId = "B6F795C8-F751-4DF7-955B-5EAABF4BC2BE";
width = 600;
}
);
leftKerningGroup = H;
rightKerningGroup = H;
unicode = 0049;
},
{
glyphname = J;
lastChange = "2020-08-01 18:01:54 +0000";
layers = (
{
layerId = "AEA248FC-48D8-43C3-8E42-77E797A92BBC";
paths = (
{
closed = 1;
nodes = (
"420 700 LINE",
"415 705 LINE",
"377 699 OFFCURVE",
"340 699 OFFCURVE",
"306 705 CURVE",
"301 700 LINE",
"310 621 OFFCURVE",
"315 503 OFFCURVE",
"315 356 CURVE SMOOTH",
"315 138 OFFCURVE",
"314 25 OFFCURVE",
"226 25 CURVE SMOOTH",
"151 25 OFFCURVE",
"112 99 OFFCURVE",
"112 241 CURVE",
"93 241 LINE",
"35 193 LINE",
"30 183 LINE",
"30 53 OFFCURVE",
"97 -15 OFFCURVE",
"226 -15 CURVE SMOOTH",
"347 -15 OFFCURVE",
"410 52 OFFCURVE",
"410 180 CURVE"
);
}
);
width = 480;
},
{
associatedMasterId = "E103E4E6-9333-477C-9ADC-F52051F3C867";
layerId = "8E169918-2BDA-47B4-A650-6EBA9D9168E8";
paths = (
{
closed = 1;
nodes = (
"420 700 LINE",
"415 705 LINE",
"377 699 OFFCURVE",
"340 699 OFFCURVE",
"306 705 CURVE",
"301 700 LINE",
"310 621 OFFCURVE",
"315 503 OFFCURVE",
"315 356 CURVE SMOOTH",
"315 138 OFFCURVE",
"314 25 OFFCURVE",
"226 25 CURVE SMOOTH",
"151 25 OFFCURVE",
"112 99 OFFCURVE",
"112 241 CURVE",
"93 241 LINE",
"35 193 LINE",
"30 183 LINE",
"30 53 OFFCURVE",
"97 -15 OFFCURVE",
"226 -15 CURVE SMOOTH",
"347 -15 OFFCURVE",
"410 52 OFFCURVE",
"410 180 CURVE"
);
}
);
width = 480;
},
{
layerId = "E103E4E6-9333-477C-9ADC-F52051F3C867";
width = 600;
},
{
layerId = "B6F795C8-F751-4DF7-955B-5EAABF4BC2BE";
width = 600;
}
);
rightMetricsKey = I;
unicode = 004A;
},
{
glyphname = K;
lastChange = "2020-08-01 18:03:48 +0000";
layers = (
{
layerId = "AEA248FC-48D8-43C3-8E42-77E797A92BBC";
paths = (
{
closed = 1;
nodes = (
"49 623 OFFCURVE",
"54 433 OFFCURVE",
"54 356 CURVE SMOOTH",
"54 276 OFFCURVE",
"49 86 OFFCURVE",
"40 5 CURVE",
"45 0 LINE",
"161 0 LINE",
"166 5 LINE",
"158 86 OFFCURVE",
"151 276 OFFCURVE",
"152 356 CURVE SMOOTH",
"153 432 OFFCURVE",
"160 621 OFFCURVE",
"166 700 CURVE",
"161 705 LINE",
"122 698 OFFCURVE",
"84 698 OFFCURVE",
"45 705 CURVE",
"40 700 LINE"
);
},
{
closed = 1;
nodes = (
"129 281 LINE",
"281 368 OFFCURVE",
"544 462 OFFCURVE",
"544 700 CURVE",
"433 700 LINE",
"433 462 OFFCURVE",
"260 394 OFFCURVE",
"129 331 CURVE"
);
},
{
closed = 1;
nodes = (
"223 358 LINE",
"305 237 OFFCURVE",
"435 28 OFFCURVE",
"443 0 CURVE",
"468 0 OFFCURVE",
"532 0 OFFCURVE",
"557 0 CURVE",
"562 5 LINE",
"548 26 OFFCURVE",
"465 158 OFFCURVE",
"403 259 CURVE",
"366 259 OFFCURVE",
"338 270 OFFCURVE",
"305 318 CURVE SMOOTH",
"254 393 LINE"
);
}
);
width = 587;
},
{
associatedMasterId = "E103E4E6-9333-477C-9ADC-F52051F3C867";
layerId = "8E169918-2BDA-47B4-A650-6EBA9D9168E8";
paths = (
{
closed = 1;
nodes = (
"49 623 OFFCURVE",
"54 433 OFFCURVE",
"54 356 CURVE SMOOTH",
"54 276 OFFCURVE",
"49 86 OFFCURVE",
"40 5 CURVE",
"45 0 LINE",
"161 0 LINE",
"166 5 LINE",
"158 86 OFFCURVE",
"151 276 OFFCURVE",
"152 356 CURVE SMOOTH",
"153 432 OFFCURVE",
"160 621 OFFCURVE",
"166 700 CURVE",
"161 705 LINE",
"122 698 OFFCURVE",
"84 698 OFFCURVE",
"45 705 CURVE",
"40 700 LINE"
);
},
{
closed = 1;
nodes = (
"129 281 LINE",
"281 368 OFFCURVE",
"544 462 OFFCURVE",
"544 700 CURVE",
"433 700 LINE",
"433 462 OFFCURVE",
"260 394 OFFCURVE",
"129 331 CURVE"
);
},
{
closed = 1;
nodes = (
"223 358 LINE",
"305 237 OFFCURVE",
"435 28 OFFCURVE",
"443 0 CURVE",
"468 0 OFFCURVE",
"532 0 OFFCURVE",
"557 0 CURVE",
"562 5 LINE",
"548 26 OFFCURVE",
"465 158 OFFCURVE",
"403 259 CURVE",
"366 259 OFFCURVE",
"338 270 OFFCURVE",
"305 318 CURVE SMOOTH",
"254 393 LINE"
);
}
);
width = 587;
},
{
layerId = "E103E4E6-9333-477C-9ADC-F52051F3C867";
width = 600;
},
{
layerId = "B6F795C8-F751-4DF7-955B-5EAABF4BC2BE";
width = 600;
}
);
leftKerningGroup = H;
leftMetricsKey = H;
rightKerningGroup = K;
unicode = 004B;
},
{
glyphname = L;
lastChange = "2020-08-01 18:04:54 +0000";
layers = (
{
layerId = "AEA248FC-48D8-43C3-8E42-77E797A92BBC";
paths = (
{
closed = 1;
nodes = (
"69 621 OFFCURVE",
"75 432 OFFCURVE",
"74 356 CURVE SMOOTH",
"73 276 OFFCURVE",
"69 86 OFFCURVE",
"60 5 CURVE",
"65 0 LINE",
"181 0 LINE",
"186 5 LINE",
"178 86 OFFCURVE",
"171 276 OFFCURVE",
"172 356 CURVE SMOOTH",
"173 432 OFFCURVE",
"177 621 OFFCURVE",
"186 700 CURVE",
"181 705 LINE",
"142 699 OFFCURVE",
"104 699 OFFCURVE",
"65 705 CURVE",
"60 700 LINE"
);
},
{
closed = 1;
nodes = (
"490 0 LINE",
"495 5 LINE",
"495 48 OFFCURVE",
"495 52 OFFCURVE",
"495 75 CURVE",
"490 80 LINE",
"431 51 OFFCURVE",
"372 40 OFFCURVE",
"313 40 CURVE SMOOTH",
"251 40 OFFCURVE",
"189 40 OFFCURVE",
"127 40 CURVE",
"127 0 LINE"
);
}
);
width = 540;
},
{
associatedMasterId = "E103E4E6-9333-477C-9ADC-F52051F3C867";
layerId = "8E169918-2BDA-47B4-A650-6EBA9D9168E8";
paths = (
{
closed = 1;
nodes = (
"69 621 OFFCURVE",
"75 432 OFFCURVE",
"74 356 CURVE SMOOTH",
"73 276 OFFCURVE",
"69 86 OFFCURVE",
"60 5 CURVE",
"65 0 LINE",
"181 0 LINE",
"186 5 LINE",
"178 86 OFFCURVE",
"171 276 OFFCURVE",
"172 356 CURVE SMOOTH",
"173 432 OFFCURVE",
"177 621 OFFCURVE",
"186 700 CURVE",
"181 705 LINE",
"142 699 OFFCURVE",
"104 699 OFFCURVE",
"65 705 CURVE",
"60 700 LINE"
);
},
{
closed = 1;
nodes = (
"490 0 LINE",
"495 5 LINE",
"495 48 OFFCURVE",
"495 52 OFFCURVE",
"495 75 CURVE",
"490 80 LINE",
"431 51 OFFCURVE",
"372 40 OFFCURVE",
"313 40 CURVE SMOOTH",
"251 40 OFFCURVE",
"189 40 OFFCURVE",
"127 40 CURVE",
"127 0 LINE"
);
}
);
width = 540;
},
{
layerId = "E103E4E6-9333-477C-9ADC-F52051F3C867";
width = 600;
},
{
layerId = "B6F795C8-F751-4DF7-955B-5EAABF4BC2BE";
width = 600;
}
);
leftKerningGroup = H;
leftMetricsKey = I;
rightKerningGroup = L;
rightMetricsKey = E;
unicode = 004C;
},
{
glyphname = M;
lastChange = "2020-07-30 10:14:06 +0000";
layers = (
{
layerId = "AEA248FC-48D8-43C3-8E42-77E797A92BBC";
paths = (
{
closed = 1;
nodes = (
"60 0 LINE",
"105 0 LINE",
"105 675 LINE",
"60 705 LINE"
);
},
{
closed = 1;
nodes = (
"401 53 LINE",
"175 705 LINE",
"138 700 OFFCURVE",
"97 700 OFFCURVE",
"60 705 CURVE",
"322 -5 LINE",
"356 2 OFFCURVE",
"399 2 OFFCURVE",
"439 -5 CURVE",
"677 555 LINE",
"777 705 LINE",
"740 699 OFFCURVE",
"718 700 OFFCURVE",
"681 705 CURVE",
"417 53 LINE"
);
},
{
closed = 1;
nodes = (
"677 675 LINE",
"677 0 LINE",
"777 0 LINE",
"777 705 LINE"
);
}
);
width = 837;
},
{
associatedMasterId = "E103E4E6-9333-477C-9ADC-F52051F3C867";
layerId = "8E169918-2BDA-47B4-A650-6EBA9D9168E8";
paths = (
{
closed = 1;
nodes = (
"60 0 LINE",
"105 0 LINE",
"105 675 LINE",
"60 705 LINE"
);
},
{
closed = 1;
nodes = (
"401 53 LINE",
"175 705 LINE",
"138 700 OFFCURVE",
"97 700 OFFCURVE",
"60 705 CURVE",
"322 -5 LINE",
"356 2 OFFCURVE",
"399 2 OFFCURVE",
"439 -5 CURVE",
"677 555 LINE",
"777 705 LINE",
"740 699 OFFCURVE",
"718 700 OFFCURVE",
"681 705 CURVE",
"417 53 LINE"
);
},
{
closed = 1;
nodes = (
"677 675 LINE",
"677 0 LINE",
"777 0 LINE",
"777 705 LINE"
);
}
);
width = 837;
},
{
layerId = "E103E4E6-9333-477C-9ADC-F52051F3C867";
width = 600;
},
{
layerId = "B6F795C8-F751-4DF7-955B-5EAABF4BC2BE";
width = 600;
}
);
leftKerningGroup = H;
rightKerningGroup = H;
rightMetricsKey = I;
unicode = 004D;
},
{
glyphname = N;
lastChange = "2020-07-30 10:14:06 +0000";
layers = (
{
layerId = "AEA248FC-48D8-43C3-8E42-77E797A92BBC";
paths = (
{
closed = 1;
nodes = (
"60 5 LINE",
"65 0 LINE",
"100 0 LINE",
"105 5 LINE",
"105 695 LINE",
"60 705 LINE"
);
},
{
closed = 1;
nodes = (
"121 414 OFFCURVE",
"502 219 OFFCURVE",
"504 -5 CURVE",
"538 2 OFFCURVE",
"574 2 OFFCURVE",
"614 -5 CURVE",
"622 218 OFFCURVE",
"288 433 OFFCURVE",
"170 705 CURVE",
"133 699 OFFCURVE",
"97 699 OFFCURVE",
"60 705 CURVE"
);
},
{
closed = 1;
nodes = (
"569 15 LINE",
"614 -5 LINE",
"614 695 LINE",
"609 700 LINE",
"574 700 LINE",
"569 695 LINE"
);
}
);
width = 674;
},
{
associatedMasterId = "AEA248FC-48D8-43C3-8E42-77E797A92BBC";
layerId = "A7AF377F-0361-4F6C-AA5C-7818162CE828";
name = "Jul 19 20, 20:12";
paths = (
{
closed = 1;
nodes = (
"32 5 LINE",
"37 0 LINE",
"72 0 LINE",
"77 5 LINE",
"77 675 LINE",
"32 705 LINE"
);
},
{
closed = 1;
nodes = (
"501 15 LINE",
"546 -5 LINE",
"546 695 LINE",
"541 700 LINE",
"506 700 LINE",
"501 695 LINE"
);
},
{
closed = 1;
nodes = (
"436 -5 LINE",
"470 2 OFFCURVE",
"506 2 OFFCURVE",
"546 -5 CURVE",
"142 705 LINE",
"105 699 OFFCURVE",
"69 699 OFFCURVE",
"32 705 CURVE"
);
}
);
width = 600;
},
{
associatedMasterId = "E103E4E6-9333-477C-9ADC-F52051F3C867";
layerId = "8E169918-2BDA-47B4-A650-6EBA9D9168E8";
paths = (
{
closed = 1;
nodes = (
"60 5 LINE",
"65 0 LINE",
"100 0 LINE",
"105 5 LINE",
"105 695 LINE",
"60 705 LINE"
);
},
{
closed = 1;
nodes = (
"121 414 OFFCURVE",
"502 219 OFFCURVE",
"504 -5 CURVE",
"538 2 OFFCURVE",
"574 2 OFFCURVE",
"614 -5 CURVE",
"622 218 OFFCURVE",
"288 433 OFFCURVE",
"170 705 CURVE",
"133 699 OFFCURVE",
"97 699 OFFCURVE",
"60 705 CURVE"
);
},
{
closed = 1;
nodes = (
"569 15 LINE",
"614 -5 LINE",
"614 695 LINE",
"609 700 LINE",
"574 700 LINE",
"569 695 LINE"
);
}
);
width = 674;
},
{
associatedMasterId = "E103E4E6-9333-477C-9ADC-F52051F3C867";
layerId = "6875EA1E-A904-409A-B1C2-0417841893D0";
name = "Jul 19 20, 20:12";
paths = (
{
closed = 1;
nodes = (
"32 5 LINE",
"37 0 LINE",
"72 0 LINE",
"77 5 LINE",
"77 675 LINE",
"32 705 LINE"
);
},
{
closed = 1;
nodes = (
"501 15 LINE",
"546 -5 LINE",
"546 695 LINE",
"541 700 LINE",
"506 700 LINE",
"501 695 LINE"
);
},
{
closed = 1;
nodes = (
"436 -5 LINE",
"470 2 OFFCURVE",
"506 2 OFFCURVE",
"546 -5 CURVE",
"142 705 LINE",
"105 699 OFFCURVE",
"69 699 OFFCURVE",
"32 705 CURVE"
);
}
);
width = 600;
},
{
layerId = "E103E4E6-9333-477C-9ADC-F52051F3C867";
width = 600;
},
{
layerId = "B6F795C8-F751-4DF7-955B-5EAABF4BC2BE";
width = 600;
}
);
leftKerningGroup = H;
leftMetricsKey = M;
rightKerningGroup = H;
unicode = 004E;
},
{
glyphname = O;
lastChange = "2020-08-01 18:06:07 +0000";
layers = (
{
layerId = "AEA248FC-48D8-43C3-8E42-77E797A92BBC";
paths = (
{
closed = 1;
nodes = (
"572 -15 OFFCURVE",
"725 143 OFFCURVE",
"725 348 CURVE SMOOTH",
"725 553 OFFCURVE",
"572 715 OFFCURVE",
"383 715 CURVE SMOOTH",
"194 715 OFFCURVE",
"41 553 OFFCURVE",
"40 348 CURVE SMOOTH",
"39 143 OFFCURVE",
"194 -15 OFFCURVE",
"383 -15 CURVE SMOOTH"
);
},
{
closed = 1;
nodes = (
"213 25 OFFCURVE",
"151 155 OFFCURVE",
"150 348 CURVE SMOOTH",
"149 540 OFFCURVE",
"213 675 OFFCURVE",
"383 675 CURVE SMOOTH",
"552 675 OFFCURVE",
"615 540 OFFCURVE",
"615 348 CURVE SMOOTH",
"615 155 OFFCURVE",
"552 25 OFFCURVE",
"383 25 CURVE SMOOTH"
);
}
);
width = 765;
},
{
layerId = "B6F795C8-F751-4DF7-955B-5EAABF4BC2BE";
width = 600;
},
{
associatedMasterId = "E103E4E6-9333-477C-9ADC-F52051F3C867";
layerId = "8E169918-2BDA-47B4-A650-6EBA9D9168E8";
paths = (
{
closed = 1;
nodes = (
"572 -15 OFFCURVE",
"725 143 OFFCURVE",
"725 348 CURVE SMOOTH",
"725 553 OFFCURVE",
"572 715 OFFCURVE",
"383 715 CURVE SMOOTH",
"194 715 OFFCURVE",
"41 553 OFFCURVE",
"40 348 CURVE SMOOTH",
"39 143 OFFCURVE",
"194 -15 OFFCURVE",
"383 -15 CURVE SMOOTH"
);
},
{
closed = 1;
nodes = (
"213 25 OFFCURVE",
"151 155 OFFCURVE",
"150 348 CURVE SMOOTH",
"149 540 OFFCURVE",
"213 675 OFFCURVE",
"383 675 CURVE SMOOTH",
"552 675 OFFCURVE",
"615 540 OFFCURVE",
"615 348 CURVE SMOOTH",
"615 155 OFFCURVE",
"552 25 OFFCURVE",
"383 25 CURVE SMOOTH"
);
}
);
width = 765;
},
{
layerId = "E103E4E6-9333-477C-9ADC-F52051F3C867";
width = 600;
}
);
leftKerningGroup = O;
rightKerningGroup = O;
unicode = 004F;
},
{
glyphname = P;
lastChange = "2020-08-01 18:07:27 +0000";
layers = (
{
layerId = "AEA248FC-48D8-43C3-8E42-77E797A92BBC";
paths = (
{
closed = 1;
nodes = (
"65 701 LINE",
"60 696 LINE",
"69 619 OFFCURVE",
"74 434 OFFCURVE",
"74 357 CURVE SMOOTH",
"74 277 OFFCURVE",
"69 87 OFFCURVE",
"60 6 CURVE",
"66 0 LINE",
"178 0 LINE",
"183 5 LINE",
"174 86 OFFCURVE",
"169 276 OFFCURVE",
"169 356 CURVE SMOOTH",
"169 433 OFFCURVE",
"174 618 OFFCURVE",
"183 695 CURVE",
"178 700 LINE"
);
},
{
closed = 1;
nodes = (
"123 660 LINE",
"291 660 LINE SMOOTH",
"368 660 OFFCURVE",
"394 603 OFFCURVE",
"394 514 CURVE SMOOTH",
"394 400 OFFCURVE",
"320 363 OFFCURVE",
"163 323 CURVE",
"163 288 LINE",
"349 332 OFFCURVE",
"504 351 OFFCURVE",
"504 514 CURVE SMOOTH",
"504 628 OFFCURVE",
"431 700 OFFCURVE",
"291 700 CURVE SMOOTH",
"123 700 LINE"
);
}
);
width = 519;
},
{
associatedMasterId = "E103E4E6-9333-477C-9ADC-F52051F3C867";
layerId = "8E169918-2BDA-47B4-A650-6EBA9D9168E8";
paths = (
{
closed = 1;
nodes = (
"65 701 LINE",
"60 696 LINE",
"69 619 OFFCURVE",
"74 434 OFFCURVE",
"74 357 CURVE SMOOTH",
"74 277 OFFCURVE",
"69 87 OFFCURVE",
"60 6 CURVE",
"66 0 LINE",
"178 0 LINE",
"183 5 LINE",
"174 86 OFFCURVE",
"169 276 OFFCURVE",
"169 356 CURVE SMOOTH",
"169 433 OFFCURVE",
"174 618 OFFCURVE",
"183 695 CURVE",
"178 700 LINE"
);
},
{
closed = 1;
nodes = (
"123 660 LINE",
"291 660 LINE SMOOTH",
"368 660 OFFCURVE",
"394 603 OFFCURVE",
"394 514 CURVE SMOOTH",
"394 400 OFFCURVE",
"320 363 OFFCURVE",
"163 323 CURVE",
"163 288 LINE",
"349 332 OFFCURVE",
"504 351 OFFCURVE",
"504 514 CURVE SMOOTH",
"504 628 OFFCURVE",
"431 700 OFFCURVE",
"291 700 CURVE SMOOTH",
"123 700 LINE"
);
}
);
width = 519;
},
{
layerId = "E103E4E6-9333-477C-9ADC-F52051F3C867";
width = 600;
},
{
layerId = "B6F795C8-F751-4DF7-955B-5EAABF4BC2BE";
width = 600;
}
);
leftKerningGroup = H;
leftMetricsKey = I;
rightKerningGroup = P;
unicode = 0050;
},
{
glyphname = Q;
lastChange = "2020-08-01 18:08:08 +0000";
layers = (
{
layerId = "AEA248FC-48D8-43C3-8E42-77E797A92BBC";
paths = (
{
closed = 1;
nodes = (
"572 -15 OFFCURVE",
"725 143 OFFCURVE",
"725 348 CURVE SMOOTH",
"725 553 OFFCURVE",
"572 715 OFFCURVE",
"383 715 CURVE SMOOTH",
"194 715 OFFCURVE",
"41 553 OFFCURVE",
"40 348 CURVE SMOOTH",
"39 143 OFFCURVE",
"194 -15 OFFCURVE",
"383 -15 CURVE SMOOTH"
);
},
{
closed = 1;
nodes = (
"213 25 OFFCURVE",
"151 155 OFFCURVE",
"150 348 CURVE SMOOTH",
"149 540 OFFCURVE",
"213 675 OFFCURVE",
"383 675 CURVE SMOOTH",
"552 675 OFFCURVE",
"615 540 OFFCURVE",
"615 348 CURVE SMOOTH",
"615 155 OFFCURVE",
"552 25 OFFCURVE",
"383 25 CURVE SMOOTH"
);
},
{
closed = 1;
nodes = (
"656 -105 OFFCURVE",
"643 -140 OFFCURVE",
"596 -140 CURVE SMOOTH",
"501 -140 OFFCURVE",
"551 161 OFFCURVE",
"367 161 CURVE SMOOTH",
"292 161 OFFCURVE",
"238 85 OFFCURVE",
"238 28 CURVE",
"282 28 LINE",
"282 82 OFFCURVE",
"319 121 OFFCURVE",
"367 121 CURVE SMOOTH",
"496 121 OFFCURVE",
"446 -240 OFFCURVE",
"596 -240 CURVE SMOOTH",
"685 -240 OFFCURVE",
"714 -172 OFFCURVE",
"738 -121 CURVE",
"738 -112 LINE",
"720 -98 OFFCURVE",
"685 -61 OFFCURVE",
"673 -39 CURVE",
"656 -39 LINE"
);
}
);
width = 778;
},
{
associatedMasterId = "E103E4E6-9333-477C-9ADC-F52051F3C867";
layerId = "8E169918-2BDA-47B4-A650-6EBA9D9168E8";
paths = (
{
closed = 1;
nodes = (
"572 -15 OFFCURVE",
"725 143 OFFCURVE",
"725 348 CURVE SMOOTH",
"725 553 OFFCURVE",
"572 715 OFFCURVE",
"383 715 CURVE SMOOTH",
"194 715 OFFCURVE",
"41 553 OFFCURVE",
"40 348 CURVE SMOOTH",
"39 143 OFFCURVE",
"194 -15 OFFCURVE",
"383 -15 CURVE SMOOTH"
);
},
{
closed = 1;
nodes = (
"213 25 OFFCURVE",
"151 155 OFFCURVE",
"150 348 CURVE SMOOTH",
"149 540 OFFCURVE",
"213 675 OFFCURVE",
"383 675 CURVE SMOOTH",
"552 675 OFFCURVE",
"615 540 OFFCURVE",
"615 348 CURVE SMOOTH",
"615 155 OFFCURVE",
"552 25 OFFCURVE",
"383 25 CURVE SMOOTH"
);
},
{
closed = 1;
nodes = (
"656 -105 OFFCURVE",
"643 -140 OFFCURVE",
"596 -140 CURVE SMOOTH",
"501 -140 OFFCURVE",
"551 161 OFFCURVE",
"367 161 CURVE SMOOTH",
"292 161 OFFCURVE",
"238 85 OFFCURVE",
"238 28 CURVE",
"282 28 LINE",
"282 82 OFFCURVE",
"319 121 OFFCURVE",
"367 121 CURVE SMOOTH",
"496 121 OFFCURVE",
"446 -240 OFFCURVE",
"596 -240 CURVE SMOOTH",
"685 -240 OFFCURVE",
"714 -172 OFFCURVE",
"738 -121 CURVE",
"738 -112 LINE",
"720 -98 OFFCURVE",
"685 -61 OFFCURVE",
"673 -39 CURVE",
"656 -39 LINE"
);
}
);
width = 778;
},
{
layerId = "E103E4E6-9333-477C-9ADC-F52051F3C867";
width = 600;
},
{
layerId = "B6F795C8-F751-4DF7-955B-5EAABF4BC2BE";
width = 600;
}
);
leftKerningGroup = O;
leftMetricsKey = O;
rightKerningGroup = O;
rightMetricsKey = O;
unicode = 0051;
},
{
glyphname = R;
lastChange = "2020-08-01 18:08:44 +0000";
layers = (
{
layerId = "AEA248FC-48D8-43C3-8E42-77E797A92BBC";
paths = (
{
closed = 1;
nodes = (
"65 700 LINE",
"60 695 LINE",
"69 618 OFFCURVE",
"74 433 OFFCURVE",
"74 356 CURVE SMOOTH",
"74 276 OFFCURVE",
"69 86 OFFCURVE",
"60 5 CURVE",
"65 0 LINE",
"121 0 LINE",
"143 0 OFFCURVE",
"165 0 OFFCURVE",
"177 0 CURVE",
"182 5 LINE",
"173 86 OFFCURVE",
"168 276 OFFCURVE",
"168 356 CURVE SMOOTH",
"168 433 OFFCURVE",
"173 618 OFFCURVE",
"182 695 CURVE",
"177 700 LINE",
"121 700 LINE"
);
},
{
closed = 1;
nodes = (
"533 519 LINE",
"533 642 OFFCURVE",
"454 700 OFFCURVE",
"290 700 CURVE SMOOTH",
"122 700 LINE",
"122 660 LINE",
"290 660 LINE SMOOTH",
"365 660 OFFCURVE",
"423 615 OFFCURVE",
"423 519 CURVE"
);
},
{
closed = 1;
nodes = (
"423 422 OFFCURVE",
"370 398 OFFCURVE",
"290 369 CURVE SMOOTH",
"122 309 LINE",
"122 269 LINE",
"290 329 LINE SMOOTH",
"445 384 OFFCURVE",
"533 397 OFFCURVE",
"533 519 CURVE",
"423 519 LINE"
);
},
{
closed = 1;
nodes = (
"234 342 LINE",
"316 221 OFFCURVE",
"436 28 OFFCURVE",
"444 0 CURVE",
"469 0 OFFCURVE",
"533 0 OFFCURVE",
"558 0 CURVE",
"563 5 LINE",
"549 26 OFFCURVE",
"466 158 OFFCURVE",
"404 259 CURVE",
"367 259 OFFCURVE",
"338 270 OFFCURVE",
"306 318 CURVE SMOOTH",
"280 358 LINE"
);
}
);
width = 573;
},
{
associatedMasterId = "E103E4E6-9333-477C-9ADC-F52051F3C867";
layerId = "8E169918-2BDA-47B4-A650-6EBA9D9168E8";
paths = (
{
closed = 1;
nodes = (
"65 700 LINE",
"60 695 LINE",
"69 618 OFFCURVE",
"74 433 OFFCURVE",
"74 356 CURVE SMOOTH",
"74 276 OFFCURVE",
"69 86 OFFCURVE",
"60 5 CURVE",
"65 0 LINE",
"121 0 LINE",
"143 0 OFFCURVE",
"165 0 OFFCURVE",
"177 0 CURVE",
"182 5 LINE",
"173 86 OFFCURVE",
"168 276 OFFCURVE",
"168 356 CURVE SMOOTH",
"168 433 OFFCURVE",
"173 618 OFFCURVE",
"182 695 CURVE",
"177 700 LINE",
"121 700 LINE"
);
},
{
closed = 1;
nodes = (
"533 519 LINE",
"533 642 OFFCURVE",
"454 700 OFFCURVE",
"290 700 CURVE SMOOTH",
"122 700 LINE",
"122 660 LINE",
"290 660 LINE SMOOTH",
"365 660 OFFCURVE",
"423 615 OFFCURVE",
"423 519 CURVE"
);
},
{
closed = 1;
nodes = (
"423 422 OFFCURVE",
"370 398 OFFCURVE",
"290 369 CURVE SMOOTH",
"122 309 LINE",
"122 269 LINE",
"290 329 LINE SMOOTH",
"445 384 OFFCURVE",
"533 397 OFFCURVE",
"533 519 CURVE",
"423 519 LINE"
);
},
{
closed = 1;
nodes = (
"234 342 LINE",
"316 221 OFFCURVE",
"436 28 OFFCURVE",
"444 0 CURVE",
"469 0 OFFCURVE",
"533 0 OFFCURVE",
"558 0 CURVE",
"563 5 LINE",
"549 26 OFFCURVE",
"466 158 OFFCURVE",
"404 259 CURVE",
"367 259 OFFCURVE",
"338 270 OFFCURVE",
"306 318 CURVE SMOOTH",
"280 358 LINE"
);
}
);
width = 573;
},
{
layerId = "E103E4E6-9333-477C-9ADC-F52051F3C867";
width = 600;
},
{
layerId = "B6F795C8-F751-4DF7-955B-5EAABF4BC2BE";
width = 600;
}
);
leftKerningGroup = H;
leftMetricsKey = I;
rightKerningGroup = R;
unicode = 0052;
},
{
glyphname = S;
lastChange = "2020-08-01 18:10:18 +0000";
layers = (
{
layerId = "AEA248FC-48D8-43C3-8E42-77E797A92BBC";
paths = (
{
closed = 1;
nodes = (
"46 83 OFFCURVE",
"160 -15 OFFCURVE",
"349 -15 CURVE SMOOTH",
"514 -15 OFFCURVE",
"598 55 OFFCURVE",
"598 173 CURVE SMOOTH",
"598 433 OFFCURVE",
"163 271 OFFCURVE",
"163 540 CURVE SMOOTH",
"163 612 OFFCURVE",
"217 675 OFFCURVE",
"299 675 CURVE SMOOTH",
"392 675 OFFCURVE",
"475 612 OFFCURVE",
"475 476 CURVE",
"484 473 LINE",
"516 531 OFFCURVE",
"552 578 OFFCURVE",
"583 598 CURVE",
"583 608 LINE",
"531 675 OFFCURVE",
"429 715 OFFCURVE",
"299 715 CURVE SMOOTH",
"137 715 OFFCURVE",
"53 638 OFFCURVE",
"53 528 CURVE SMOOTH",
"53 293 OFFCURVE",
"488 418 OFFCURVE",
"488 155 CURVE SMOOTH",
"488 78 OFFCURVE",
"437 25 OFFCURVE",
"349 25 CURVE SMOOTH",
"256 25 OFFCURVE",
"212 95 OFFCURVE",
"205 180 CURVE",
"200 189 LINE",
"125 216 OFFCURVE",
"69 241 OFFCURVE",
"48 256 CURVE",
"40 250 LINE"
);
}
);
width = 638;
},
{
associatedMasterId = "E103E4E6-9333-477C-9ADC-F52051F3C867";
layerId = "8E169918-2BDA-47B4-A650-6EBA9D9168E8";
paths = (
{
closed = 1;
nodes = (
"46 83 OFFCURVE",
"160 -15 OFFCURVE",
"349 -15 CURVE SMOOTH",
"514 -15 OFFCURVE",
"598 55 OFFCURVE",
"598 173 CURVE SMOOTH",
"598 433 OFFCURVE",
"163 271 OFFCURVE",
"163 540 CURVE SMOOTH",
"163 612 OFFCURVE",
"217 675 OFFCURVE",
"299 675 CURVE SMOOTH",
"392 675 OFFCURVE",
"475 612 OFFCURVE",
"475 476 CURVE",
"484 473 LINE",
"516 531 OFFCURVE",
"552 578 OFFCURVE",
"583 598 CURVE",
"583 608 LINE",
"531 675 OFFCURVE",
"429 715 OFFCURVE",
"299 715 CURVE SMOOTH",
"137 715 OFFCURVE",
"53 638 OFFCURVE",
"53 528 CURVE SMOOTH",
"53 293 OFFCURVE",
"488 418 OFFCURVE",
"488 155 CURVE SMOOTH",
"488 78 OFFCURVE",
"437 25 OFFCURVE",
"349 25 CURVE SMOOTH",
"256 25 OFFCURVE",
"212 95 OFFCURVE",
"205 180 CURVE",
"200 189 LINE",
"125 216 OFFCURVE",
"69 241 OFFCURVE",
"48 256 CURVE",
"40 250 LINE"
);
}
);
width = 638;
},
{
layerId = "E103E4E6-9333-477C-9ADC-F52051F3C867";
width = 600;
},
{
layerId = "B6F795C8-F751-4DF7-955B-5EAABF4BC2BE";
width = 600;
}
);
leftKerningGroup = S;
rightKerningGroup = S;
unicode = 0053;
},
{
glyphname = T;
lastChange = "2020-08-01 18:13:28 +0000";
layers = (
{
layerId = "AEA248FC-48D8-43C3-8E42-77E797A92BBC";
paths = (
{
closed = 1;
nodes = (
"357 0 LINE",
"362 5 LINE",
"353 87 OFFCURVE",
"348 272 OFFCURVE",
"348 353 CURVE SMOOTH",
"348 429 OFFCURVE",
"353 614 OFFCURVE",
"362 686 CURVE",
"357 691 LINE",
"332 686 OFFCURVE",
"276 686 OFFCURVE",
"251 691 CURVE",
"246 686 LINE",
"255 613 OFFCURVE",
"260 430 OFFCURVE",
"260 353 CURVE SMOOTH",
"260 273 OFFCURVE",
"255 86 OFFCURVE",
"246 5 CURVE",
"251 0 LINE"
);
},
{
closed = 1;
nodes = (
"251 660 LINE",
"312 660 OFFCURVE",
"375 660 OFFCURVE",
"437 660 CURVE SMOOTH",
"486 660 OFFCURVE",
"584 640 OFFCURVE",
"604 590 CURVE",
"619 590 LINE",
"609 695 LINE",
"604 700 LINE",
"251 700 LINE"
);
},
{
closed = 1;
nodes = (
"5 700 LINE",
"0 695 LINE",
"-10 590 LINE",
"5 590 LINE",
"25 640 OFFCURVE",
"123 660 OFFCURVE",
"172 660 CURVE SMOOTH",
"234 660 OFFCURVE",
"297 662 OFFCURVE",
"358 661 CURVE",
"358 700 LINE"
);
}
);
width = 609;
},
{
associatedMasterId = "E103E4E6-9333-477C-9ADC-F52051F3C867";
layerId = "8E169918-2BDA-47B4-A650-6EBA9D9168E8";
paths = (
{
closed = 1;
nodes = (
"357 0 LINE",
"362 5 LINE",
"353 87 OFFCURVE",
"348 272 OFFCURVE",
"348 353 CURVE SMOOTH",
"348 429 OFFCURVE",
"353 614 OFFCURVE",
"362 686 CURVE",
"357 691 LINE",
"332 686 OFFCURVE",
"276 686 OFFCURVE",
"251 691 CURVE",
"246 686 LINE",
"255 613 OFFCURVE",
"260 430 OFFCURVE",
"260 353 CURVE SMOOTH",
"260 273 OFFCURVE",
"255 86 OFFCURVE",
"246 5 CURVE",
"251 0 LINE"
);
},
{
closed = 1;
nodes = (
"251 660 LINE",
"312 660 OFFCURVE",
"375 660 OFFCURVE",
"437 660 CURVE SMOOTH",
"486 660 OFFCURVE",
"584 640 OFFCURVE",
"604 590 CURVE",
"619 590 LINE",
"609 695 LINE",
"604 700 LINE",
"251 700 LINE"
);
},
{
closed = 1;
nodes = (
"5 700 LINE",
"0 695 LINE",
"-10 590 LINE",
"5 590 LINE",
"25 640 OFFCURVE",
"123 660 OFFCURVE",
"172 660 CURVE SMOOTH",
"234 660 OFFCURVE",
"297 662 OFFCURVE",
"358 661 CURVE",
"358 700 LINE"
);
}
);
width = 609;
},
{
layerId = "E103E4E6-9333-477C-9ADC-F52051F3C867";
width = 600;
},
{
layerId = "B6F795C8-F751-4DF7-955B-5EAABF4BC2BE";
width = 600;
}
);
leftKerningGroup = T;
rightKerningGroup = T;
unicode = 0054;
},
{
glyphname = U;
lastChange = "2020-08-01 18:14:48 +0000";
layers = (
{
layerId = "AEA248FC-48D8-43C3-8E42-77E797A92BBC";
paths = (
{
closed = 1;
nodes = (
"361 25 LINE",
"206 25 OFFCURVE",
"172 163 OFFCURVE",
"172 348 CURVE SMOOTH",
"172 510 OFFCURVE",
"176 612 OFFCURVE",
"186 700 CURVE",
"181 705 LINE",
"142 698 OFFCURVE",
"104 699 OFFCURVE",
"65 705 CURVE",
"60 700 LINE",
"72 595 OFFCURVE",
"76 493 OFFCURVE",
"74 348 CURVE SMOOTH",
"70 89 OFFCURVE",
"155 -15 OFFCURVE",
"361 -15 CURVE"
);
},
{
closed = 1;
nodes = (
"567 -15 OFFCURVE",
"652 89 OFFCURVE",
"648 348 CURVE SMOOTH",
"646 493 OFFCURVE",
"650 595 OFFCURVE",
"662 700 CURVE",
"657 705 LINE",
"618 699 OFFCURVE",
"580 698 OFFCURVE",
"541 705 CURVE",
"536 700 LINE",
"546 612 OFFCURVE",
"550 510 OFFCURVE",
"550 348 CURVE SMOOTH",
"550 163 OFFCURVE",
"516 25 OFFCURVE",
"361 25 CURVE",
"361 -15 LINE"
);
}
);
width = 722;
},
{
associatedMasterId = "AEA248FC-48D8-43C3-8E42-77E797A92BBC";
layerId = "1B6F499B-F997-4710-8E72-EB48CFE640F5";
name = "Jul 15 20, 22:28";
paths = (
{
closed = 1;
nodes = (
"357 -15 LINE",
"357 -15 OFFCURVE",
"357 -15 OFFCURVE",
"357 -15 CURVE SMOOTH",
"537 -15 OFFCURVE",
"608 89 OFFCURVE",
"608 348 CURVE SMOOTH",
"608 510 OFFCURVE",
"612 612 OFFCURVE",
"622 700 CURVE",
"617 705 LINE",
"593 698 OFFCURVE",
"567 698 OFFCURVE",
"541 705 CURVE",
"536 700 LINE",
"548 595 OFFCURVE",
"552 493 OFFCURVE",
"550 348 CURVE SMOOTH",
"547 163 OFFCURVE",
"493 45 OFFCURVE",
"357 45 CURVE SMOOTH",
"357 45 OFFCURVE",
"357 45 OFFCURVE",
"357 45 CURVE"
);
},
{
closed = 1;
nodes = (
"357 45 LINE",
"222 45 OFFCURVE",
"168 163 OFFCURVE",
"168 348 CURVE SMOOTH",
"168 510 OFFCURVE",
"172 612 OFFCURVE",
"182 700 CURVE",
"177 705 LINE",
"138 698 OFFCURVE",
"100 699 OFFCURVE",
"61 705 CURVE",
"56 700 LINE",
"68 595 OFFCURVE",
"72 493 OFFCURVE",
"70 348 CURVE SMOOTH",
"66 89 OFFCURVE",
"151 -15 OFFCURVE",
"357 -15 CURVE"
);
}
);
width = 700;
},
{
associatedMasterId = "E103E4E6-9333-477C-9ADC-F52051F3C867";
layerId = "8E169918-2BDA-47B4-A650-6EBA9D9168E8";
paths = (
{
closed = 1;
nodes = (
"361 25 LINE",
"206 25 OFFCURVE",
"172 163 OFFCURVE",
"172 348 CURVE SMOOTH",
"172 510 OFFCURVE",
"176 612 OFFCURVE",
"186 700 CURVE",
"181 705 LINE",
"142 698 OFFCURVE",
"104 699 OFFCURVE",
"65 705 CURVE",
"60 700 LINE",
"72 595 OFFCURVE",
"76 493 OFFCURVE",
"74 348 CURVE SMOOTH",
"70 89 OFFCURVE",
"155 -15 OFFCURVE",
"361 -15 CURVE"
);
},
{
closed = 1;
nodes = (
"567 -15 OFFCURVE",
"652 89 OFFCURVE",
"648 348 CURVE SMOOTH",
"646 493 OFFCURVE",
"650 595 OFFCURVE",
"662 700 CURVE",
"657 705 LINE",
"618 699 OFFCURVE",
"580 698 OFFCURVE",
"541 705 CURVE",
"536 700 LINE",
"546 612 OFFCURVE",
"550 510 OFFCURVE",
"550 348 CURVE SMOOTH",
"550 163 OFFCURVE",
"516 25 OFFCURVE",
"361 25 CURVE",
"361 -15 LINE"
);
}
);
width = 722;
},
{
associatedMasterId = "E103E4E6-9333-477C-9ADC-F52051F3C867";
layerId = "FF445D16-311E-4D06-A6B1-7553F8C32D6A";
name = "Jul 15 20, 22:28";
paths = (
{
closed = 1;
nodes = (
"357 -15 LINE",
"357 -15 OFFCURVE",
"357 -15 OFFCURVE",
"357 -15 CURVE SMOOTH",
"537 -15 OFFCURVE",
"608 89 OFFCURVE",
"608 348 CURVE SMOOTH",
"608 510 OFFCURVE",
"612 612 OFFCURVE",
"622 700 CURVE",
"617 705 LINE",
"593 698 OFFCURVE",
"567 698 OFFCURVE",
"541 705 CURVE",
"536 700 LINE",
"548 595 OFFCURVE",
"552 493 OFFCURVE",
"550 348 CURVE SMOOTH",
"547 163 OFFCURVE",
"493 45 OFFCURVE",
"357 45 CURVE SMOOTH",
"357 45 OFFCURVE",
"357 45 OFFCURVE",
"357 45 CURVE"
);
},
{
closed = 1;
nodes = (
"357 45 LINE",
"222 45 OFFCURVE",
"168 163 OFFCURVE",
"168 348 CURVE SMOOTH",
"168 510 OFFCURVE",
"172 612 OFFCURVE",
"182 700 CURVE",
"177 705 LINE",
"138 698 OFFCURVE",
"100 699 OFFCURVE",
"61 705 CURVE",
"56 700 LINE",
"68 595 OFFCURVE",
"72 493 OFFCURVE",
"70 348 CURVE SMOOTH",
"66 89 OFFCURVE",
"151 -15 OFFCURVE",
"357 -15 CURVE"
);
}
);
width = 700;
},
{
layerId = "E103E4E6-9333-477C-9ADC-F52051F3C867";
width = 600;
},
{
layerId = "B6F795C8-F751-4DF7-955B-5EAABF4BC2BE";
width = 600;
}
);
leftKerningGroup = U;
rightKerningGroup = U;
unicode = 0055;
},
{
glyphname = V;
lastChange = "2020-08-01 18:16:26 +0000";
layers = (
{
layerId = "AEA248FC-48D8-43C3-8E42-77E797A92BBC";
paths = (
{
closed = 1;
nodes = (
"429 0 LINE",
"437 6 LINE",
"682 698 LINE",
"675 705 LINE",
"641 699 OFFCURVE",
"621 699 OFFCURVE",
"591 705 CURVE",
"584 698 LINE",
"559 595 OFFCURVE",
"407 101 OFFCURVE",
"407 42 CURVE",
"379 42 LINE",
"379 101 OFFCURVE",
"185 595 OFFCURVE",
"160 698 CURVE",
"153 705 LINE",
"123 699 OFFCURVE",
"67 699 OFFCURVE",
"32 705 CURVE",
"25 698 LINE",
"298 6 LINE",
"306 0 LINE"
);
}
);
width = 697;
},
{
associatedMasterId = "E103E4E6-9333-477C-9ADC-F52051F3C867";
layerId = "8E169918-2BDA-47B4-A650-6EBA9D9168E8";
paths = (
{
closed = 1;
nodes = (
"429 0 LINE",
"437 6 LINE",
"682 698 LINE",
"675 705 LINE",
"641 699 OFFCURVE",
"621 699 OFFCURVE",
"591 705 CURVE",
"584 698 LINE",
"559 595 OFFCURVE",
"407 101 OFFCURVE",
"407 42 CURVE",
"379 42 LINE",
"379 101 OFFCURVE",
"185 595 OFFCURVE",
"160 698 CURVE",
"153 705 LINE",
"123 699 OFFCURVE",
"67 699 OFFCURVE",
"32 705 CURVE",
"25 698 LINE",
"298 6 LINE",
"306 0 LINE"
);
}
);
width = 697;
},
{
layerId = "B6F795C8-F751-4DF7-955B-5EAABF4BC2BE";
width = 600;
},
{
layerId = "E103E4E6-9333-477C-9ADC-F52051F3C867";
width = 600;
}
);
leftKerningGroup = V;
rightKerningGroup = V;
unicode = 0056;
},
{
glyphname = W;
lastChange = "2020-08-01 18:16:56 +0000";
layers = (
{
layerId = "AEA248FC-48D8-43C3-8E42-77E797A92BBC";
paths = (
{
closed = 1;
nodes = (
"980 699 OFFCURVE",
"942 699 OFFCURVE",
"912 705 CURVE",
"905 698 LINE",
"880 595 OFFCURVE",
"784 101 OFFCURVE",
"784 42 CURVE",
"747 42 LINE",
"747 101 OFFCURVE",
"606 595 OFFCURVE",
"581 698 CURVE",
"574 705 LINE",
"539 698 OFFCURVE",
"523 698 OFFCURVE",
"488 705 CURVE",
"481 698 LINE",
"456 595 OFFCURVE",
"347 101 OFFCURVE",
"347 42 CURVE",
"314 42 LINE",
"314 101 OFFCURVE",
"187 595 OFFCURVE",
"162 698 CURVE",
"155 705 LINE",
"124 699 OFFCURVE",
"67 699 OFFCURVE",
"32 705 CURVE",
"25 698 LINE",
"244 6 LINE",
"252 0 LINE",
"378 0 LINE",
"386 6 LINE",
"401 100 OFFCURVE",
"453 356 OFFCURVE",
"520 615 CURVE",
"495 615 LINE",
"562 356 OFFCURVE",
"637 100 OFFCURVE",
"652 6 CURVE",
"661 0 LINE",
"812 0 LINE",
"820 6 LINE",
"1021 698 LINE",
"1014 705 LINE"
);
}
);
width = 1036;
},
{
associatedMasterId = "E103E4E6-9333-477C-9ADC-F52051F3C867";
layerId = "8E169918-2BDA-47B4-A650-6EBA9D9168E8";
paths = (
{
closed = 1;
nodes = (
"980 699 OFFCURVE",
"942 699 OFFCURVE",
"912 705 CURVE",
"905 698 LINE",
"880 595 OFFCURVE",
"784 101 OFFCURVE",
"784 42 CURVE",
"747 42 LINE",
"747 101 OFFCURVE",
"606 595 OFFCURVE",
"581 698 CURVE",
"574 705 LINE",
"539 698 OFFCURVE",
"523 698 OFFCURVE",
"488 705 CURVE",
"481 698 LINE",
"456 595 OFFCURVE",
"347 101 OFFCURVE",
"347 42 CURVE",
"314 42 LINE",
"314 101 OFFCURVE",
"187 595 OFFCURVE",
"162 698 CURVE",
"155 705 LINE",
"124 699 OFFCURVE",
"67 699 OFFCURVE",
"32 705 CURVE",
"25 698 LINE",
"244 6 LINE",
"252 0 LINE",
"378 0 LINE",
"386 6 LINE",
"401 100 OFFCURVE",
"453 356 OFFCURVE",
"520 615 CURVE",
"495 615 LINE",
"562 356 OFFCURVE",
"637 100 OFFCURVE",
"652 6 CURVE",
"661 0 LINE",
"812 0 LINE",
"820 6 LINE",
"1021 698 LINE",
"1014 705 LINE"
);
}
);
width = 1036;
},
{
layerId = "B6F795C8-F751-4DF7-955B-5EAABF4BC2BE";
width = 600;
},
{
layerId = "E103E4E6-9333-477C-9ADC-F52051F3C867";
width = 600;
}
);
leftKerningGroup = V;
leftMetricsKey = V;
rightKerningGroup = V;
rightMetricsKey = V;
unicode = 0057;
},
{
glyphname = X;
lastChange = "2020-08-01 18:17:51 +0000";
layers = (
{
layerId = "AEA248FC-48D8-43C3-8E42-77E797A92BBC";
paths = (
{
closed = 1;
nodes = (
"415 346 LINE",
"684 698 LINE",
"678 705 LINE",
"621 705 LINE",
"614 698 LINE",
"347 349 LINE",
"306 349 LINE",
"543 2 LINE",
"550 -5 LINE",
"586 -5 OFFCURVE",
"656 -5 OFFCURVE",
"694 -5 CURVE",
"700 2 LINE",
"418 346 LINE"
);
},
{
closed = 1;
nodes = (
"418 346 LINE",
"177 703 LINE",
"170 710 LINE",
"27 710 LINE",
"20 703 LINE",
"306 349 LINE",
"338 349 LINE",
"63 2 LINE",
"70 -5 LINE",
"121 -5 LINE",
"128 2 LINE",
"415 346 LINE"
);
}
);
width = 714;
},
{
associatedMasterId = "E103E4E6-9333-477C-9ADC-F52051F3C867";
layerId = "8E169918-2BDA-47B4-A650-6EBA9D9168E8";
paths = (
{
closed = 1;
nodes = (
"415 346 LINE",
"684 698 LINE",
"678 705 LINE",
"621 705 LINE",
"614 698 LINE",
"347 349 LINE",
"306 349 LINE",
"543 7 LINE",
"550 0 LINE",
"586 0 OFFCURVE",
"656 0 OFFCURVE",
"694 0 CURVE",
"700 7 LINE",
"418 346 LINE"
);
},
{
closed = 1;
nodes = (
"418 346 LINE",
"177 703 LINE",
"170 710 LINE",
"27 710 LINE",
"20 703 LINE",
"306 349 LINE",
"338 349 LINE",
"63 2 LINE",
"70 -5 LINE",
"121 -5 LINE",
"128 2 LINE",
"415 346 LINE"
);
}
);
width = 714;
},
{
layerId = "B6F795C8-F751-4DF7-955B-5EAABF4BC2BE";
width = 600;
},
{
layerId = "E103E4E6-9333-477C-9ADC-F52051F3C867";
width = 600;
}
);
unicode = 0058;
},
{
glyphname = Y;
lastChange = "2020-08-01 18:20:12 +0000";
layers = (
{
layerId = "AEA248FC-48D8-43C3-8E42-77E797A92BBC";
paths = (
{
closed = 1;
nodes = (
"76 626 OFFCURVE",
"251 331 OFFCURVE",
"291 264 CURVE",
"297 260 LINE",
"363 260 LINE",
"369 264 LINE",
"410 331 OFFCURVE",
"590 625 OFFCURVE",
"641 700 CURVE",
"636 705 LINE",
"575 705 LINE",
"571 700 LINE",
"528 625 OFFCURVE",
"354 370 OFFCURVE",
"354 320 CURVE",
"343 320 LINE",
"343 370 OFFCURVE",
"178 626 OFFCURVE",
"135 700 CURVE",
"130 705 LINE",
"30 705 LINE",
"25 700 LINE"
);
},
{
closed = 1;
nodes = (
"293 316 LINE",
"277 5 LINE",
"282 0 LINE",
"378 0 LINE",
"383 5 LINE",
"366 316 LINE"
);
}
);
width = 656;
},
{
associatedMasterId = "E103E4E6-9333-477C-9ADC-F52051F3C867";
layerId = "8E169918-2BDA-47B4-A650-6EBA9D9168E8";
paths = (
{
closed = 1;
nodes = (
"76 626 OFFCURVE",
"251 331 OFFCURVE",
"291 264 CURVE",
"297 260 LINE",
"363 260 LINE",
"369 264 LINE",
"410 331 OFFCURVE",
"590 625 OFFCURVE",
"641 700 CURVE",
"636 705 LINE",
"575 705 LINE",
"571 700 LINE",
"528 625 OFFCURVE",
"354 370 OFFCURVE",
"354 320 CURVE",
"343 320 LINE",
"343 370 OFFCURVE",
"178 626 OFFCURVE",
"135 700 CURVE",
"130 705 LINE",
"30 705 LINE",
"25 700 LINE"
);
},
{
closed = 1;
nodes = (
"293 316 LINE",
"277 5 LINE",
"282 0 LINE",
"378 0 LINE",
"383 5 LINE",
"366 316 LINE"
);
}
);
width = 656;
},
{
layerId = "B6F795C8-F751-4DF7-955B-5EAABF4BC2BE";
width = 600;
},
{
layerId = "E103E4E6-9333-477C-9ADC-F52051F3C867";
width = 600;
}
);
leftKerningGroup = Y;
leftMetricsKey = V;
rightKerningGroup = Y;
unicode = 0059;
},
{
glyphname = Z;
lastChange = "2020-08-01 18:20:36 +0000";
layers = (
{
layerId = "AEA248FC-48D8-43C3-8E42-77E797A92BBC";
paths = (
{
closed = 1;
nodes = (
"177 61 LINE",
"200 104 OFFCURVE",
"523 632 OFFCURVE",
"546 660 CURVE",
"420 660 LINE",
"420 638 LINE",
"398 593 OFFCURVE",
"74 71 OFFCURVE",
"26 40 CURVE",
"177 40 LINE"
);
},
{
closed = 1;
nodes = (
"282 700 LINE",
"26 700 LINE",
"20 693 LINE",
"21 672 OFFCURVE",
"22 620 OFFCURVE",
"20 597 CURVE",
"26 590 LINE",
"63 619 OFFCURVE",
"154 660 OFFCURVE",
"221 660 CURVE",
"546 660 LINE",
"552 667 LINE",
"552 693 LINE",
"546 700 LINE"
);
},
{
closed = 1;
nodes = (
"274 0 LINE",
"546 0 LINE",
"552 7 LINE",
"550 38 OFFCURVE",
"550 79 OFFCURVE",
"552 103 CURVE",
"546 110 LINE",
"509 81 OFFCURVE",
"418 40 OFFCURVE",
"351 40 CURVE",
"26 40 LINE",
"20 33 LINE",
"20 7 LINE",
"26 0 LINE"
);
}
);
width = 572;
},
{
associatedMasterId = "AEA248FC-48D8-43C3-8E42-77E797A92BBC";
layerId = "DB178806-64AC-4224-9FE6-26FFC9E8C7DD";
name = "Jul 15 20, 22:45";
paths = (
{
closed = 1;
nodes = (
"251 91 LINE",
"279 134 OFFCURVE",
"365 256 OFFCURVE",
"461 350 CURVE SMOOTH",
"575 462 OFFCURVE",
"704 612 OFFCURVE",
"733 640 CURVE",
"570 640 LINE",
"570 618 LINE",
"543 573 OFFCURVE",
"457 444 OFFCURVE",
"363 352 CURVE SMOOTH",
"250 241 OFFCURVE",
"117 101 OFFCURVE",
"58 70 CURVE",
"251 70 LINE"
);
},
{
closed = 1;
nodes = (
"410 700 LINE",
"58 700 LINE",
"51 693 LINE",
"54 665 OFFCURVE",
"54 675 OFFCURVE",
"51 647 CURVE",
"58 640 LINE",
"733 640 LINE",
"740 647 LINE",
"740 693 LINE",
"733 700 LINE"
);
},
{
closed = 1;
nodes = (
"740 7 LINE",
"736 35 OFFCURVE",
"736 35 OFFCURVE",
"740 63 CURVE",
"733 70 LINE",
"58 70 LINE",
"51 63 LINE",
"51 7 LINE",
"58 0 LINE",
"410 0 LINE",
"733 0 LINE"
);
}
);
width = 600;
},
{
associatedMasterId = "E103E4E6-9333-477C-9ADC-F52051F3C867";
layerId = "8E169918-2BDA-47B4-A650-6EBA9D9168E8";
paths = (
{
closed = 1;
nodes = (
"177 61 LINE",
"200 104 OFFCURVE",
"523 632 OFFCURVE",
"546 660 CURVE",
"420 660 LINE",
"420 638 LINE",
"398 593 OFFCURVE",
"74 71 OFFCURVE",
"26 40 CURVE",
"177 40 LINE"
);
},
{
closed = 1;
nodes = (
"282 700 LINE",
"26 700 LINE",
"20 693 LINE",
"21 672 OFFCURVE",
"22 620 OFFCURVE",
"20 597 CURVE",
"26 590 LINE",
"63 619 OFFCURVE",
"154 660 OFFCURVE",
"221 660 CURVE",
"546 660 LINE",
"552 667 LINE",
"552 693 LINE",
"546 700 LINE"
);
},
{
closed = 1;
nodes = (
"274 0 LINE",
"546 0 LINE",
"552 7 LINE",
"550 38 OFFCURVE",
"550 79 OFFCURVE",
"552 103 CURVE",
"546 110 LINE",
"509 81 OFFCURVE",
"418 40 OFFCURVE",
"351 40 CURVE",
"26 40 LINE",
"20 33 LINE",
"20 7 LINE",
"26 0 LINE"
);
}
);
width = 572;
},
{
associatedMasterId = "E103E4E6-9333-477C-9ADC-F52051F3C867";
layerId = "B0F8FA06-7985-4EED-9B60-A07831D2BBE6";
name = "Jul 15 20, 22:45";
paths = (
{
closed = 1;
nodes = (
"251 91 LINE",
"279 134 OFFCURVE",
"365 256 OFFCURVE",
"461 350 CURVE SMOOTH",
"575 462 OFFCURVE",
"704 612 OFFCURVE",
"733 640 CURVE",
"570 640 LINE",
"570 618 LINE",
"543 573 OFFCURVE",
"457 444 OFFCURVE",
"363 352 CURVE SMOOTH",
"250 241 OFFCURVE",
"117 101 OFFCURVE",
"58 70 CURVE",
"251 70 LINE"
);
},
{
closed = 1;
nodes = (
"410 700 LINE",
"58 700 LINE",
"51 693 LINE",
"54 665 OFFCURVE",
"54 675 OFFCURVE",
"51 647 CURVE",
"58 640 LINE",
"733 640 LINE",
"740 647 LINE",
"740 693 LINE",
"733 700 LINE"
);
},
{
closed = 1;
nodes = (
"740 7 LINE",
"736 35 OFFCURVE",
"736 35 OFFCURVE",
"740 63 CURVE",
"733 70 LINE",
"58 70 LINE",
"51 63 LINE",
"51 7 LINE",
"58 0 LINE",
"410 0 LINE",
"733 0 LINE"
);
}
);
width = 600;
},
{
layerId = "B6F795C8-F751-4DF7-955B-5EAABF4BC2BE";
width = 600;
},
{
layerId = "E103E4E6-9333-477C-9ADC-F52051F3C867";
width = 600;
}
);
leftKerningGroup = Z;
rightKerningGroup = Z;
unicode = 005A;
},
{
glyphname = Q.001;
lastChange = "2020-07-30 10:14:06 +0000";
layers = (
{
layerId = "AEA248FC-48D8-43C3-8E42-77E797A92BBC";
paths = (
{
closed = 1;
nodes = (
"564 -15 OFFCURVE",
"738 143 OFFCURVE",
"738 348 CURVE SMOOTH",
"738 553 OFFCURVE",
"564 712 OFFCURVE",
"375 712 CURVE SMOOTH",
"186 712 OFFCURVE",
"12 553 OFFCURVE",
"11 348 CURVE SMOOTH",
"10 143 OFFCURVE",
"186 -15 OFFCURVE",
"375 -15 CURVE SMOOTH"
);
},
{
closed = 1;
nodes = (
"205 38 OFFCURVE",
"143 155 OFFCURVE",
"142 348 CURVE SMOOTH",
"141 540 OFFCURVE",
"205 658 OFFCURVE",
"375 658 CURVE SMOOTH",
"544 658 OFFCURVE",
"607 540 OFFCURVE",
"607 348 CURVE SMOOTH",
"607 155 OFFCURVE",
"544 38 OFFCURVE",
"375 38 CURVE SMOOTH"
);
},
{
closed = 1;
nodes = (
"338 0 LINE",
"338 -68 OFFCURVE",
"360 -148 OFFCURVE",
"452 -148 CURVE SMOOTH",
"531 -148 OFFCURVE",
"599 -145 OFFCURVE",
"609 -163 CURVE",
"621 -153 LINE",
"619 -130 OFFCURVE",
"614 -65 OFFCURVE",
"621 -41 CURVE",
"609 -27 LINE",
"568 -68 OFFCURVE",
"509 -88 OFFCURVE",
"452 -88 CURVE SMOOTH",
"410 -88 OFFCURVE",
"397 -38 OFFCURVE",
"397 0 CURVE"
);
}
);
width = 768;
},
{
associatedMasterId = "E103E4E6-9333-477C-9ADC-F52051F3C867";
layerId = "8E169918-2BDA-47B4-A650-6EBA9D9168E8";
paths = (
{
closed = 1;
nodes = (
"564 -15 OFFCURVE",
"738 143 OFFCURVE",
"738 348 CURVE SMOOTH",
"738 553 OFFCURVE",
"564 712 OFFCURVE",
"375 712 CURVE SMOOTH",
"186 712 OFFCURVE",
"12 553 OFFCURVE",
"11 348 CURVE SMOOTH",
"10 143 OFFCURVE",
"186 -15 OFFCURVE",
"375 -15 CURVE SMOOTH"
);
},
{
closed = 1;
nodes = (
"205 38 OFFCURVE",
"143 155 OFFCURVE",
"142 348 CURVE SMOOTH",
"141 540 OFFCURVE",
"205 658 OFFCURVE",
"375 658 CURVE SMOOTH",
"544 658 OFFCURVE",
"607 540 OFFCURVE",
"607 348 CURVE SMOOTH",
"607 155 OFFCURVE",
"544 38 OFFCURVE",
"375 38 CURVE SMOOTH"
);
},
{
closed = 1;
nodes = (
"338 0 LINE",
"338 -68 OFFCURVE",
"360 -148 OFFCURVE",
"452 -148 CURVE SMOOTH",
"531 -148 OFFCURVE",
"599 -145 OFFCURVE",
"609 -163 CURVE",
"621 -153 LINE",
"619 -130 OFFCURVE",
"614 -65 OFFCURVE",
"621 -41 CURVE",
"609 -27 LINE",
"568 -68 OFFCURVE",
"509 -88 OFFCURVE",
"452 -88 CURVE SMOOTH",
"410 -88 OFFCURVE",
"397 -38 OFFCURVE",
"397 0 CURVE"
);
}
);
width = 768;
},
{
layerId = "E103E4E6-9333-477C-9ADC-F52051F3C867";
width = 600;
},
{
layerId = "B6F795C8-F751-4DF7-955B-5EAABF4BC2BE";
width = 600;
}
);
leftKerningGroup = O;
rightKerningGroup = O;
},
{
glyphname = Q.002;
lastChange = "2020-07-30 10:14:06 +0000";
layers = (
{
layerId = "AEA248FC-48D8-43C3-8E42-77E797A92BBC";
paths = (
{
closed = 1;
nodes = (
"564 -15 OFFCURVE",
"738 143 OFFCURVE",
"738 348 CURVE SMOOTH",
"738 553 OFFCURVE",
"564 712 OFFCURVE",
"375 712 CURVE SMOOTH",
"186 712 OFFCURVE",
"12 553 OFFCURVE",
"11 348 CURVE SMOOTH",
"10 143 OFFCURVE",
"186 -15 OFFCURVE",
"375 -15 CURVE SMOOTH"
);
},
{
closed = 1;
nodes = (
"205 38 OFFCURVE",
"143 155 OFFCURVE",
"142 348 CURVE SMOOTH",
"141 540 OFFCURVE",
"205 658 OFFCURVE",
"375 658 CURVE SMOOTH",
"544 658 OFFCURVE",
"607 540 OFFCURVE",
"607 348 CURVE SMOOTH",
"607 155 OFFCURVE",
"544 38 OFFCURVE",
"375 38 CURVE SMOOTH"
);
},
{
closed = 1;
nodes = (
"592 -88 OFFCURVE",
"634 -61 CURVE",
"635 -42 LINE",
"577 -42 OFFCURVE",
"522 -15 OFFCURVE",
"481 26 CURVE SMOOTH",
"376 129 LINE",
"369 130 LINE",
"339 100 LINE",
"340 92 LINE",
"443 -13 LINE SMOOTH",
"484 -54 OFFCURVE",
"511 -109 OFFCURVE",
"511 -167 CURVE",
"531 -165 LINE",
"558 -105 OFFCURVE"
);
}
);
width = 750;
},
{
associatedMasterId = "E103E4E6-9333-477C-9ADC-F52051F3C867";
layerId = "8E169918-2BDA-47B4-A650-6EBA9D9168E8";
paths = (
{
closed = 1;
nodes = (
"564 -15 OFFCURVE",
"738 143 OFFCURVE",
"738 348 CURVE SMOOTH",
"738 553 OFFCURVE",
"564 712 OFFCURVE",
"375 712 CURVE SMOOTH",
"186 712 OFFCURVE",
"12 553 OFFCURVE",
"11 348 CURVE SMOOTH",
"10 143 OFFCURVE",
"186 -15 OFFCURVE",
"375 -15 CURVE SMOOTH"
);
},
{
closed = 1;
nodes = (
"205 38 OFFCURVE",
"143 155 OFFCURVE",
"142 348 CURVE SMOOTH",
"141 540 OFFCURVE",
"205 658 OFFCURVE",
"375 658 CURVE SMOOTH",
"544 658 OFFCURVE",
"607 540 OFFCURVE",
"607 348 CURVE SMOOTH",
"607 155 OFFCURVE",
"544 38 OFFCURVE",
"375 38 CURVE SMOOTH"
);
},
{
closed = 1;
nodes = (
"592 -88 OFFCURVE",
"634 -61 CURVE",
"635 -42 LINE",
"577 -42 OFFCURVE",
"522 -15 OFFCURVE",
"481 26 CURVE SMOOTH",
"376 129 LINE",
"369 130 LINE",
"339 100 LINE",
"340 92 LINE",
"443 -13 LINE SMOOTH",
"484 -54 OFFCURVE",
"511 -109 OFFCURVE",
"511 -167 CURVE",
"531 -165 LINE",
"558 -105 OFFCURVE"
);
}
);
width = 750;
},
{
layerId = "E103E4E6-9333-477C-9ADC-F52051F3C867";
width = 600;
},
{
layerId = "B6F795C8-F751-4DF7-955B-5EAABF4BC2BE";
width = 600;
}
);
leftKerningGroup = O;
rightKerningGroup = O;
},
{
glyphname = a;
lastChange = "2020-08-01 17:45:41 +0000";
layers = (
{
anchors = (
{
name = bottom;
position = "{275, 0}";
},
{
name = ogonek;
position = "{495, 10}";
},
{
name = top;
position = "{275, 500}";
}
);
layerId = "AEA248FC-48D8-43C3-8E42-77E797A92BBC";
paths = (
{
closed = 1;
nodes = (
"505 0 LINE",
"510 5 LINE",
"501 87 OFFCURVE",
"496 175 OFFCURVE",
"496 306 CURVE SMOOTH",
"497 342 OFFCURVE",
"500 375 OFFCURVE",
"503 399 CURVE",
"461 478 OFFCURVE",
"370 515 OFFCURVE",
"276 515 CURVE SMOOTH",
"190 515 OFFCURVE",
"104 486 OFFCURVE",
"45 433 CURVE",
"40 418 LINE",
"64 392 OFFCURVE",
"91 348 OFFCURVE",
"101 312 CURVE",
"121 312 LINE",
"138 419 OFFCURVE",
"183 485 OFFCURVE",
"270 485 CURVE SMOOTH",
"342 485 OFFCURVE",
"408 432 OFFCURVE",
"408 296 CURVE SMOOTH",
"408 176 OFFCURVE",
"403 86 OFFCURVE",
"394 5 CURVE",
"399 0 LINE"
);
},
{
closed = 1;
nodes = (
"270 -12 OFFCURVE",
"351 27 OFFCURVE",
"401 69 CURVE",
"403 99 LINE",
"374 71 OFFCURVE",
"301 32 OFFCURVE",
"240 32 CURVE SMOOTH",
"196 32 OFFCURVE",
"160 55 OFFCURVE",
"160 124 CURVE SMOOTH",
"160 233 OFFCURVE",
"294 252 OFFCURVE",
"421 252 CURVE",
"421 288 LINE",
"406 290 OFFCURVE",
"388 291 OFFCURVE",
"370 291 CURVE SMOOTH",
"240 291 OFFCURVE",
"60 240 OFFCURVE",
"60 106 CURVE SMOOTH",
"60 23 OFFCURVE",
"118 -12 OFFCURVE",
"198 -12 CURVE SMOOTH"
);
}
);
width = 550;
},
{
layerId = "B6F795C8-F751-4DF7-955B-5EAABF4BC2BE";
width = 600;
},
{
associatedMasterId = "E103E4E6-9333-477C-9ADC-F52051F3C867";
layerId = "8A9AEA52-9A2C-4B8E-9A91-68DE6B45B7B1";
width = 600;
},
{
associatedMasterId = "E103E4E6-9333-477C-9ADC-F52051F3C867";
layerId = "8E169918-2BDA-47B4-A650-6EBA9D9168E8";
paths = (
{
closed = 1;
nodes = (
"505 0 LINE",
"510 5 LINE",
"501 87 OFFCURVE",
"496 175 OFFCURVE",
"496 306 CURVE SMOOTH",
"497 342 OFFCURVE",
"500 375 OFFCURVE",
"503 399 CURVE",
"461 478 OFFCURVE",
"370 515 OFFCURVE",
"276 515 CURVE SMOOTH",
"190 515 OFFCURVE",
"104 486 OFFCURVE",
"45 433 CURVE",
"40 418 LINE",
"64 392 OFFCURVE",
"91 348 OFFCURVE",
"101 312 CURVE",
"121 312 LINE",
"138 419 OFFCURVE",
"183 485 OFFCURVE",
"270 485 CURVE SMOOTH",
"342 485 OFFCURVE",
"408 432 OFFCURVE",
"408 296 CURVE SMOOTH",
"408 176 OFFCURVE",
"403 86 OFFCURVE",
"394 5 CURVE",
"399 0 LINE"
);
},
{
closed = 1;
nodes = (
"270 -12 OFFCURVE",
"351 27 OFFCURVE",
"401 69 CURVE",
"403 99 LINE",
"374 71 OFFCURVE",
"301 32 OFFCURVE",
"240 32 CURVE SMOOTH",
"196 32 OFFCURVE",
"160 55 OFFCURVE",
"160 124 CURVE SMOOTH",
"160 233 OFFCURVE",
"294 252 OFFCURVE",
"421 252 CURVE",
"421 288 LINE",
"406 290 OFFCURVE",
"388 291 OFFCURVE",
"370 291 CURVE SMOOTH",
"240 291 OFFCURVE",
"60 240 OFFCURVE",
"60 106 CURVE SMOOTH",
"60 23 OFFCURVE",
"118 -12 OFFCURVE",
"198 -12 CURVE SMOOTH"
);
}
);
width = 550;
},
{
layerId = "E103E4E6-9333-477C-9ADC-F52051F3C867";
width = 600;
}
);
leftKerningGroup = a;
rightKerningGroup = a;
unicode = 0061;
},
{
glyphname = aacute;
lastChange = "2020-08-01 08:58:18 +0000";
layers = (
{
layerId = "E103E4E6-9333-477C-9ADC-F52051F3C867";
width = 600;
},
{
anchors = (
{
name = bottom;
position = "{275, 0}";
},
{
name = ogonek;
position = "{495, 10}";
},
{
name = top;
position = "{275, 500}";
}
);
layerId = "AEA248FC-48D8-43C3-8E42-77E797A92BBC";
paths = (
{
closed = 1;
nodes = (
"505 0 LINE",
"510 5 LINE",
"501 87 OFFCURVE",
"496 175 OFFCURVE",
"496 306 CURVE SMOOTH",
"497 342 OFFCURVE",
"500 375 OFFCURVE",
"503 399 CURVE",
"461 478 OFFCURVE",
"370 515 OFFCURVE",
"276 515 CURVE SMOOTH",
"190 515 OFFCURVE",
"104 486 OFFCURVE",
"45 433 CURVE",
"40 418 LINE",
"64 392 OFFCURVE",
"91 348 OFFCURVE",
"101 312 CURVE",
"121 312 LINE",
"138 419 OFFCURVE",
"183 485 OFFCURVE",
"270 485 CURVE SMOOTH",
"342 485 OFFCURVE",
"408 432 OFFCURVE",
"408 296 CURVE SMOOTH",
"408 176 OFFCURVE",
"403 86 OFFCURVE",
"394 5 CURVE",
"399 0 LINE"
);
},
{
closed = 1;
nodes = (
"270 -12 OFFCURVE",
"351 27 OFFCURVE",
"401 69 CURVE",
"403 99 LINE",
"374 71 OFFCURVE",
"301 32 OFFCURVE",
"240 32 CURVE SMOOTH",
"196 32 OFFCURVE",
"160 55 OFFCURVE",
"160 124 CURVE SMOOTH",
"160 233 OFFCURVE",
"294 252 OFFCURVE",
"421 252 CURVE",
"421 288 LINE",
"406 290 OFFCURVE",
"388 291 OFFCURVE",
"370 291 CURVE SMOOTH",
"240 291 OFFCURVE",
"60 240 OFFCURVE",
"60 106 CURVE SMOOTH",
"60 23 OFFCURVE",
"118 -12 OFFCURVE",
"198 -12 CURVE SMOOTH"
);
},
{
closed = 1;
nodes = (
"263 580 LINE",
"266 581 LINE",
"406 718 LINE",
"401 730 LINE",
"378 727 OFFCURVE",
"356 727 OFFCURVE",
"333 730 CURVE",
"330 728 LINE",
"229 591 LINE",
"234 580 LINE"
);
}
);
width = 550;
},
{
layerId = "B6F795C8-F751-4DF7-955B-5EAABF4BC2BE";
width = 600;
}
);
leftKerningGroup = a;
rightKerningGroup = a;
unicode = 00E1;
},
{
glyphname = b;
lastChange = "2020-07-30 10:14:06 +0000";
layers = (
{
layerId = "AEA248FC-48D8-43C3-8E42-77E797A92BBC";
paths = (
{
closed = 1;
nodes = (
"455 -15 OFFCURVE",
"537 91 OFFCURVE",
"537 250 CURVE SMOOTH",
"537 409 OFFCURVE",
"463 515 OFFCURVE",
"322 515 CURVE SMOOTH",
"202 515 OFFCURVE",
"138 423 OFFCURVE",
"123 392 CURVE",
"121 338 LINE",
"140 383 OFFCURVE",
"192 475 OFFCURVE",
"288 475 CURVE SMOOTH",
"389 475 OFFCURVE",
"437 377 OFFCURVE",
"437 250 CURVE SMOOTH",
"437 123 OFFCURVE",
"389 15 OFFCURVE",
"288 15 CURVE SMOOTH",
"193 15 OFFCURVE",
"142 117 OFFCURVE",
"142 217 CURVE",
"93 138 LINE",
"101 77 OFFCURVE",
"171 -15 OFFCURVE",
"302 -15 CURVE SMOOTH"
);
},
{
closed = 1;
nodes = (
"142 89 LINE",
"142 353 LINE SMOOTH",
"142 433 OFFCURVE",
"146 585 OFFCURVE",
"156 700 CURVE",
"151 705 LINE",
"126 700 OFFCURVE",
"70 700 OFFCURVE",
"45 705 CURVE",
"40 700 LINE",
"50 585 OFFCURVE",
"54 433 OFFCURVE",
"54 353 CURVE SMOOTH",
"54 273 OFFCURVE",
"50 115 OFFCURVE",
"40 0 CURVE",
"90 0 LINE"
);
}
);
width = 582;
},
{
associatedMasterId = "AEA248FC-48D8-43C3-8E42-77E797A92BBC";
layerId = "B9D6E1B3-85FE-417D-86DA-9EEC6399D2A2";
name = "Jul 11 20, 22:42";
paths = (
{
closed = 1;
nodes = (
"201 472 OFFCURVE",
"290 515 OFFCURVE",
"369 515 CURVE SMOOTH",
"502 515 OFFCURVE",
"587 392 OFFCURVE",
"587 250 CURVE SMOOTH",
"587 107 OFFCURVE",
"502 -15 OFFCURVE",
"369 -15 CURVE SMOOTH",
"290 -15 OFFCURVE",
"201 27 OFFCURVE",
"140 91 CURVE",
"140 408 LINE"
);
},
{
closed = 1;
nodes = (
"436 45 OFFCURVE",
"487 127 OFFCURVE",
"487 250 CURVE SMOOTH",
"487 372 OFFCURVE",
"436 455 OFFCURVE",
"329 455 CURVE SMOOTH",
"221 455 OFFCURVE",
"160 394 OFFCURVE",
"160 250 CURVE SMOOTH",
"160 105 OFFCURVE",
"221 45 OFFCURVE",
"329 45 CURVE SMOOTH"
);
},
{
closed = 1;
nodes = (
"64 710 LINE",
"89 705 OFFCURVE",
"145 705 OFFCURVE",
"170 710 CURVE",
"175 705 LINE",
"166 629 OFFCURVE",
"161 331 OFFCURVE",
"161 257 CURVE SMOOTH",
"161 174 OFFCURVE",
"166 87 OFFCURVE",
"175 5 CURVE",
"170 0 LINE",
"145 0 OFFCURVE",
"89 0 OFFCURVE",
"64 0 CURVE",
"59 5 LINE",
"68 86 OFFCURVE",
"73 176 OFFCURVE",
"73 256 CURVE SMOOTH",
"73 333 OFFCURVE",
"68 628 OFFCURVE",
"59 705 CURVE"
);
}
);
width = 600;
},
{
associatedMasterId = "AEA248FC-48D8-43C3-8E42-77E797A92BBC";
layerId = "4CB4D80D-5A13-4FB1-A8BB-95C29A4348E5";
name = "Jul 13 20, 16:13";
paths = (
{
closed = 1;
nodes = (
"498 -15 OFFCURVE",
"596 91 OFFCURVE",
"596 250 CURVE SMOOTH",
"596 409 OFFCURVE",
"498 515 OFFCURVE",
"351 515 CURVE SMOOTH",
"225 515 OFFCURVE",
"158 423 OFFCURVE",
"142 392 CURVE",
"140 338 LINE",
"160 383 OFFCURVE",
"215 445 OFFCURVE",
"317 445 CURVE SMOOTH",
"424 445 OFFCURVE",
"496 377 OFFCURVE",
"496 250 CURVE SMOOTH",
"496 123 OFFCURVE",
"424 55 OFFCURVE",
"317 55 CURVE SMOOTH",
"215 55 OFFCURVE",
"160 117 OFFCURVE",
"140 162 CURVE",
"142 108 LINE",
"158 77 OFFCURVE",
"225 -15 OFFCURVE",
"351 -15 CURVE SMOOTH"
);
},
{
closed = 1;
nodes = (
"161 79 LINE",
"161 353 LINE SMOOTH",
"161 433 OFFCURVE",
"165 585 OFFCURVE",
"175 700 CURVE",
"170 705 LINE",
"145 700 OFFCURVE",
"89 700 OFFCURVE",
"64 705 CURVE",
"59 700 LINE",
"69 585 OFFCURVE",
"73 433 OFFCURVE",
"73 353 CURVE SMOOTH",
"73 273 OFFCURVE",
"69 115 OFFCURVE",
"59 0 CURVE",
"99 0 LINE"
);
}
);
width = 600;
},
{
associatedMasterId = "E103E4E6-9333-477C-9ADC-F52051F3C867";
layerId = "8E169918-2BDA-47B4-A650-6EBA9D9168E8";
paths = (
{
closed = 1;
nodes = (
"455 -15 OFFCURVE",
"537 91 OFFCURVE",
"537 250 CURVE SMOOTH",
"537 409 OFFCURVE",
"463 515 OFFCURVE",
"322 515 CURVE SMOOTH",
"202 515 OFFCURVE",
"138 423 OFFCURVE",
"123 392 CURVE",
"121 338 LINE",
"140 383 OFFCURVE",
"192 475 OFFCURVE",
"288 475 CURVE SMOOTH",
"389 475 OFFCURVE",
"437 377 OFFCURVE",
"437 250 CURVE SMOOTH",
"437 123 OFFCURVE",
"389 15 OFFCURVE",
"288 15 CURVE SMOOTH",
"193 15 OFFCURVE",
"142 117 OFFCURVE",
"142 217 CURVE",
"93 138 LINE",
"101 77 OFFCURVE",
"171 -15 OFFCURVE",
"302 -15 CURVE SMOOTH"
);
},
{
closed = 1;
nodes = (
"142 89 LINE",
"142 353 LINE SMOOTH",
"142 433 OFFCURVE",
"146 585 OFFCURVE",
"156 700 CURVE",
"151 705 LINE",
"126 700 OFFCURVE",
"70 700 OFFCURVE",
"45 705 CURVE",
"40 700 LINE",
"50 585 OFFCURVE",
"54 433 OFFCURVE",
"54 353 CURVE SMOOTH",
"54 273 OFFCURVE",
"50 115 OFFCURVE",
"40 0 CURVE",
"90 0 LINE"
);
}
);
width = 582;
},
{
associatedMasterId = "E103E4E6-9333-477C-9ADC-F52051F3C867";
layerId = "B59B4D5E-6CE1-4B33-977D-70ECF40DF62B";
name = "Jul 11 20, 22:42";
paths = (
{
closed = 1;
nodes = (
"201 472 OFFCURVE",
"290 515 OFFCURVE",
"369 515 CURVE SMOOTH",
"502 515 OFFCURVE",
"587 392 OFFCURVE",
"587 250 CURVE SMOOTH",
"587 107 OFFCURVE",
"502 -15 OFFCURVE",
"369 -15 CURVE SMOOTH",
"290 -15 OFFCURVE",
"201 27 OFFCURVE",
"140 91 CURVE",
"140 408 LINE"
);
},
{
closed = 1;
nodes = (
"436 45 OFFCURVE",
"487 127 OFFCURVE",
"487 250 CURVE SMOOTH",
"487 372 OFFCURVE",
"436 455 OFFCURVE",
"329 455 CURVE SMOOTH",
"221 455 OFFCURVE",
"160 394 OFFCURVE",
"160 250 CURVE SMOOTH",
"160 105 OFFCURVE",
"221 45 OFFCURVE",
"329 45 CURVE SMOOTH"
);
},
{
closed = 1;
nodes = (
"64 710 LINE",
"89 705 OFFCURVE",
"145 705 OFFCURVE",
"170 710 CURVE",
"175 705 LINE",
"166 629 OFFCURVE",
"161 331 OFFCURVE",
"161 257 CURVE SMOOTH",
"161 174 OFFCURVE",
"166 87 OFFCURVE",
"175 5 CURVE",
"170 0 LINE",
"145 0 OFFCURVE",
"89 0 OFFCURVE",
"64 0 CURVE",
"59 5 LINE",
"68 86 OFFCURVE",
"73 176 OFFCURVE",
"73 256 CURVE SMOOTH",
"73 333 OFFCURVE",
"68 628 OFFCURVE",
"59 705 CURVE"
);
}
);
width = 600;
},
{
associatedMasterId = "E103E4E6-9333-477C-9ADC-F52051F3C867";
layerId = "EF3A0011-C5B6-49B3-A66B-DC191C176C32";
name = "Jul 13 20, 16:13";
paths = (
{
closed = 1;
nodes = (
"498 -15 OFFCURVE",
"596 91 OFFCURVE",
"596 250 CURVE SMOOTH",
"596 409 OFFCURVE",
"498 515 OFFCURVE",
"351 515 CURVE SMOOTH",
"225 515 OFFCURVE",
"158 423 OFFCURVE",
"142 392 CURVE",
"140 338 LINE",
"160 383 OFFCURVE",
"215 445 OFFCURVE",
"317 445 CURVE SMOOTH",
"424 445 OFFCURVE",
"496 377 OFFCURVE",
"496 250 CURVE SMOOTH",
"496 123 OFFCURVE",
"424 55 OFFCURVE",
"317 55 CURVE SMOOTH",
"215 55 OFFCURVE",
"160 117 OFFCURVE",
"140 162 CURVE",
"142 108 LINE",
"158 77 OFFCURVE",
"225 -15 OFFCURVE",
"351 -15 CURVE SMOOTH"
);
},
{
closed = 1;
nodes = (
"161 79 LINE",
"161 353 LINE SMOOTH",
"161 433 OFFCURVE",
"165 585 OFFCURVE",
"175 700 CURVE",
"170 705 LINE",
"145 700 OFFCURVE",
"89 700 OFFCURVE",
"64 705 CURVE",
"59 700 LINE",
"69 585 OFFCURVE",
"73 433 OFFCURVE",
"73 353 CURVE SMOOTH",
"73 273 OFFCURVE",
"69 115 OFFCURVE",
"59 0 CURVE",
"99 0 LINE"
);
}
);
width = 600;
},
{
layerId = "B6F795C8-F751-4DF7-955B-5EAABF4BC2BE";
paths = (
{
closed = 1;
nodes = (
"455 -15 OFFCURVE",
"537 91 OFFCURVE",
"537 250 CURVE SMOOTH",
"537 409 OFFCURVE",
"463 515 OFFCURVE",
"322 515 CURVE SMOOTH",
"202 515 OFFCURVE",
"138 433 OFFCURVE",
"123 402 CURVE",
"121 338 LINE",
"140 383 OFFCURVE",
"192 435 OFFCURVE",
"288 435 CURVE SMOOTH",
"379 435 OFFCURVE",
"417 377 OFFCURVE",
"417 250 CURVE SMOOTH",
"417 123 OFFCURVE",
"379 45 OFFCURVE",
"288 45 CURVE SMOOTH",
"193 45 OFFCURVE",
"142 117 OFFCURVE",
"142 217 CURVE",
"93 138 LINE",
"101 77 OFFCURVE",
"171 -15 OFFCURVE",
"302 -15 CURVE SMOOTH"
);
},
{
closed = 1;
nodes = (
"142 89 LINE",
"142 353 LINE SMOOTH",
"142 433 OFFCURVE",
"146 585 OFFCURVE",
"156 700 CURVE",
"151 705 LINE",
"126 700 OFFCURVE",
"30 700 OFFCURVE",
"5 705 CURVE",
"0 700 LINE",
"10 585 OFFCURVE",
"14 433 OFFCURVE",
"14 353 CURVE SMOOTH",
"14 273 OFFCURVE",
"10 115 OFFCURVE",
"0 0 CURVE",
"90 0 LINE"
);
}
);
width = 537;
},
{
layerId = "E103E4E6-9333-477C-9ADC-F52051F3C867";
width = 600;
}
);
leftKerningGroup = h;
leftMetricsKey = "=n";
rightKerningGroup = o;
rightMetricsKey = "=o";
unicode = 0062;
},
{
glyphname = c;
lastChange = "2020-08-01 17:42:57 +0000";
layers = (
{
layerId = "AEA248FC-48D8-43C3-8E42-77E797A92BBC";
paths = (
{
closed = 1;
nodes = (
"386 -15 OFFCURVE",
"469 10 OFFCURVE",
"525 57 CURVE",
"530 72 LINE",
"506 91 OFFCURVE",
"479 122 OFFCURVE",
"469 148 CURVE",
"449 148 LINE",
"432 73 OFFCURVE",
"391 15 OFFCURVE",
"310 15 CURVE SMOOTH",
"216 15 OFFCURVE",
"145 115 OFFCURVE",
"145 250 CURVE SMOOTH",
"145 385 OFFCURVE",
"206 485 OFFCURVE",
"310 485 CURVE SMOOTH",
"391 485 OFFCURVE",
"432 417 OFFCURVE",
"449 322 CURVE",
"469 322 LINE",
"479 358 OFFCURVE",
"506 402 OFFCURVE",
"530 428 CURVE",
"525 443 LINE",
"469 490 OFFCURVE",
"386 515 OFFCURVE",
"304 515 CURVE SMOOTH",
"159 515 OFFCURVE",
"45 409 OFFCURVE",
"45 250 CURVE SMOOTH",
"45 91 OFFCURVE",
"159 -15 OFFCURVE",
"304 -15 CURVE SMOOTH"
);
}
);
width = 560;
},
{
associatedMasterId = "E103E4E6-9333-477C-9ADC-F52051F3C867";
layerId = "8E169918-2BDA-47B4-A650-6EBA9D9168E8";
paths = (
{
closed = 1;
nodes = (
"386 -15 OFFCURVE",
"469 10 OFFCURVE",
"525 57 CURVE",
"530 72 LINE",
"506 91 OFFCURVE",
"479 122 OFFCURVE",
"469 148 CURVE",
"449 148 LINE",
"432 73 OFFCURVE",
"391 15 OFFCURVE",
"310 15 CURVE SMOOTH",
"216 15 OFFCURVE",
"145 115 OFFCURVE",
"145 250 CURVE SMOOTH",
"145 385 OFFCURVE",
"206 485 OFFCURVE",
"310 485 CURVE SMOOTH",
"391 485 OFFCURVE",
"432 417 OFFCURVE",
"449 322 CURVE",
"469 322 LINE",
"479 358 OFFCURVE",
"506 402 OFFCURVE",
"530 428 CURVE",
"525 443 LINE",
"469 490 OFFCURVE",
"386 515 OFFCURVE",
"304 515 CURVE SMOOTH",
"159 515 OFFCURVE",
"45 409 OFFCURVE",
"45 250 CURVE SMOOTH",
"45 91 OFFCURVE",
"159 -15 OFFCURVE",
"304 -15 CURVE SMOOTH"
);
}
);
width = 560;
},
{
layerId = "B6F795C8-F751-4DF7-955B-5EAABF4BC2BE";
paths = (
{
closed = 1;
nodes = (
"341 -18 OFFCURVE",
"424 10 OFFCURVE",
"480 57 CURVE",
"485 72 LINE",
"461 91 OFFCURVE",
"434 122 OFFCURVE",
"424 148 CURVE",
"404 148 LINE",
"387 73 OFFCURVE",
"346 62 OFFCURVE",
"265 62 CURVE SMOOTH",
"171 62 OFFCURVE",
"120 125 OFFCURVE",
"120 250 CURVE SMOOTH",
"120 375 OFFCURVE",
"161 435 OFFCURVE",
"265 435 CURVE SMOOTH",
"347 435 OFFCURVE",
"389 419 OFFCURVE",
"404 322 CURVE",
"424 322 LINE",
"434 358 OFFCURVE",
"461 402 OFFCURVE",
"485 428 CURVE",
"480 443 LINE",
"424 490 OFFCURVE",
"341 518 OFFCURVE",
"259 518 CURVE SMOOTH",
"114 518 OFFCURVE",
"-10 409 OFFCURVE",
"-10 250 CURVE SMOOTH",
"-10 91 OFFCURVE",
"114 -18 OFFCURVE",
"259 -18 CURVE SMOOTH"
);
}
);
width = 555;
},
{
layerId = "E103E4E6-9333-477C-9ADC-F52051F3C867";
paths = (
{
closed = 1;
nodes = (
"372 -15 OFFCURVE",
"426 49 OFFCURVE",
"455 82 CURVE",
"460 97 LINE",
"446 108 OFFCURVE",
"434 126 OFFCURVE",
"426 148 CURVE",
"406 148 LINE",
"396 104 OFFCURVE",
"369 15 OFFCURVE",
"265 15 CURVE SMOOTH",
"161 15 OFFCURVE",
"70 115 OFFCURVE",
"70 250 CURVE SMOOTH",
"70 385 OFFCURVE",
"151 485 OFFCURVE",
"265 485 CURVE SMOOTH",
"329 485 OFFCURVE",
"385 454 OFFCURVE",
"406 363 CURVE",
"426 363 LINE",
"434 385 OFFCURVE",
"446 403 OFFCURVE",
"460 414 CURVE",
"455 429 LINE",
"392 501 OFFCURVE",
"332 515 OFFCURVE",
"259 515 CURVE SMOOTH",
"104 515 OFFCURVE",
"30 409 OFFCURVE",
"30 250 CURVE SMOOTH",
"30 91 OFFCURVE",
"104 -15 OFFCURVE",
"259 -15 CURVE SMOOTH"
);
}
);
width = 490;
}
);
leftKerningGroup = o;
rightKerningGroup = c;
unicode = 0063;
},
{
glyphname = d;
lastChange = "2020-08-01 17:40:00 +0000";
layers = (
{
layerId = "AEA248FC-48D8-43C3-8E42-77E797A92BBC";
paths = (
{
closed = 1;
nodes = (
"476 0 OFFCURVE",
"532 0 OFFCURVE",
"557 0 CURVE",
"562 5 LINE",
"552 120 OFFCURVE",
"548 273 OFFCURVE",
"548 353 CURVE SMOOTH",
"548 433 OFFCURVE",
"552 585 OFFCURVE",
"562 700 CURVE",
"557 705 LINE",
"532 700 OFFCURVE",
"476 700 OFFCURVE",
"451 705 CURVE",
"446 700 LINE",
"456 585 OFFCURVE",
"460 433 OFFCURVE",
"460 353 CURVE SMOOTH",
"460 273 OFFCURVE",
"456 120 OFFCURVE",
"446 5 CURVE",
"451 0 LINE"
);
},
{
closed = 1;
nodes = (
"147 515 OFFCURVE",
"45 409 OFFCURVE",
"45 250 CURVE SMOOTH",
"45 91 OFFCURVE",
"139 -15 OFFCURVE",
"280 -15 CURVE SMOOTH",
"400 -15 OFFCURVE",
"464 77 OFFCURVE",
"479 108 CURVE",
"481 162 LINE",
"462 117 OFFCURVE",
"410 25 OFFCURVE",
"314 25 CURVE SMOOTH",
"213 25 OFFCURVE",
"145 123 OFFCURVE",
"145 250 CURVE SMOOTH",
"145 377 OFFCURVE",
"213 485 OFFCURVE",
"314 485 CURVE SMOOTH",
"410 485 OFFCURVE",
"461 383 OFFCURVE",
"460 283 CURVE",
"509 362 LINE",
"501 423 OFFCURVE",
"431 515 OFFCURVE",
"300 515 CURVE SMOOTH"
);
}
);
width = 627;
},
{
associatedMasterId = "E103E4E6-9333-477C-9ADC-F52051F3C867";
layerId = "8E169918-2BDA-47B4-A650-6EBA9D9168E8";
paths = (
{
closed = 1;
nodes = (
"476 0 OFFCURVE",
"532 0 OFFCURVE",
"557 0 CURVE",
"562 5 LINE",
"552 120 OFFCURVE",
"548 273 OFFCURVE",
"548 353 CURVE SMOOTH",
"548 433 OFFCURVE",
"552 585 OFFCURVE",
"562 700 CURVE",
"557 705 LINE",
"532 700 OFFCURVE",
"476 700 OFFCURVE",
"451 705 CURVE",
"446 700 LINE",
"456 585 OFFCURVE",
"460 433 OFFCURVE",
"460 353 CURVE SMOOTH",
"460 273 OFFCURVE",
"456 120 OFFCURVE",
"446 5 CURVE",
"451 0 LINE"
);
},
{
closed = 1;
nodes = (
"147 515 OFFCURVE",
"45 409 OFFCURVE",
"45 250 CURVE SMOOTH",
"45 91 OFFCURVE",
"139 -15 OFFCURVE",
"280 -15 CURVE SMOOTH",
"400 -15 OFFCURVE",
"464 77 OFFCURVE",
"479 108 CURVE",
"481 162 LINE",
"462 117 OFFCURVE",
"410 25 OFFCURVE",
"314 25 CURVE SMOOTH",
"213 25 OFFCURVE",
"145 123 OFFCURVE",
"145 250 CURVE SMOOTH",
"145 377 OFFCURVE",
"213 485 OFFCURVE",
"314 485 CURVE SMOOTH",
"410 485 OFFCURVE",
"461 383 OFFCURVE",
"460 283 CURVE",
"509 362 LINE",
"501 423 OFFCURVE",
"431 515 OFFCURVE",
"300 515 CURVE SMOOTH"
);
}
);
width = 627;
},
{
layerId = "B6F795C8-F751-4DF7-955B-5EAABF4BC2BE";
width = 600;
},
{
layerId = "E103E4E6-9333-477C-9ADC-F52051F3C867";
width = 600;
}
);
leftKerningGroup = o;
leftMetricsKey = "=o";
rightKerningGroup = i;
rightMetricsKey = "=i";
unicode = 0064;
},
{
glyphname = e;
lastChange = "2020-08-01 17:43:07 +0000";
layers = (
{
anchors = (
{
name = bottom;
position = "{301, 0}";
},
{
name = ogonek;
position = "{541, 10}";
},
{
name = top;
position = "{301, 500}";
}
);
layerId = "AEA248FC-48D8-43C3-8E42-77E797A92BBC";
paths = (
{
closed = 1;
nodes = (
"398 -15 OFFCURVE",
"481 10 OFFCURVE",
"537 57 CURVE",
"542 72 LINE",
"518 91 OFFCURVE",
"491 122 OFFCURVE",
"481 148 CURVE",
"461 148 LINE",
"444 73 OFFCURVE",
"403 15 OFFCURVE",
"311 15 CURVE SMOOTH",
"210 15 OFFCURVE",
"145 115 OFFCURVE",
"145 250 CURVE SMOOTH",
"145 385 OFFCURVE",
"210 485 OFFCURVE",
"311 485 CURVE SMOOTH",
"411 485 OFFCURVE",
"450 408 OFFCURVE",
"459 310 CURVE",
"105 310 LINE",
"105 250 LINE",
"522 250 LINE",
"528 273 OFFCURVE",
"541 294 OFFCURVE",
"556 311 CURVE",
"556 326 LINE",
"524 443 OFFCURVE",
"416 515 OFFCURVE",
"304 515 CURVE SMOOTH",
"159 515 OFFCURVE",
"45 409 OFFCURVE",
"45 250 CURVE SMOOTH",
"45 91 OFFCURVE",
"159 -15 OFFCURVE",
"304 -15 CURVE SMOOTH"
);
}
);
width = 601;
},
{
associatedMasterId = "E103E4E6-9333-477C-9ADC-F52051F3C867";
layerId = "8E169918-2BDA-47B4-A650-6EBA9D9168E8";
paths = (
{
closed = 1;
nodes = (
"398 -15 OFFCURVE",
"481 10 OFFCURVE",
"537 57 CURVE",
"542 72 LINE",
"518 91 OFFCURVE",
"491 122 OFFCURVE",
"481 148 CURVE",
"461 148 LINE",
"444 73 OFFCURVE",
"403 15 OFFCURVE",
"311 15 CURVE SMOOTH",
"210 15 OFFCURVE",
"145 115 OFFCURVE",
"145 250 CURVE SMOOTH",
"145 385 OFFCURVE",
"210 485 OFFCURVE",
"311 485 CURVE SMOOTH",
"411 485 OFFCURVE",
"450 408 OFFCURVE",
"459 310 CURVE",
"105 310 LINE",
"105 250 LINE",
"522 250 LINE",
"528 273 OFFCURVE",
"541 294 OFFCURVE",
"556 311 CURVE",
"556 326 LINE",
"524 443 OFFCURVE",
"416 515 OFFCURVE",
"304 515 CURVE SMOOTH",
"159 515 OFFCURVE",
"45 409 OFFCURVE",
"45 250 CURVE SMOOTH",
"45 91 OFFCURVE",
"159 -15 OFFCURVE",
"304 -15 CURVE SMOOTH"
);
}
);
width = 601;
},
{
layerId = "B6F795C8-F751-4DF7-955B-5EAABF4BC2BE";
paths = (
{
closed = 1;
nodes = (
"403 -18 OFFCURVE",
"486 10 OFFCURVE",
"542 57 CURVE",
"547 72 LINE",
"523 91 OFFCURVE",
"496 122 OFFCURVE",
"486 148 CURVE",
"466 148 LINE",
"443 86 OFFCURVE",
"408 62 OFFCURVE",
"316 62 CURVE SMOOTH",
"215 62 OFFCURVE",
"170 125 OFFCURVE",
"170 250 CURVE SMOOTH",
"170 358 OFFCURVE",
"215 438 OFFCURVE",
"316 438 CURVE SMOOTH",
"416 438 OFFCURVE",
"455 368 OFFCURVE",
"464 310 CURVE",
"110 310 LINE",
"110 220 LINE",
"537 220 LINE",
"543 243 OFFCURVE",
"556 294 OFFCURVE",
"571 311 CURVE",
"571 326 LINE",
"539 443 OFFCURVE",
"421 518 OFFCURVE",
"309 518 CURVE SMOOTH",
"164 518 OFFCURVE",
"40 409 OFFCURVE",
"40 250 CURVE SMOOTH",
"40 91 OFFCURVE",
"164 -18 OFFCURVE",
"309 -18 CURVE SMOOTH"
);
}
);
width = 606;
},
{
layerId = "E103E4E6-9333-477C-9ADC-F52051F3C867";
paths = (
{
closed = 1;
nodes = (
"353 -12 OFFCURVE",
"415 35 OFFCURVE",
"465 82 CURVE",
"470 97 LINE",
"456 108 OFFCURVE",
"444 126 OFFCURVE",
"436 148 CURVE",
"416 148 LINE",
"399 73 OFFCURVE",
"358 18 OFFCURVE",
"266 18 CURVE SMOOTH",
"155 18 OFFCURVE",
"70 115 OFFCURVE",
"70 250 CURVE SMOOTH",
"70 385 OFFCURVE",
"165 482 OFFCURVE",
"266 482 CURVE SMOOTH",
"366 482 OFFCURVE",
"435 398 OFFCURVE",
"444 300 CURVE",
"50 300 LINE",
"50 270 LINE",
"467 270 LINE",
"476 286 OFFCURVE",
"488 299 OFFCURVE",
"501 311 CURVE",
"501 326 LINE",
"469 443 OFFCURVE",
"371 512 OFFCURVE",
"259 512 CURVE SMOOTH",
"114 512 OFFCURVE",
"30 409 OFFCURVE",
"30 250 CURVE SMOOTH",
"30 91 OFFCURVE",
"104 -12 OFFCURVE",
"259 -12 CURVE SMOOTH"
);
}
);
width = 531;
}
);
leftKerningGroup = o;
rightKerningGroup = e;
unicode = 0065;
},
{
glyphname = f;
lastChange = "2020-07-30 10:14:06 +0000";
layers = (
{
layerId = "AEA248FC-48D8-43C3-8E42-77E797A92BBC";
paths = (
{
closed = 1;
nodes = (
"309 479 LINE",
"309 487 LINE",
"208 479 OFFCURVE",
"117 527 OFFCURVE",
"117 616 CURVE SMOOTH",
"117 657 OFFCURVE",
"148 720 OFFCURVE",
"219 720 CURVE SMOOTH",
"292 720 OFFCURVE",
"302 650 OFFCURVE",
"303 589 CURVE",
"326 589 LINE",
"365 675 LINE",
"342 715 OFFCURVE",
"289 750 OFFCURVE",
"207 750 CURVE SMOOTH",
"105 750 OFFCURVE",
"37 688 OFFCURVE",
"37 616 CURVE SMOOTH",
"37 552 OFFCURVE",
"80 507 OFFCURVE",
"153 479 CURVE"
);
},
{
closed = 1;
nodes = (
"123 499 LINE",
"123 366 LINE SMOOTH",
"123 179 OFFCURVE",
"123 62 OFFCURVE",
"109 5 CURVE",
"114 0 LINE",
"225 0 LINE",
"230 5 LINE",
"216 62 OFFCURVE",
"216 179 OFFCURVE",
"216 366 CURVE SMOOTH",
"216 420 OFFCURVE",
"216 485 OFFCURVE",
"216 499 CURVE"
);
},
{
closed = 1;
nodes = (
"191 500 LINE",
"133 500 OFFCURVE",
"92 500 OFFCURVE",
"29 502 CURVE",
"20 497 LINE",
"20 473 LINE",
"29 468 LINE",
"92 470 OFFCURVE",
"131 470 OFFCURVE",
"191 470 CURVE"
);
},
{
closed = 1;
nodes = (
"256 470 OFFCURVE",
"284 470 OFFCURVE",
"355 468 CURVE",
"364 473 LINE",
"364 497 LINE",
"355 502 LINE",
"286 500 OFFCURVE",
"255 500 OFFCURVE",
"191 500 CURVE",
"191 470 LINE"
);
}
);
width = 390;
},
{
layerId = "B6F795C8-F751-4DF7-955B-5EAABF4BC2BE";
width = 600;
},
{
associatedMasterId = "E103E4E6-9333-477C-9ADC-F52051F3C867";
layerId = "8E169918-2BDA-47B4-A650-6EBA9D9168E8";
paths = (
{
closed = 1;
nodes = (
"309 479 LINE",
"309 487 LINE",
"208 479 OFFCURVE",
"117 527 OFFCURVE",
"117 616 CURVE SMOOTH",
"117 657 OFFCURVE",
"148 720 OFFCURVE",
"219 720 CURVE SMOOTH",
"292 720 OFFCURVE",
"302 650 OFFCURVE",
"303 589 CURVE",
"326 589 LINE",
"365 675 LINE",
"342 715 OFFCURVE",
"289 750 OFFCURVE",
"207 750 CURVE SMOOTH",
"105 750 OFFCURVE",
"37 688 OFFCURVE",
"37 616 CURVE SMOOTH",
"37 552 OFFCURVE",
"80 507 OFFCURVE",
"153 479 CURVE"
);
},
{
closed = 1;
nodes = (
"123 499 LINE",
"123 366 LINE SMOOTH",
"123 179 OFFCURVE",
"123 62 OFFCURVE",
"109 5 CURVE",
"114 0 LINE",
"225 0 LINE",
"230 5 LINE",
"216 62 OFFCURVE",
"216 179 OFFCURVE",
"216 366 CURVE SMOOTH",
"216 420 OFFCURVE",
"216 485 OFFCURVE",
"216 499 CURVE"
);
},
{
closed = 1;
nodes = (
"191 500 LINE",
"133 500 OFFCURVE",
"92 500 OFFCURVE",
"29 502 CURVE",
"20 497 LINE",
"20 473 LINE",
"29 468 LINE",
"92 470 OFFCURVE",
"131 470 OFFCURVE",
"191 470 CURVE"
);
},
{
closed = 1;
nodes = (
"256 470 OFFCURVE",
"284 470 OFFCURVE",
"355 468 CURVE",
"364 473 LINE",
"364 497 LINE",
"355 502 LINE",
"286 500 OFFCURVE",
"255 500 OFFCURVE",
"191 500 CURVE",
"191 470 LINE"
);
}
);
width = 390;
},
{
layerId = "E103E4E6-9333-477C-9ADC-F52051F3C867";
width = 600;
}
);
leftKerningGroup = f;
rightKerningGroup = f;
unicode = 0066;
},
{
glyphname = g;
lastChange = "2020-08-01 17:43:23 +0000";
layers = (
{
layerId = "AEA248FC-48D8-43C3-8E42-77E797A92BBC";
paths = (
{
closed = 1;
nodes = (
"382 448 LINE",
"386 453 OFFCURVE",
"366 477 OFFCURVE",
"371 482 CURVE",
"459 561 LINE",
"459 576 LINE",
"436 596 OFFCURVE",
"417 621 OFFCURVE",
"404 649 CURVE",
"389 644 LINE",
"319 493 LINE"
);
},
{
closed = 1;
nodes = (
"364 111 OFFCURVE",
"494 184 OFFCURVE",
"494 313 CURVE SMOOTH",
"494 451 OFFCURVE",
"364 515 OFFCURVE",
"263 515 CURVE SMOOTH",
"161 515 OFFCURVE",
"30 451 OFFCURVE",
"30 313 CURVE SMOOTH",
"30 184 OFFCURVE",
"161 111 OFFCURVE",
"263 111 CURVE SMOOTH"
);
},
{
closed = 1;
nodes = (
"180 141 OFFCURVE",
"131 216 OFFCURVE",
"131 313 CURVE SMOOTH",
"131 410 OFFCURVE",
"180 485 OFFCURVE",
"263 485 CURVE SMOOTH",
"345 485 OFFCURVE",
"394 410 OFFCURVE",
"394 313 CURVE SMOOTH",
"394 216 OFFCURVE",
"345 141 OFFCURVE",
"263 141 CURVE SMOOTH"
);
},
{
closed = 1;
nodes = (
"133 164 LINE",
"81 69 LINE",
"83 62 OFFCURVE",
"84 55 OFFCURVE",
"84 48 CURVE SMOOTH",
"84 41 OFFCURVE",
"83 33 OFFCURVE",
"81 25 CURVE",
"101 31 OFFCURVE",
"129 35 OFFCURVE",
"159 35 CURVE SMOOTH",
"253 35 OFFCURVE",
"394 8 OFFCURVE",
"394 -102 CURVE SMOOTH",
"394 -147 OFFCURVE",
"343 -210 OFFCURVE",
"269 -210 CURVE SMOOTH",
"135 -210 OFFCURVE",
"106 -100 OFFCURVE",
"163 -51 CURVE",
"158 -36 LINE",
"124 -28 OFFCURVE",
"96 -14 OFFCURVE",
"75 4 CURVE",
"60 -1 LINE",
"54 -16 OFFCURVE",
"50 -45 OFFCURVE",
"50 -68 CURVE SMOOTH",
"50 -173 OFFCURVE",
"143 -240 OFFCURVE",
"270 -240 CURVE SMOOTH",
"428 -240 OFFCURVE",
"494 -156 OFFCURVE",
"494 -91 CURVE SMOOTH",
"494 24 OFFCURVE",
"363 82 OFFCURVE",
"201 82 CURVE SMOOTH",
"169 82 OFFCURVE",
"131 75 OFFCURVE",
"95 62 CURVE",
"106 50 LINE",
"197 133 LINE"
);
}
);
width = 524;
},
{
associatedMasterId = "AEA248FC-48D8-43C3-8E42-77E797A92BBC";
layerId = "6FDC2904-D6BF-458E-B9B9-821C2E187D41";
name = "Jul 14 20, 13:24";
paths = (
{
closed = 1;
nodes = (
"421 439 LINE",
"426 444 OFFCURVE",
"431 447 OFFCURVE",
"436 452 CURVE",
"437 464 OFFCURVE",
"427 473 OFFCURVE",
"427 484 CURVE SMOOTH",
"427 489 OFFCURVE",
"429 494 OFFCURVE",
"434 499 CURVE SMOOTH",
"442 507 OFFCURVE",
"492 536 OFFCURVE",
"508 545 CURVE",
"509 560 LINE",
"488 582 OFFCURVE",
"471 608 OFFCURVE",
"461 637 CURVE",
"445 634 LINE",
"362 489 LINE"
);
},
{
closed = 1;
nodes = (
"402 111 OFFCURVE",
"532 184 OFFCURVE",
"532 313 CURVE SMOOTH",
"532 451 OFFCURVE",
"402 515 OFFCURVE",
"301 515 CURVE SMOOTH",
"199 515 OFFCURVE",
"68 451 OFFCURVE",
"68 313 CURVE SMOOTH",
"68 184 OFFCURVE",
"199 111 OFFCURVE",
"301 111 CURVE SMOOTH"
);
},
{
closed = 1;
nodes = (
"218 148 OFFCURVE",
"169 193 OFFCURVE",
"169 313 CURVE SMOOTH",
"169 432 OFFCURVE",
"218 478 OFFCURVE",
"301 478 CURVE SMOOTH",
"383 478 OFFCURVE",
"432 432 OFFCURVE",
"432 313 CURVE SMOOTH",
"432 193 OFFCURVE",
"383 148 OFFCURVE",
"301 148 CURVE SMOOTH"
);
},
{
closed = 1;
nodes = (
"171 164 LINE",
"119 69 LINE",
"121 62 OFFCURVE",
"122 55 OFFCURVE",
"122 48 CURVE SMOOTH",
"122 41 OFFCURVE",
"121 33 OFFCURVE",
"119 25 CURVE",
"139 31 OFFCURVE",
"167 35 OFFCURVE",
"197 35 CURVE SMOOTH",
"291 35 OFFCURVE",
"432 8 OFFCURVE",
"432 -102 CURVE SMOOTH",
"432 -147 OFFCURVE",
"381 -201 OFFCURVE",
"307 -201 CURVE SMOOTH",
"173 -201 OFFCURVE",
"144 -100 OFFCURVE",
"201 -51 CURVE",
"196 -36 LINE",
"162 -28 OFFCURVE",
"134 -14 OFFCURVE",
"113 4 CURVE",
"98 -1 LINE",
"92 -16 OFFCURVE",
"88 -45 OFFCURVE",
"88 -68 CURVE SMOOTH",
"88 -173 OFFCURVE",
"181 -240 OFFCURVE",
"308 -240 CURVE SMOOTH",
"466 -240 OFFCURVE",
"532 -156 OFFCURVE",
"532 -91 CURVE SMOOTH",
"532 24 OFFCURVE",
"401 82 OFFCURVE",
"239 82 CURVE SMOOTH",
"216 82 OFFCURVE",
"194 81 OFFCURVE",
"163 73 CURVE",
"235 133 LINE"
);
}
);
width = 562;
},
{
layerId = "B6F795C8-F751-4DF7-955B-5EAABF4BC2BE";
width = 600;
},
{
associatedMasterId = "E103E4E6-9333-477C-9ADC-F52051F3C867";
layerId = "8E169918-2BDA-47B4-A650-6EBA9D9168E8";
paths = (
{
closed = 1;
nodes = (
"382 448 LINE",
"386 453 OFFCURVE",
"366 477 OFFCURVE",
"371 482 CURVE",
"459 561 LINE",
"459 576 LINE",
"436 596 OFFCURVE",
"417 621 OFFCURVE",
"404 649 CURVE",
"389 644 LINE",
"319 493 LINE"
);
},
{
closed = 1;
nodes = (
"364 111 OFFCURVE",
"494 184 OFFCURVE",
"494 313 CURVE SMOOTH",
"494 451 OFFCURVE",
"364 515 OFFCURVE",
"263 515 CURVE SMOOTH",
"161 515 OFFCURVE",
"30 451 OFFCURVE",
"30 313 CURVE SMOOTH",
"30 184 OFFCURVE",
"161 111 OFFCURVE",
"263 111 CURVE SMOOTH"
);
},
{
closed = 1;
nodes = (
"180 141 OFFCURVE",
"131 216 OFFCURVE",
"131 313 CURVE SMOOTH",
"131 410 OFFCURVE",
"180 485 OFFCURVE",
"263 485 CURVE SMOOTH",
"345 485 OFFCURVE",
"394 410 OFFCURVE",
"394 313 CURVE SMOOTH",
"394 216 OFFCURVE",
"345 141 OFFCURVE",
"263 141 CURVE SMOOTH"
);
},
{
closed = 1;
nodes = (
"133 164 LINE",
"81 69 LINE",
"83 62 OFFCURVE",
"84 55 OFFCURVE",
"84 48 CURVE SMOOTH",
"84 41 OFFCURVE",
"83 33 OFFCURVE",
"81 25 CURVE",
"101 31 OFFCURVE",
"129 35 OFFCURVE",
"159 35 CURVE SMOOTH",
"253 35 OFFCURVE",
"394 8 OFFCURVE",
"394 -102 CURVE SMOOTH",
"394 -147 OFFCURVE",
"343 -210 OFFCURVE",
"269 -210 CURVE SMOOTH",
"135 -210 OFFCURVE",
"106 -100 OFFCURVE",
"163 -51 CURVE",
"158 -36 LINE",
"124 -28 OFFCURVE",
"96 -14 OFFCURVE",
"75 4 CURVE",
"60 -1 LINE",
"54 -16 OFFCURVE",
"50 -45 OFFCURVE",
"50 -68 CURVE SMOOTH",
"50 -173 OFFCURVE",
"143 -240 OFFCURVE",
"270 -240 CURVE SMOOTH",
"428 -240 OFFCURVE",
"494 -156 OFFCURVE",
"494 -91 CURVE SMOOTH",
"494 24 OFFCURVE",
"363 82 OFFCURVE",
"201 82 CURVE SMOOTH",
"169 82 OFFCURVE",
"131 75 OFFCURVE",
"95 62 CURVE",
"106 50 LINE",
"197 133 LINE"
);
}
);
width = 524;
},
{
associatedMasterId = "E103E4E6-9333-477C-9ADC-F52051F3C867";
layerId = "E8F91779-E667-440F-9F5C-86CC17CEBC23";
name = "Jul 14 20, 13:24";
paths = (
{
closed = 1;
nodes = (
"421 439 LINE",
"426 444 OFFCURVE",
"431 447 OFFCURVE",
"436 452 CURVE",
"437 464 OFFCURVE",
"427 473 OFFCURVE",
"427 484 CURVE SMOOTH",
"427 489 OFFCURVE",
"429 494 OFFCURVE",
"434 499 CURVE SMOOTH",
"442 507 OFFCURVE",
"492 536 OFFCURVE",
"508 545 CURVE",
"509 560 LINE",
"488 582 OFFCURVE",
"471 608 OFFCURVE",
"461 637 CURVE",
"445 634 LINE",
"362 489 LINE"
);
},
{
closed = 1;
nodes = (
"402 111 OFFCURVE",
"532 184 OFFCURVE",
"532 313 CURVE SMOOTH",
"532 451 OFFCURVE",
"402 515 OFFCURVE",
"301 515 CURVE SMOOTH",
"199 515 OFFCURVE",
"68 451 OFFCURVE",
"68 313 CURVE SMOOTH",
"68 184 OFFCURVE",
"199 111 OFFCURVE",
"301 111 CURVE SMOOTH"
);
},
{
closed = 1;
nodes = (
"218 148 OFFCURVE",
"169 193 OFFCURVE",
"169 313 CURVE SMOOTH",
"169 432 OFFCURVE",
"218 478 OFFCURVE",
"301 478 CURVE SMOOTH",
"383 478 OFFCURVE",
"432 432 OFFCURVE",
"432 313 CURVE SMOOTH",
"432 193 OFFCURVE",
"383 148 OFFCURVE",
"301 148 CURVE SMOOTH"
);
},
{
closed = 1;
nodes = (
"171 164 LINE",
"119 69 LINE",
"121 62 OFFCURVE",
"122 55 OFFCURVE",
"122 48 CURVE SMOOTH",
"122 41 OFFCURVE",
"121 33 OFFCURVE",
"119 25 CURVE",
"139 31 OFFCURVE",
"167 35 OFFCURVE",
"197 35 CURVE SMOOTH",
"291 35 OFFCURVE",
"432 8 OFFCURVE",
"432 -102 CURVE SMOOTH",
"432 -147 OFFCURVE",
"381 -201 OFFCURVE",
"307 -201 CURVE SMOOTH",
"173 -201 OFFCURVE",
"144 -100 OFFCURVE",
"201 -51 CURVE",
"196 -36 LINE",
"162 -28 OFFCURVE",
"134 -14 OFFCURVE",
"113 4 CURVE",
"98 -1 LINE",
"92 -16 OFFCURVE",
"88 -45 OFFCURVE",
"88 -68 CURVE SMOOTH",
"88 -173 OFFCURVE",
"181 -240 OFFCURVE",
"308 -240 CURVE SMOOTH",
"466 -240 OFFCURVE",
"532 -156 OFFCURVE",
"532 -91 CURVE SMOOTH",
"532 24 OFFCURVE",
"401 82 OFFCURVE",
"239 82 CURVE SMOOTH",
"216 82 OFFCURVE",
"194 81 OFFCURVE",
"163 73 CURVE",
"235 133 LINE"
);
}
);
width = 562;
},
{
layerId = "E103E4E6-9333-477C-9ADC-F52051F3C867";
width = 600;
}
);
leftKerningGroup = g;
rightKerningGroup = g;
unicode = 0067;
},
{
glyphname = h;
lastChange = "2020-07-31 11:44:01 +0000";
layers = (
{
layerId = "AEA248FC-48D8-43C3-8E42-77E797A92BBC";
paths = (
{
closed = 1;
nodes = (
"519 0 LINE",
"524 5 LINE",
"515 87 OFFCURVE",
"510 175 OFFCURVE",
"510 326 CURVE SMOOTH",
"510 493 OFFCURVE",
"393 513 OFFCURVE",
"324 513 CURVE SMOOTH",
"196 513 OFFCURVE",
"137 415 OFFCURVE",
"123 389 CURVE",
"121 335 LINE",
"138 373 OFFCURVE",
"190 472 OFFCURVE",
"285 473 CURVE SMOOTH",
"384 474 OFFCURVE",
"422 389 OFFCURVE",
"422 296 CURVE SMOOTH",
"422 176 OFFCURVE",
"417 86 OFFCURVE",
"408 5 CURVE",
"413 0 LINE"
);
},
{
closed = 1;
nodes = (
"151 0 LINE",
"156 5 LINE",
"147 87 OFFCURVE",
"142 272 OFFCURVE",
"142 353 CURVE SMOOTH",
"142 429 OFFCURVE",
"147 624 OFFCURVE",
"156 700 CURVE",
"151 705 LINE",
"126 700 OFFCURVE",
"70 700 OFFCURVE",
"45 705 CURVE",
"40 700 LINE",
"49 623 OFFCURVE",
"54 430 OFFCURVE",
"54 353 CURVE SMOOTH",
"54 273 OFFCURVE",
"49 86 OFFCURVE",
"40 5 CURVE",
"45 0 LINE"
);
}
);
width = 559;
},
{
associatedMasterId = "E103E4E6-9333-477C-9ADC-F52051F3C867";
layerId = "8E169918-2BDA-47B4-A650-6EBA9D9168E8";
paths = (
{
closed = 1;
nodes = (
"519 0 LINE",
"524 5 LINE",
"515 87 OFFCURVE",
"510 175 OFFCURVE",
"510 326 CURVE SMOOTH",
"510 493 OFFCURVE",
"393 513 OFFCURVE",
"324 513 CURVE SMOOTH",
"196 513 OFFCURVE",
"137 415 OFFCURVE",
"123 389 CURVE",
"121 335 LINE",
"138 373 OFFCURVE",
"190 472 OFFCURVE",
"285 473 CURVE SMOOTH",
"384 474 OFFCURVE",
"422 389 OFFCURVE",
"422 296 CURVE SMOOTH",
"422 176 OFFCURVE",
"417 86 OFFCURVE",
"408 5 CURVE",
"413 0 LINE"
);
},
{
closed = 1;
nodes = (
"151 0 LINE",
"156 5 LINE",
"147 87 OFFCURVE",
"142 272 OFFCURVE",
"142 353 CURVE SMOOTH",
"142 429 OFFCURVE",
"147 624 OFFCURVE",
"156 700 CURVE",
"151 705 LINE",
"126 700 OFFCURVE",
"70 700 OFFCURVE",
"45 705 CURVE",
"40 700 LINE",
"49 623 OFFCURVE",
"54 430 OFFCURVE",
"54 353 CURVE SMOOTH",
"54 273 OFFCURVE",
"49 86 OFFCURVE",
"40 5 CURVE",
"45 0 LINE"
);
}
);
width = 559;
},
{
layerId = "B6F795C8-F751-4DF7-955B-5EAABF4BC2BE";
paths = (
{
closed = 1;
nodes = (
"539 0 LINE",
"544 5 LINE",
"535 87 OFFCURVE",
"530 175 OFFCURVE",
"530 326 CURVE SMOOTH",
"530 493 OFFCURVE",
"373 518 OFFCURVE",
"324 518 CURVE SMOOTH",
"196 518 OFFCURVE",
"137 445 OFFCURVE",
"123 419 CURVE",
"121 335 LINE",
"138 373 OFFCURVE",
"190 437 OFFCURVE",
"285 438 CURVE SMOOTH",
"364 439 OFFCURVE",
"412 389 OFFCURVE",
"412 296 CURVE SMOOTH",
"412 176 OFFCURVE",
"407 86 OFFCURVE",
"398 5 CURVE",
"403 0 LINE"
);
},
{
closed = 1;
nodes = (
"151 0 LINE",
"156 5 LINE",
"147 87 OFFCURVE",
"142 272 OFFCURVE",
"142 353 CURVE SMOOTH",
"142 429 OFFCURVE",
"147 624 OFFCURVE",
"156 700 CURVE",
"151 705 LINE",
"126 700 OFFCURVE",
"30 700 OFFCURVE",
"5 705 CURVE",
"0 700 LINE",
"9 623 OFFCURVE",
"14 430 OFFCURVE",
"14 353 CURVE SMOOTH",
"14 273 OFFCURVE",
"9 86 OFFCURVE",
"0 5 CURVE",
"5 0 LINE"
);
}
);
width = 544;
},
{
layerId = "E103E4E6-9333-477C-9ADC-F52051F3C867";
paths = (
{
closed = 1;
nodes = (
"465 0 LINE",
"470 5 LINE",
"461 87 OFFCURVE",
"456 175 OFFCURVE",
"456 326 CURVE SMOOTH",
"456 493 OFFCURVE",
"338 513 OFFCURVE",
"269 513 CURVE SMOOTH",
"141 513 OFFCURVE",
"82 415 OFFCURVE",
"68 389 CURVE",
"66 335 LINE",
"83 373 OFFCURVE",
"135 472 OFFCURVE",
"250 473 CURVE SMOOTH",
"408 474 OFFCURVE",
"413 389 OFFCURVE",
"413 296 CURVE SMOOTH",
"413 176 OFFCURVE",
"408 86 OFFCURVE",
"399 5 CURVE",
"404 0 LINE"
);
},
{
closed = 1;
nodes = (
"96 0 LINE",
"101 5 LINE",
"92 87 OFFCURVE",
"87 272 OFFCURVE",
"87 353 CURVE SMOOTH",
"87 429 OFFCURVE",
"90 624 OFFCURVE",
"101 700 CURVE",
"96 705 LINE",
"71 700 OFFCURVE",
"60 700 OFFCURVE",
"35 705 CURVE",
"30 700 LINE",
"39 623 OFFCURVE",
"44 430 OFFCURVE",
"44 353 CURVE SMOOTH",
"44 273 OFFCURVE",
"39 86 OFFCURVE",
"30 5 CURVE",
"35 0 LINE"
);
}
);
width = 500;
}
);
leftKerningGroup = h;
rightKerningGroup = n;
unicode = 0068;
},
{
glyphname = i;
lastChange = "2020-08-01 17:24:34 +0000";
layers = (
{
anchors = (
{
name = bottom;
position = "{126, 0}";
}
);
layerId = "AEA248FC-48D8-43C3-8E42-77E797A92BBC";
paths = (
{
closed = 1;
nodes = (
"182 582 LINE",
"187 592 LINE",
"185 608 OFFCURVE",
"183 625 OFFCURVE",
"183 641 CURVE SMOOTH",
"183 657 OFFCURVE",
"185 674 OFFCURVE",
"187 690 CURVE",
"182 700 LINE",
"170 700 OFFCURVE",
"148 700 OFFCURVE",
"126 700 CURVE SMOOTH",
"70 700 LINE",
"65 690 LINE",
"67 674 OFFCURVE",
"69 657 OFFCURVE",
"69 641 CURVE SMOOTH",
"69 625 OFFCURVE",
"67 608 OFFCURVE",
"65 592 CURVE",
"70 582 LINE"
);
},
{
closed = 1;
nodes = (
"98 0 OFFCURVE",
"154 0 OFFCURVE",
"179 0 CURVE",
"184 5 LINE",
"175 87 OFFCURVE",
"170 175 OFFCURVE",
"170 256 CURVE SMOOTH",
"170 332 OFFCURVE",
"175 424 OFFCURVE",
"184 500 CURVE",
"179 505 LINE",
"154 500 OFFCURVE",
"98 500 OFFCURVE",
"73 505 CURVE",
"68 500 LINE",
"77 423 OFFCURVE",
"82 333 OFFCURVE",
"82 256 CURVE SMOOTH",
"82 176 OFFCURVE",
"77 86 OFFCURVE",
"68 5 CURVE",
"73 0 LINE"
);
}
);
width = 252;
},
{
associatedMasterId = "E103E4E6-9333-477C-9ADC-F52051F3C867";
layerId = "8E169918-2BDA-47B4-A650-6EBA9D9168E8";
paths = (
{
closed = 1;
nodes = (
"182 582 LINE",
"187 592 LINE",
"185 608 OFFCURVE",
"183 625 OFFCURVE",
"183 641 CURVE SMOOTH",
"183 657 OFFCURVE",
"185 674 OFFCURVE",
"187 690 CURVE",
"182 700 LINE",
"170 700 OFFCURVE",
"148 700 OFFCURVE",
"126 700 CURVE SMOOTH",
"70 700 LINE",
"65 690 LINE",
"67 674 OFFCURVE",
"69 657 OFFCURVE",
"69 641 CURVE SMOOTH",
"69 625 OFFCURVE",
"67 608 OFFCURVE",
"65 592 CURVE",
"70 582 LINE"
);
},
{
closed = 1;
nodes = (
"98 0 OFFCURVE",
"154 0 OFFCURVE",
"179 0 CURVE",
"184 5 LINE",
"175 87 OFFCURVE",
"170 175 OFFCURVE",
"170 256 CURVE SMOOTH",
"170 332 OFFCURVE",
"175 424 OFFCURVE",
"184 500 CURVE",
"179 505 LINE",
"154 500 OFFCURVE",
"98 500 OFFCURVE",
"73 505 CURVE",
"68 500 LINE",
"77 423 OFFCURVE",
"82 333 OFFCURVE",
"82 256 CURVE SMOOTH",
"82 176 OFFCURVE",
"77 86 OFFCURVE",
"68 5 CURVE",
"73 0 LINE"
);
}
);
width = 252;
},
{
layerId = "B6F795C8-F751-4DF7-955B-5EAABF4BC2BE";
width = 600;
},
{
associatedMasterId = "E103E4E6-9333-477C-9ADC-F52051F3C867";
layerId = "8A9AEA52-9A2C-4B8E-9A91-68DE6B45B7B1";
width = 600;
},
{
layerId = "E103E4E6-9333-477C-9ADC-F52051F3C867";
width = 600;
}
);
leftKerningGroup = i;
rightKerningGroup = i;
unicode = 0069;
},
{
glyphname = iacute;
lastChange = "2020-08-01 08:54:31 +0000";
layers = (
{
layerId = "E103E4E6-9333-477C-9ADC-F52051F3C867";
width = 600;
},
{
components = (
{
name = grave;
transform = "{1, 0, 0, 1, -259, 0}";
}
);
layerId = "AEA248FC-48D8-43C3-8E42-77E797A92BBC";
paths = (
{
closed = 1;
nodes = (
"98 0 OFFCURVE",
"154 0 OFFCURVE",
"179 0 CURVE",
"184 5 LINE",
"175 87 OFFCURVE",
"170 175 OFFCURVE",
"170 256 CURVE SMOOTH",
"170 332 OFFCURVE",
"175 424 OFFCURVE",
"184 500 CURVE",
"179 505 LINE",
"154 500 OFFCURVE",
"98 500 OFFCURVE",
"73 505 CURVE",
"68 500 LINE",
"77 423 OFFCURVE",
"82 333 OFFCURVE",
"82 256 CURVE SMOOTH",
"82 176 OFFCURVE",
"77 86 OFFCURVE",
"68 5 CURVE",
"73 0 LINE"
);
}
);
width = 252;
},
{
layerId = "B6F795C8-F751-4DF7-955B-5EAABF4BC2BE";
width = 600;
}
);
leftKerningGroup = i;
rightKerningGroup = i;
unicode = 00ED;
},
{
glyphname = igrave;
lastChange = "2020-08-01 08:54:33 +0000";
layers = (
{
layerId = "E103E4E6-9333-477C-9ADC-F52051F3C867";
width = 600;
},
{
layerId = "AEA248FC-48D8-43C3-8E42-77E797A92BBC";
paths = (
{
closed = 1;
nodes = (
"98 0 OFFCURVE",
"154 0 OFFCURVE",
"179 0 CURVE",
"184 5 LINE",
"175 87 OFFCURVE",
"170 175 OFFCURVE",
"170 256 CURVE SMOOTH",
"170 332 OFFCURVE",
"175 424 OFFCURVE",
"184 500 CURVE",
"179 505 LINE",
"154 500 OFFCURVE",
"98 500 OFFCURVE",
"73 505 CURVE",
"68 500 LINE",
"77 423 OFFCURVE",
"82 333 OFFCURVE",
"82 256 CURVE SMOOTH",
"82 176 OFFCURVE",
"77 86 OFFCURVE",
"68 5 CURVE",
"73 0 LINE"
);
},
{
closed = 1;
nodes = (
"138 580 LINE",
"141 581 LINE",
"281 718 LINE",
"276 730 LINE",
"253 727 OFFCURVE",
"231 727 OFFCURVE",
"208 730 CURVE",
"205 728 LINE",
"104 591 LINE",
"109 580 LINE"
);
}
);
width = 252;
},
{
layerId = "B6F795C8-F751-4DF7-955B-5EAABF4BC2BE";
width = 600;
}
);
leftKerningGroup = i;
rightKerningGroup = i;
unicode = 00EC;
},
{
glyphname = j;
lastChange = "2020-08-01 17:40:58 +0000";
layers = (
{
layerId = "AEA248FC-48D8-43C3-8E42-77E797A92BBC";
paths = (
{
closed = 1;
nodes = (
"204 582 LINE",
"209 592 LINE",
"207 608 OFFCURVE",
"205 625 OFFCURVE",
"205 641 CURVE SMOOTH",
"205 657 OFFCURVE",
"207 674 OFFCURVE",
"209 690 CURVE",
"204 700 LINE",
"192 700 OFFCURVE",
"170 700 OFFCURVE",
"148 700 CURVE SMOOTH",
"92 700 LINE",
"87 690 LINE",
"89 674 OFFCURVE",
"91 657 OFFCURVE",
"91 641 CURVE SMOOTH",
"91 625 OFFCURVE",
"89 608 OFFCURVE",
"87 592 CURVE",
"92 582 LINE"
);
},
{
closed = 1;
nodes = (
"192 -92 OFFCURVE",
"192 164 CURVE SMOOTH",
"192 216 OFFCURVE",
"197 447 OFFCURVE",
"206 500 CURVE",
"201 505 LINE",
"189 503 OFFCURVE",
"168 502 OFFCURVE",
"148 502 CURVE SMOOTH",
"128 502 OFFCURVE",
"108 503 OFFCURVE",
"95 505 CURVE",
"90 500 LINE",
"99 447 OFFCURVE",
"104 217 OFFCURVE",
"104 164 CURVE SMOOTH",
"104 -31 OFFCURVE",
"115 -149 OFFCURVE",
"49 -149 CURVE SMOOTH",
"6 -149 OFFCURVE",
"-12 -100 OFFCURVE",
"-21 -96 CURVE",
"-25 -102 LINE",
"-25 -155 LINE",
"-20 -159 LINE",
"-11 -163 OFFCURVE",
"21 -179 OFFCURVE",
"74 -179 CURVE SMOOTH",
"202 -179 OFFCURVE"
);
}
);
width = 274;
},
{
associatedMasterId = "E103E4E6-9333-477C-9ADC-F52051F3C867";
layerId = "8E169918-2BDA-47B4-A650-6EBA9D9168E8";
paths = (
{
closed = 1;
nodes = (
"204 582 LINE",
"209 592 LINE",
"207 608 OFFCURVE",
"205 625 OFFCURVE",
"205 641 CURVE SMOOTH",
"205 657 OFFCURVE",
"207 674 OFFCURVE",
"209 690 CURVE",
"204 700 LINE",
"192 700 OFFCURVE",
"170 700 OFFCURVE",
"148 700 CURVE SMOOTH",
"92 700 LINE",
"87 690 LINE",
"89 674 OFFCURVE",
"91 657 OFFCURVE",
"91 641 CURVE SMOOTH",
"91 625 OFFCURVE",
"89 608 OFFCURVE",
"87 592 CURVE",
"92 582 LINE"
);
},
{
closed = 1;
nodes = (
"192 -92 OFFCURVE",
"192 164 CURVE SMOOTH",
"192 216 OFFCURVE",
"197 447 OFFCURVE",
"206 500 CURVE",
"201 505 LINE",
"189 503 OFFCURVE",
"168 502 OFFCURVE",
"148 502 CURVE SMOOTH",
"128 502 OFFCURVE",
"108 503 OFFCURVE",
"95 505 CURVE",
"90 500 LINE",
"99 447 OFFCURVE",
"104 217 OFFCURVE",
"104 164 CURVE SMOOTH",
"104 -31 OFFCURVE",
"115 -149 OFFCURVE",
"49 -149 CURVE SMOOTH",
"6 -149 OFFCURVE",
"-12 -100 OFFCURVE",
"-21 -96 CURVE",
"-25 -102 LINE",
"-25 -155 LINE",
"-20 -159 LINE",
"-11 -163 OFFCURVE",
"21 -179 OFFCURVE",
"74 -179 CURVE SMOOTH",
"202 -179 OFFCURVE"
);
}
);
width = 274;
},
{
layerId = "B6F795C8-F751-4DF7-955B-5EAABF4BC2BE";
width = 600;
},
{
associatedMasterId = "E103E4E6-9333-477C-9ADC-F52051F3C867";
layerId = "8A9AEA52-9A2C-4B8E-9A91-68DE6B45B7B1";
width = 600;
},
{
layerId = "E103E4E6-9333-477C-9ADC-F52051F3C867";
width = 600;
}
);
leftKerningGroup = i;
rightKerningGroup = j;
rightMetricsKey = "=i";
unicode = 006A;
},
{
glyphname = k;
lastChange = "2020-08-01 17:44:06 +0000";
layers = (
{
layerId = "AEA248FC-48D8-43C3-8E42-77E797A92BBC";
paths = (
{
closed = 1;
nodes = (
"349 507 LINE",
"340 502 LINE",
"321 365 OFFCURVE",
"230 321 OFFCURVE",
"133 286 CURVE",
"133 256 LINE",
"233 291 OFFCURVE",
"392 323 OFFCURVE",
"428 502 CURVE",
"421 507 LINE"
);
},
{
closed = 1;
nodes = (
"213 310 LINE",
"425 230 OFFCURVE",
"369 126 OFFCURVE",
"374 5 CURVE",
"379 0 LINE",
"479 0 LINE",
"485 5 LINE",
"485 126 OFFCURVE",
"483 249 OFFCURVE",
"263 331 CURVE"
);
},
{
closed = 1;
nodes = (
"151 0 LINE",
"156 5 LINE",
"147 87 OFFCURVE",
"142 272 OFFCURVE",
"142 353 CURVE SMOOTH",
"142 429 OFFCURVE",
"147 624 OFFCURVE",
"156 700 CURVE",
"151 705 LINE",
"126 700 OFFCURVE",
"70 700 OFFCURVE",
"45 705 CURVE",
"40 700 LINE",
"49 623 OFFCURVE",
"54 430 OFFCURVE",
"54 353 CURVE SMOOTH",
"54 273 OFFCURVE",
"49 86 OFFCURVE",
"40 5 CURVE",
"45 0 LINE"
);
}
);
width = 515;
},
{
associatedMasterId = "E103E4E6-9333-477C-9ADC-F52051F3C867";
layerId = "8E169918-2BDA-47B4-A650-6EBA9D9168E8";
paths = (
{
closed = 1;
nodes = (
"349 507 LINE",
"340 502 LINE",
"321 365 OFFCURVE",
"230 321 OFFCURVE",
"133 286 CURVE",
"133 256 LINE",
"233 291 OFFCURVE",
"392 323 OFFCURVE",
"428 502 CURVE",
"421 507 LINE"
);
},
{
closed = 1;
nodes = (
"213 310 LINE",
"425 230 OFFCURVE",
"369 126 OFFCURVE",
"374 5 CURVE",
"379 0 LINE",
"479 0 LINE",
"485 5 LINE",
"485 126 OFFCURVE",
"483 249 OFFCURVE",
"263 331 CURVE"
);
},
{
closed = 1;
nodes = (
"151 0 LINE",
"156 5 LINE",
"147 87 OFFCURVE",
"142 272 OFFCURVE",
"142 353 CURVE SMOOTH",
"142 429 OFFCURVE",
"147 624 OFFCURVE",
"156 700 CURVE",
"151 705 LINE",
"126 700 OFFCURVE",
"70 700 OFFCURVE",
"45 705 CURVE",
"40 700 LINE",
"49 623 OFFCURVE",
"54 430 OFFCURVE",
"54 353 CURVE SMOOTH",
"54 273 OFFCURVE",
"49 86 OFFCURVE",
"40 5 CURVE",
"45 0 LINE"
);
}
);
width = 515;
},
{
layerId = "B6F795C8-F751-4DF7-955B-5EAABF4BC2BE";
width = 600;
},
{
layerId = "E103E4E6-9333-477C-9ADC-F52051F3C867";
width = 600;
}
);
leftKerningGroup = h;
leftMetricsKey = "=n";
rightKerningGroup = k;
unicode = 006B;
},
{
glyphname = l;
lastChange = "2020-08-01 17:44:28 +0000";
layers = (
{
layerId = "AEA248FC-48D8-43C3-8E42-77E797A92BBC";
paths = (
{
closed = 1;
nodes = (
"176 0 LINE",
"181 5 LINE",
"172 87 OFFCURVE",
"167 272 OFFCURVE",
"167 353 CURVE SMOOTH",
"167 429 OFFCURVE",
"172 624 OFFCURVE",
"181 700 CURVE",
"176 705 LINE",
"151 700 OFFCURVE",
"95 700 OFFCURVE",
"70 705 CURVE",
"65 700 LINE",
"74 623 OFFCURVE",
"79 430 OFFCURVE",
"79 353 CURVE SMOOTH",
"79 273 OFFCURVE",
"74 86 OFFCURVE",
"65 5 CURVE",
"70 0 LINE"
);
}
);
width = 246;
},
{
associatedMasterId = "E103E4E6-9333-477C-9ADC-F52051F3C867";
layerId = "8E169918-2BDA-47B4-A650-6EBA9D9168E8";
paths = (
{
closed = 1;
nodes = (
"176 0 LINE",
"181 5 LINE",
"172 87 OFFCURVE",
"167 272 OFFCURVE",
"167 353 CURVE SMOOTH",
"167 429 OFFCURVE",
"172 624 OFFCURVE",
"181 700 CURVE",
"176 705 LINE",
"151 700 OFFCURVE",
"95 700 OFFCURVE",
"70 705 CURVE",
"65 700 LINE",
"74 623 OFFCURVE",
"79 430 OFFCURVE",
"79 353 CURVE SMOOTH",
"79 273 OFFCURVE",
"74 86 OFFCURVE",
"65 5 CURVE",
"70 0 LINE"
);
}
);
width = 246;
},
{
layerId = "B6F795C8-F751-4DF7-955B-5EAABF4BC2BE";
paths = (
{
closed = 1;
nodes = (
"181 0 LINE",
"186 5 LINE",
"177 87 OFFCURVE",
"172 272 OFFCURVE",
"172 353 CURVE SMOOTH",
"172 429 OFFCURVE",
"177 624 OFFCURVE",
"186 700 CURVE",
"181 705 LINE",
"156 700 OFFCURVE",
"60 700 OFFCURVE",
"35 705 CURVE",
"30 700 LINE",
"39 623 OFFCURVE",
"44 430 OFFCURVE",
"44 353 CURVE SMOOTH",
"44 273 OFFCURVE",
"39 86 OFFCURVE",
"30 5 CURVE",
"35 0 LINE"
);
}
);
width = 216;
},
{
layerId = "E103E4E6-9333-477C-9ADC-F52051F3C867";
paths = (
{
closed = 1;
nodes = (
"116 0 LINE",
"121 5 LINE",
"112 87 OFFCURVE",
"107 272 OFFCURVE",
"107 353 CURVE SMOOTH",
"107 429 OFFCURVE",
"110 624 OFFCURVE",
"121 700 CURVE",
"116 705 LINE",
"91 700 OFFCURVE",
"80 700 OFFCURVE",
"55 705 CURVE",
"50 700 LINE",
"59 623 OFFCURVE",
"64 430 OFFCURVE",
"64 353 CURVE SMOOTH",
"64 273 OFFCURVE",
"59 86 OFFCURVE",
"50 5 CURVE",
"55 0 LINE"
);
}
);
width = 171;
}
);
leftKerningGroup = h;
rightKerningGroup = i;
unicode = 006C;
},
{
glyphname = m;
lastChange = "2020-08-01 17:15:21 +0000";
layers = (
{
layerId = "AEA248FC-48D8-43C3-8E42-77E797A92BBC";
paths = (
{
closed = 1;
nodes = (
"519 0 LINE",
"524 5 LINE",
"515 87 OFFCURVE",
"510 175 OFFCURVE",
"510 326 CURVE SMOOTH",
"510 493 OFFCURVE",
"401 515 OFFCURVE",
"322 515 CURVE SMOOTH",
"204 515 OFFCURVE",
"137 415 OFFCURVE",
"123 389 CURVE",
"121 325 LINE",
"138 363 OFFCURVE",
"198 474 OFFCURVE",
"283 475 CURVE SMOOTH",
"392 476 OFFCURVE",
"422 389 OFFCURVE",
"422 296 CURVE SMOOTH",
"422 176 OFFCURVE",
"417 86 OFFCURVE",
"408 5 CURVE",
"413 0 LINE"
);
},
{
closed = 1;
nodes = (
"151 0 LINE",
"156 5 LINE",
"147 87 OFFCURVE",
"142 175 OFFCURVE",
"142 256 CURVE SMOOTH",
"142 332 OFFCURVE",
"147 424 OFFCURVE",
"156 500 CURVE",
"151 505 LINE",
"126 500 OFFCURVE",
"70 500 OFFCURVE",
"45 505 CURVE",
"40 500 LINE",
"49 423 OFFCURVE",
"54 333 OFFCURVE",
"54 256 CURVE SMOOTH",
"54 176 OFFCURVE",
"49 86 OFFCURVE",
"40 5 CURVE",
"45 0 LINE"
);
},
{
closed = 1;
nodes = (
"877 0 LINE",
"882 5 LINE",
"873 87 OFFCURVE",
"868 175 OFFCURVE",
"868 326 CURVE SMOOTH",
"868 493 OFFCURVE",
"759 515 OFFCURVE",
"680 515 CURVE SMOOTH",
"562 515 OFFCURVE",
"495 415 OFFCURVE",
"481 389 CURVE",
"479 325 LINE",
"496 363 OFFCURVE",
"556 474 OFFCURVE",
"641 475 CURVE SMOOTH",
"750 476 OFFCURVE",
"780 389 OFFCURVE",
"780 296 CURVE SMOOTH",
"780 176 OFFCURVE",
"775 86 OFFCURVE",
"766 5 CURVE",
"771 0 LINE"
);
}
);
width = 917;
},
{
associatedMasterId = "E103E4E6-9333-477C-9ADC-F52051F3C867";
layerId = "8E169918-2BDA-47B4-A650-6EBA9D9168E8";
paths = (
{
closed = 1;
nodes = (
"519 0 LINE",
"524 5 LINE",
"515 87 OFFCURVE",
"510 175 OFFCURVE",
"510 326 CURVE SMOOTH",
"510 493 OFFCURVE",
"401 515 OFFCURVE",
"322 515 CURVE SMOOTH",
"204 515 OFFCURVE",
"137 415 OFFCURVE",
"123 389 CURVE",
"121 325 LINE",
"138 363 OFFCURVE",
"198 474 OFFCURVE",
"283 475 CURVE SMOOTH",
"392 476 OFFCURVE",
"422 389 OFFCURVE",
"422 296 CURVE SMOOTH",
"422 176 OFFCURVE",
"417 86 OFFCURVE",
"408 5 CURVE",
"413 0 LINE"
);
},
{
closed = 1;
nodes = (
"151 0 LINE",
"156 5 LINE",
"147 87 OFFCURVE",
"142 175 OFFCURVE",
"142 256 CURVE SMOOTH",
"142 332 OFFCURVE",
"147 424 OFFCURVE",
"156 500 CURVE",
"151 505 LINE",
"126 500 OFFCURVE",
"70 500 OFFCURVE",
"45 505 CURVE",
"40 500 LINE",
"49 423 OFFCURVE",
"54 333 OFFCURVE",
"54 256 CURVE SMOOTH",
"54 176 OFFCURVE",
"49 86 OFFCURVE",
"40 5 CURVE",
"45 0 LINE"
);
},
{
closed = 1;
nodes = (
"877 0 LINE",
"882 5 LINE",
"873 87 OFFCURVE",
"868 175 OFFCURVE",
"868 326 CURVE SMOOTH",
"868 493 OFFCURVE",
"759 515 OFFCURVE",
"680 515 CURVE SMOOTH",
"562 515 OFFCURVE",
"495 415 OFFCURVE",
"481 389 CURVE",
"479 325 LINE",
"496 363 OFFCURVE",
"556 474 OFFCURVE",
"641 475 CURVE SMOOTH",
"750 476 OFFCURVE",
"780 389 OFFCURVE",
"780 296 CURVE SMOOTH",
"780 176 OFFCURVE",
"775 86 OFFCURVE",
"766 5 CURVE",
"771 0 LINE"
);
}
);
width = 917;
},
{
layerId = "B6F795C8-F751-4DF7-955B-5EAABF4BC2BE";
width = 600;
},
{
layerId = "E103E4E6-9333-477C-9ADC-F52051F3C867";
width = 600;
}
);
leftKerningGroup = n;
leftMetricsKey = "=n";
rightKerningGroup = n;
rightMetricsKey = "=n";
unicode = 006D;
},
{
glyphname = n;
lastChange = "2020-08-01 17:16:11 +0000";
layers = (
{
layerId = "AEA248FC-48D8-43C3-8E42-77E797A92BBC";
paths = (
{
closed = 1;
nodes = (
"519 0 LINE",
"524 5 LINE",
"515 87 OFFCURVE",
"510 175 OFFCURVE",
"510 326 CURVE SMOOTH",
"510 493 OFFCURVE",
"398 515 OFFCURVE",
"329 515 CURVE SMOOTH",
"206 515 OFFCURVE",
"149 421 OFFCURVE",
"135 382 CURVE",
"139 295 LINE",
"145 396 OFFCURVE",
"211 475 OFFCURVE",
"290 475 CURVE SMOOTH",
"389 475 OFFCURVE",
"422 408 OFFCURVE",
"422 296 CURVE SMOOTH",
"422 176 OFFCURVE",
"417 86 OFFCURVE",
"408 5 CURVE",
"413 0 LINE"
);
},
{
closed = 1;
nodes = (
"151 0 LINE",
"156 5 LINE",
"147 87 OFFCURVE",
"142 175 OFFCURVE",
"142 256 CURVE SMOOTH",
"142 322 OFFCURVE",
"147 424 OFFCURVE",
"156 500 CURVE",
"151 505 LINE",
"126 500 OFFCURVE",
"70 500 OFFCURVE",
"45 505 CURVE",
"40 500 LINE",
"49 423 OFFCURVE",
"54 333 OFFCURVE",
"54 256 CURVE SMOOTH",
"54 176 OFFCURVE",
"49 86 OFFCURVE",
"40 5 CURVE",
"45 0 LINE"
);
}
);
width = 559;
},
{
layerId = "B6F795C8-F751-4DF7-955B-5EAABF4BC2BE";
width = 644;
},
{
associatedMasterId = "E103E4E6-9333-477C-9ADC-F52051F3C867";
layerId = "8E169918-2BDA-47B4-A650-6EBA9D9168E8";
paths = (
{
closed = 1;
nodes = (
"519 0 LINE",
"524 5 LINE",
"515 87 OFFCURVE",
"510 175 OFFCURVE",
"510 326 CURVE SMOOTH",
"510 493 OFFCURVE",
"398 515 OFFCURVE",
"329 515 CURVE SMOOTH",
"206 515 OFFCURVE",
"149 421 OFFCURVE",
"135 382 CURVE",
"139 295 LINE",
"145 396 OFFCURVE",
"211 475 OFFCURVE",
"290 475 CURVE SMOOTH",
"389 475 OFFCURVE",
"422 408 OFFCURVE",
"422 296 CURVE SMOOTH",
"422 176 OFFCURVE",
"417 86 OFFCURVE",
"408 5 CURVE",
"413 0 LINE"
);
},
{
closed = 1;
nodes = (
"151 0 LINE",
"156 5 LINE",
"147 87 OFFCURVE",
"142 175 OFFCURVE",
"142 256 CURVE SMOOTH",
"142 322 OFFCURVE",
"147 424 OFFCURVE",
"156 500 CURVE",
"151 505 LINE",
"126 500 OFFCURVE",
"70 500 OFFCURVE",
"45 505 CURVE",
"40 500 LINE",
"49 423 OFFCURVE",
"54 333 OFFCURVE",
"54 256 CURVE SMOOTH",
"54 176 OFFCURVE",
"49 86 OFFCURVE",
"40 5 CURVE",
"45 0 LINE"
);
}
);
width = 559;
},
{
layerId = "E103E4E6-9333-477C-9ADC-F52051F3C867";
width = 600;
}
);
leftKerningGroup = n;
rightKerningGroup = n;
unicode = 006E;
},
{
glyphname = o;
lastChange = "2020-08-01 17:38:44 +0000";
layers = (
{
anchors = (
{
name = bottom;
position = "{304, 0}";
},
{
name = center;
position = "{304, 250}";
},
{
name = ogonek;
position = "{546, 10}";
},
{
name = top;
position = "{304, 500}";
},
{
name = topright;
position = "{587, 500}";
}
);
layerId = "AEA248FC-48D8-43C3-8E42-77E797A92BBC";
paths = (
{
closed = 1;
nodes = (
"449 -15 OFFCURVE",
"562 91 OFFCURVE",
"562 250 CURVE SMOOTH",
"562 409 OFFCURVE",
"449 515 OFFCURVE",
"304 515 CURVE SMOOTH",
"159 515 OFFCURVE",
"45 409 OFFCURVE",
"45 250 CURVE SMOOTH",
"45 91 OFFCURVE",
"159 -15 OFFCURVE",
"304 -15 CURVE SMOOTH"
);
},
{
closed = 1;
nodes = (
"200 15 OFFCURVE",
"145 115 OFFCURVE",
"145 250 CURVE SMOOTH",
"145 385 OFFCURVE",
"200 485 OFFCURVE",
"304 485 CURVE SMOOTH",
"408 485 OFFCURVE",
"462 385 OFFCURVE",
"462 250 CURVE SMOOTH",
"462 115 OFFCURVE",
"408 15 OFFCURVE",
"304 15 CURVE SMOOTH"
);
}
);
width = 607;
},
{
layerId = "B6F795C8-F751-4DF7-955B-5EAABF4BC2BE";
paths = (
{
closed = 1;
nodes = (
"459 -15 OFFCURVE",
"562 91 OFFCURVE",
"562 250 CURVE SMOOTH",
"562 409 OFFCURVE",
"459 515 OFFCURVE",
"304 515 CURVE SMOOTH",
"149 515 OFFCURVE",
"45 409 OFFCURVE",
"45 250 CURVE SMOOTH",
"45 91 OFFCURVE",
"149 -15 OFFCURVE",
"304 -15 CURVE SMOOTH"
);
},
{
closed = 1;
nodes = (
"215 65 OFFCURVE",
"155 139 OFFCURVE",
"155 250 CURVE SMOOTH",
"155 361 OFFCURVE",
"215 435 OFFCURVE",
"304 435 CURVE SMOOTH",
"393 435 OFFCURVE",
"452 361 OFFCURVE",
"452 250 CURVE SMOOTH",
"452 139 OFFCURVE",
"393 65 OFFCURVE",
"304 65 CURVE SMOOTH"
);
}
);
width = 607;
},
{
associatedMasterId = "E103E4E6-9333-477C-9ADC-F52051F3C867";
layerId = "8E169918-2BDA-47B4-A650-6EBA9D9168E8";
paths = (
{
closed = 1;
nodes = (
"449 -15 OFFCURVE",
"562 91 OFFCURVE",
"562 250 CURVE SMOOTH",
"562 409 OFFCURVE",
"449 515 OFFCURVE",
"304 515 CURVE SMOOTH",
"159 515 OFFCURVE",
"45 409 OFFCURVE",
"45 250 CURVE SMOOTH",
"45 91 OFFCURVE",
"159 -15 OFFCURVE",
"304 -15 CURVE SMOOTH"
);
},
{
closed = 1;
nodes = (
"200 15 OFFCURVE",
"145 115 OFFCURVE",
"145 250 CURVE SMOOTH",
"145 385 OFFCURVE",
"200 485 OFFCURVE",
"304 485 CURVE SMOOTH",
"408 485 OFFCURVE",
"462 385 OFFCURVE",
"462 250 CURVE SMOOTH",
"462 115 OFFCURVE",
"408 15 OFFCURVE",
"304 15 CURVE SMOOTH"
);
}
);
width = 607;
},
{
layerId = "E103E4E6-9333-477C-9ADC-F52051F3C867";
width = 600;
}
);
leftKerningGroup = o;
rightKerningGroup = o;
unicode = 006F;
},
{
glyphname = p;
lastChange = "2020-08-01 17:22:45 +0000";
layers = (
{
layerId = "AEA248FC-48D8-43C3-8E42-77E797A92BBC";
paths = (
{
closed = 1;
nodes = (
"174 515 OFFCURVE",
"104 423 OFFCURVE",
"96 362 CURVE",
"143 283 LINE",
"143 383 OFFCURVE",
"196 485 OFFCURVE",
"291 485 CURVE SMOOTH",
"392 485 OFFCURVE",
"440 377 OFFCURVE",
"440 250 CURVE SMOOTH",
"440 133 OFFCURVE",
"382 25 OFFCURVE",
"291 25 CURVE SMOOTH",
"195 25 OFFCURVE",
"143 117 OFFCURVE",
"124 162 CURVE",
"126 98 LINE",
"143 81 OFFCURVE",
"205 -15 OFFCURVE",
"325 -15 CURVE SMOOTH",
"456 -15 OFFCURVE",
"540 101 OFFCURVE",
"540 250 CURVE SMOOTH",
"540 409 OFFCURVE",
"458 515 OFFCURVE",
"305 515 CURVE SMOOTH"
);
},
{
closed = 1;
nodes = (
"151 -225 LINE",
"156 -220 LINE",
"146 -105 OFFCURVE",
"145 7 OFFCURVE",
"138 77 CURVE",
"144 77 LINE",
"144 86 OFFCURVE",
"142 124 OFFCURVE",
"142 153 CURVE SMOOTH",
"142 224 OFFCURVE",
"145 351 OFFCURVE",
"153 460 CURVE",
"141 460 LINE",
"121 500 LINE",
"116 505 LINE",
"87 502 OFFCURVE",
"74 502 OFFCURVE",
"45 505 CURVE",
"40 500 LINE",
"50 385 OFFCURVE",
"54 233 OFFCURVE",
"54 153 CURVE SMOOTH",
"54 73 OFFCURVE",
"50 -105 OFFCURVE",
"40 -220 CURVE",
"45 -225 LINE"
);
}
);
width = 585;
},
{
associatedMasterId = "AEA248FC-48D8-43C3-8E42-77E797A92BBC";
layerId = "A94FFE48-8AAC-4D46-B29E-92FAA6FC57B9";
name = "Jul 13 20, 18:51";
paths = (
{
closed = 1;
nodes = (
"190 515 OFFCURVE",
"120 423 OFFCURVE",
"112 362 CURVE",
"159 283 LINE",
"159 383 OFFCURVE",
"212 445 OFFCURVE",
"307 445 CURVE SMOOTH",
"408 445 OFFCURVE",
"456 377 OFFCURVE",
"456 250 CURVE SMOOTH",
"456 133 OFFCURVE",
"398 55 OFFCURVE",
"307 55 CURVE SMOOTH",
"211 55 OFFCURVE",
"159 117 OFFCURVE",
"140 162 CURVE",
"142 98 LINE",
"159 81 OFFCURVE",
"221 -15 OFFCURVE",
"341 -15 CURVE SMOOTH",
"472 -15 OFFCURVE",
"556 101 OFFCURVE",
"556 250 CURVE SMOOTH",
"556 409 OFFCURVE",
"474 515 OFFCURVE",
"321 515 CURVE SMOOTH"
);
},
{
closed = 1;
nodes = (
"86 -201 OFFCURVE",
"142 -200 OFFCURVE",
"167 -200 CURVE",
"172 -195 LINE",
"166 -128 OFFCURVE",
"161 7 OFFCURVE",
"154 77 CURVE",
"160 77 LINE",
"160 86 OFFCURVE",
"158 124 OFFCURVE",
"158 153 CURVE SMOOTH",
"158 224 OFFCURVE",
"161 351 OFFCURVE",
"169 460 CURVE",
"157 460 LINE",
"137 500 LINE",
"132 505 LINE",
"101 501 OFFCURVE",
"90 502 OFFCURVE",
"61 505 CURVE",
"56 500 LINE",
"66 385 OFFCURVE",
"70 233 OFFCURVE",
"70 153 CURVE SMOOTH",
"70 73 OFFCURVE",
"66 -80 OFFCURVE",
"56 -195 CURVE",
"61 -200 LINE"
);
}
);
width = 600;
},
{
associatedMasterId = "E103E4E6-9333-477C-9ADC-F52051F3C867";
layerId = "8E169918-2BDA-47B4-A650-6EBA9D9168E8";
paths = (
{
closed = 1;
nodes = (
"174 515 OFFCURVE",
"104 423 OFFCURVE",
"96 362 CURVE",
"143 283 LINE",
"143 383 OFFCURVE",
"196 485 OFFCURVE",
"291 485 CURVE SMOOTH",
"392 485 OFFCURVE",
"440 377 OFFCURVE",
"440 250 CURVE SMOOTH",
"440 133 OFFCURVE",
"382 25 OFFCURVE",
"291 25 CURVE SMOOTH",
"195 25 OFFCURVE",
"143 117 OFFCURVE",
"124 162 CURVE",
"126 98 LINE",
"143 81 OFFCURVE",
"205 -15 OFFCURVE",
"325 -15 CURVE SMOOTH",
"456 -15 OFFCURVE",
"540 101 OFFCURVE",
"540 250 CURVE SMOOTH",
"540 409 OFFCURVE",
"458 515 OFFCURVE",
"305 515 CURVE SMOOTH"
);
},
{
closed = 1;
nodes = (
"151 -225 LINE",
"156 -220 LINE",
"146 -105 OFFCURVE",
"145 7 OFFCURVE",
"138 77 CURVE",
"144 77 LINE",
"144 86 OFFCURVE",
"142 124 OFFCURVE",
"142 153 CURVE SMOOTH",
"142 224 OFFCURVE",
"145 351 OFFCURVE",
"153 460 CURVE",
"141 460 LINE",
"121 500 LINE",
"116 505 LINE",
"87 502 OFFCURVE",
"74 502 OFFCURVE",
"45 505 CURVE",
"40 500 LINE",
"50 385 OFFCURVE",
"54 233 OFFCURVE",
"54 153 CURVE SMOOTH",
"54 73 OFFCURVE",
"50 -105 OFFCURVE",
"40 -220 CURVE",
"45 -225 LINE"
);
}
);
width = 585;
},
{
associatedMasterId = "E103E4E6-9333-477C-9ADC-F52051F3C867";
layerId = "17EB63D9-7F00-41E4-B772-2016ECEEB5C7";
name = "Jul 13 20, 18:51";
paths = (
{
closed = 1;
nodes = (
"190 515 OFFCURVE",
"120 423 OFFCURVE",
"112 362 CURVE",
"159 283 LINE",
"159 383 OFFCURVE",
"212 445 OFFCURVE",
"307 445 CURVE SMOOTH",
"408 445 OFFCURVE",
"456 377 OFFCURVE",
"456 250 CURVE SMOOTH",
"456 133 OFFCURVE",
"398 55 OFFCURVE",
"307 55 CURVE SMOOTH",
"211 55 OFFCURVE",
"159 117 OFFCURVE",
"140 162 CURVE",
"142 98 LINE",
"159 81 OFFCURVE",
"221 -15 OFFCURVE",
"341 -15 CURVE SMOOTH",
"472 -15 OFFCURVE",
"556 101 OFFCURVE",
"556 250 CURVE SMOOTH",
"556 409 OFFCURVE",
"474 515 OFFCURVE",
"321 515 CURVE SMOOTH"
);
},
{
closed = 1;
nodes = (
"86 -201 OFFCURVE",
"142 -200 OFFCURVE",
"167 -200 CURVE",
"172 -195 LINE",
"166 -128 OFFCURVE",
"161 7 OFFCURVE",
"154 77 CURVE",
"160 77 LINE",
"160 86 OFFCURVE",
"158 124 OFFCURVE",
"158 153 CURVE SMOOTH",
"158 224 OFFCURVE",
"161 351 OFFCURVE",
"169 460 CURVE",
"157 460 LINE",
"137 500 LINE",
"132 505 LINE",
"101 501 OFFCURVE",
"90 502 OFFCURVE",
"61 505 CURVE",
"56 500 LINE",
"66 385 OFFCURVE",
"70 233 OFFCURVE",
"70 153 CURVE SMOOTH",
"70 73 OFFCURVE",
"66 -80 OFFCURVE",
"56 -195 CURVE",
"61 -200 LINE"
);
}
);
width = 600;
},
{
layerId = "B6F795C8-F751-4DF7-955B-5EAABF4BC2BE";
width = 600;
},
{
layerId = "E103E4E6-9333-477C-9ADC-F52051F3C867";
width = 600;
}
);
leftKerningGroup = n;
leftMetricsKey = "=n";
rightKerningGroup = o;
rightMetricsKey = "=o";
unicode = 0070;
},
{
glyphname = q;
lastChange = "2020-08-01 17:41:35 +0000";
layers = (
{
layerId = "AEA248FC-48D8-43C3-8E42-77E797A92BBC";
paths = (
{
closed = 1;
nodes = (
"444 500 LINE",
"437 460 LINE",
"425 460 LINE",
"429 448 OFFCURVE",
"432 436 OFFCURVE",
"444 423 CURVE",
"461 320 OFFCURVE",
"460 213 OFFCURVE",
"460 152 CURVE SMOOTH",
"460 72 OFFCURVE",
"456 -105 OFFCURVE",
"446 -220 CURVE",
"451 -225 LINE",
"557 -225 LINE",
"562 -220 LINE",
"552 -105 OFFCURVE",
"548 72 OFFCURVE",
"548 152 CURVE SMOOTH",
"548 232 OFFCURVE",
"552 385 OFFCURVE",
"562 500 CURVE",
"557 505 LINE",
"532 501 OFFCURVE",
"479 501 OFFCURVE",
"449 505 CURVE"
);
},
{
closed = 1;
nodes = (
"431 -15 OFFCURVE",
"501 77 OFFCURVE",
"509 138 CURVE",
"460 217 LINE",
"461 117 OFFCURVE",
"410 15 OFFCURVE",
"314 15 CURVE SMOOTH",
"213 15 OFFCURVE",
"145 123 OFFCURVE",
"145 250 CURVE SMOOTH",
"145 377 OFFCURVE",
"213 475 OFFCURVE",
"314 475 CURVE SMOOTH",
"410 475 OFFCURVE",
"462 400 OFFCURVE",
"481 355 CURVE",
"479 392 LINE",
"464 423 OFFCURVE",
"400 515 OFFCURVE",
"280 515 CURVE SMOOTH",
"139 515 OFFCURVE",
"45 409 OFFCURVE",
"45 250 CURVE SMOOTH",
"45 91 OFFCURVE",
"147 -15 OFFCURVE",
"300 -15 CURVE SMOOTH"
);
}
);
width = 597;
},
{
associatedMasterId = "E103E4E6-9333-477C-9ADC-F52051F3C867";
layerId = "8E169918-2BDA-47B4-A650-6EBA9D9168E8";
paths = (
{
closed = 1;
nodes = (
"444 500 LINE",
"437 460 LINE",
"425 460 LINE",
"429 448 OFFCURVE",
"432 436 OFFCURVE",
"444 423 CURVE",
"461 320 OFFCURVE",
"460 213 OFFCURVE",
"460 152 CURVE SMOOTH",
"460 72 OFFCURVE",
"456 -105 OFFCURVE",
"446 -220 CURVE",
"451 -225 LINE",
"557 -225 LINE",
"562 -220 LINE",
"552 -105 OFFCURVE",
"548 72 OFFCURVE",
"548 152 CURVE SMOOTH",
"548 232 OFFCURVE",
"552 385 OFFCURVE",
"562 500 CURVE",
"557 505 LINE",
"532 501 OFFCURVE",
"479 501 OFFCURVE",
"449 505 CURVE"
);
},
{
closed = 1;
nodes = (
"431 -15 OFFCURVE",
"501 77 OFFCURVE",
"509 138 CURVE",
"460 217 LINE",
"461 117 OFFCURVE",
"410 15 OFFCURVE",
"314 15 CURVE SMOOTH",
"213 15 OFFCURVE",
"145 123 OFFCURVE",
"145 250 CURVE SMOOTH",
"145 377 OFFCURVE",
"213 475 OFFCURVE",
"314 475 CURVE SMOOTH",
"410 475 OFFCURVE",
"462 400 OFFCURVE",
"481 355 CURVE",
"479 392 LINE",
"464 423 OFFCURVE",
"400 515 OFFCURVE",
"280 515 CURVE SMOOTH",
"139 515 OFFCURVE",
"45 409 OFFCURVE",
"45 250 CURVE SMOOTH",
"45 91 OFFCURVE",
"147 -15 OFFCURVE",
"300 -15 CURVE SMOOTH"
);
}
);
width = 597;
},
{
layerId = "B6F795C8-F751-4DF7-955B-5EAABF4BC2BE";
width = 600;
},
{
layerId = "E103E4E6-9333-477C-9ADC-F52051F3C867";
width = 600;
}
);
leftKerningGroup = o;
leftMetricsKey = "=o";
rightKerningGroup = i;
rightMetricsKey = "=n";
unicode = 0071;
},
{
glyphname = r;
lastChange = "2020-08-01 17:30:23 +0000";
layers = (
{
layerId = "AEA248FC-48D8-43C3-8E42-77E797A92BBC";
paths = (
{
closed = 1;
nodes = (
"70 0 OFFCURVE",
"126 0 OFFCURVE",
"151 0 CURVE",
"156 5 LINE",
"147 87 OFFCURVE",
"142 175 OFFCURVE",
"142 256 CURVE SMOOTH",
"142 332 OFFCURVE",
"147 424 OFFCURVE",
"156 500 CURVE",
"151 505 LINE",
"126 500 OFFCURVE",
"70 500 OFFCURVE",
"45 505 CURVE",
"40 500 LINE",
"49 423 OFFCURVE",
"54 333 OFFCURVE",
"54 256 CURVE SMOOTH",
"54 176 OFFCURVE",
"49 86 OFFCURVE",
"40 5 CURVE",
"45 0 LINE"
);
},
{
closed = 1;
nodes = (
"183 515 OFFCURVE",
"135 427 OFFCURVE",
"123 399 CURVE",
"121 325 LINE",
"133 363 OFFCURVE",
"175 474 OFFCURVE",
"243 474 CURVE SMOOTH",
"303 474 OFFCURVE",
"327 417 OFFCURVE",
"327 392 CURVE",
"345 392 LINE",
"348 422 OFFCURVE",
"355 462 OFFCURVE",
"373 492 CURVE",
"364 504 LINE",
"344 510 OFFCURVE",
"318 514 OFFCURVE",
"289 514 CURVE SMOOTH"
);
}
);
width = 373;
},
{
associatedMasterId = "E103E4E6-9333-477C-9ADC-F52051F3C867";
layerId = "8E169918-2BDA-47B4-A650-6EBA9D9168E8";
paths = (
{
closed = 1;
nodes = (
"70 0 OFFCURVE",
"126 0 OFFCURVE",
"151 0 CURVE",
"156 5 LINE",
"147 87 OFFCURVE",
"142 175 OFFCURVE",
"142 256 CURVE SMOOTH",
"142 332 OFFCURVE",
"147 424 OFFCURVE",
"156 500 CURVE",
"151 505 LINE",
"126 500 OFFCURVE",
"70 500 OFFCURVE",
"45 505 CURVE",
"40 500 LINE",
"49 423 OFFCURVE",
"54 333 OFFCURVE",
"54 256 CURVE SMOOTH",
"54 176 OFFCURVE",
"49 86 OFFCURVE",
"40 5 CURVE",
"45 0 LINE"
);
},
{
closed = 1;
nodes = (
"183 515 OFFCURVE",
"135 427 OFFCURVE",
"123 399 CURVE",
"121 325 LINE",
"133 363 OFFCURVE",
"175 474 OFFCURVE",
"243 474 CURVE SMOOTH",
"303 474 OFFCURVE",
"327 417 OFFCURVE",
"327 392 CURVE",
"345 392 LINE",
"348 422 OFFCURVE",
"355 462 OFFCURVE",
"373 492 CURVE",
"364 504 LINE",
"344 510 OFFCURVE",
"318 514 OFFCURVE",
"289 514 CURVE SMOOTH"
);
}
);
width = 373;
},
{
layerId = "B6F795C8-F751-4DF7-955B-5EAABF4BC2BE";
paths = (
{
closed = 1;
nodes = (
"60 0 OFFCURVE",
"156 0 OFFCURVE",
"181 0 CURVE",
"186 5 LINE",
"177 87 OFFCURVE",
"172 175 OFFCURVE",
"172 256 CURVE SMOOTH",
"172 332 OFFCURVE",
"177 424 OFFCURVE",
"186 500 CURVE",
"181 505 LINE",
"156 500 OFFCURVE",
"60 500 OFFCURVE",
"35 505 CURVE",
"30 500 LINE",
"39 423 OFFCURVE",
"44 333 OFFCURVE",
"44 256 CURVE SMOOTH",
"44 176 OFFCURVE",
"39 86 OFFCURVE",
"30 5 CURVE",
"35 0 LINE"
);
},
{
closed = 1;
nodes = (
"213 518 OFFCURVE",
"165 447 OFFCURVE",
"153 419 CURVE",
"151 325 LINE",
"163 363 OFFCURVE",
"205 438 OFFCURVE",
"273 438 CURVE SMOOTH",
"303 438 OFFCURVE",
"345 425 OFFCURVE",
"357 392 CURVE",
"375 392 LINE",
"378 422 OFFCURVE",
"385 462 OFFCURVE",
"403 492 CURVE",
"394 504 LINE",
"374 510 OFFCURVE",
"348 518 OFFCURVE",
"319 518 CURVE SMOOTH"
);
}
);
width = 423;
},
{
layerId = "E103E4E6-9333-477C-9ADC-F52051F3C867";
paths = (
{
closed = 1;
nodes = (
"60 0 OFFCURVE",
"71 0 OFFCURVE",
"96 0 CURVE",
"101 5 LINE",
"92 87 OFFCURVE",
"87 175 OFFCURVE",
"87 256 CURVE SMOOTH",
"87 332 OFFCURVE",
"92 424 OFFCURVE",
"101 500 CURVE",
"96 505 LINE",
"71 500 OFFCURVE",
"60 500 OFFCURVE",
"35 505 CURVE",
"30 500 LINE",
"39 423 OFFCURVE",
"44 333 OFFCURVE",
"44 256 CURVE SMOOTH",
"44 176 OFFCURVE",
"39 86 OFFCURVE",
"30 5 CURVE",
"35 0 LINE"
);
},
{
closed = 1;
nodes = (
"128 514 OFFCURVE",
"80 407 OFFCURVE",
"68 379 CURVE",
"66 325 LINE",
"78 363 OFFCURVE",
"120 484 OFFCURVE",
"208 484 CURVE SMOOTH",
"268 484 OFFCURVE",
"296 446 OFFCURVE",
"296 422 CURVE",
"313 422 LINE",
"315 447 OFFCURVE",
"324 471 OFFCURVE",
"338 492 CURVE",
"329 504 LINE",
"309 510 OFFCURVE",
"283 514 OFFCURVE",
"234 514 CURVE SMOOTH"
);
}
);
width = 368;
}
);
leftKerningGroup = n;
rightKerningGroup = r;
unicode = 0072;
},
{
glyphname = s;
lastChange = "2020-08-01 17:31:28 +0000";
layers = (
{
layerId = "AEA248FC-48D8-43C3-8E42-77E797A92BBC";
paths = (
{
closed = 1;
nodes = (
"24 62 OFFCURVE",
"122 -15 OFFCURVE",
"266 -15 CURVE SMOOTH",
"400 -15 OFFCURVE",
"475 40 OFFCURVE",
"475 112 CURVE SMOOTH",
"475 276 OFFCURVE",
"153 207 OFFCURVE",
"153 388 CURVE SMOOTH",
"153 442 OFFCURVE",
"195 485 OFFCURVE",
"259 485 CURVE SMOOTH",
"341 485 OFFCURVE",
"375 424 OFFCURVE",
"394 342 CURVE",
"401 340 LINE",
"421 379 OFFCURVE",
"449 415 OFFCURVE",
"472 430 CURVE",
"472 437 LINE",
"436 484 OFFCURVE",
"351 515 OFFCURVE",
"259 515 CURVE SMOOTH",
"128 515 OFFCURVE",
"53 455 OFFCURVE",
"53 380 CURVE SMOOTH",
"53 224 OFFCURVE",
"375 254 OFFCURVE",
"375 94 CURVE SMOOTH",
"375 51 OFFCURVE",
"331 15 OFFCURVE",
"266 15 CURVE SMOOTH",
"175 15 OFFCURVE",
"145 64 OFFCURVE",
"140 127 CURVE",
"136 133 LINE",
"82 153 OFFCURVE",
"38 172 OFFCURVE",
"26 181 CURVE",
"20 177 LINE"
);
}
);
width = 495;
},
{
associatedMasterId = "E103E4E6-9333-477C-9ADC-F52051F3C867";
layerId = "8E169918-2BDA-47B4-A650-6EBA9D9168E8";
paths = (
{
closed = 1;
nodes = (
"24 62 OFFCURVE",
"122 -15 OFFCURVE",
"266 -15 CURVE SMOOTH",
"400 -15 OFFCURVE",
"475 40 OFFCURVE",
"475 112 CURVE SMOOTH",
"475 276 OFFCURVE",
"153 207 OFFCURVE",
"153 388 CURVE SMOOTH",
"153 442 OFFCURVE",
"195 485 OFFCURVE",
"259 485 CURVE SMOOTH",
"341 485 OFFCURVE",
"375 424 OFFCURVE",
"394 342 CURVE",
"401 340 LINE",
"421 379 OFFCURVE",
"449 415 OFFCURVE",
"472 430 CURVE",
"472 437 LINE",
"436 484 OFFCURVE",
"351 515 OFFCURVE",
"259 515 CURVE SMOOTH",
"128 515 OFFCURVE",
"53 455 OFFCURVE",
"53 380 CURVE SMOOTH",
"53 224 OFFCURVE",
"375 254 OFFCURVE",
"375 94 CURVE SMOOTH",
"375 51 OFFCURVE",
"331 15 OFFCURVE",
"266 15 CURVE SMOOTH",
"175 15 OFFCURVE",
"145 64 OFFCURVE",
"140 127 CURVE",
"136 133 LINE",
"82 153 OFFCURVE",
"38 172 OFFCURVE",
"26 181 CURVE",
"20 177 LINE"
);
}
);
width = 495;
},
{
layerId = "B6F795C8-F751-4DF7-955B-5EAABF4BC2BE";
paths = (
{
closed = 1;
nodes = (
"44 62 OFFCURVE",
"122 -18 OFFCURVE",
"266 -18 CURVE SMOOTH",
"400 -18 OFFCURVE",
"485 40 OFFCURVE",
"485 112 CURVE SMOOTH",
"485 321 OFFCURVE",
"153 226 OFFCURVE",
"153 378 CURVE SMOOTH",
"153 422 OFFCURVE",
"195 443 OFFCURVE",
"259 443 CURVE SMOOTH",
"341 443 OFFCURVE",
"375 424 OFFCURVE",
"394 342 CURVE",
"401 340 LINE",
"421 379 OFFCURVE",
"449 415 OFFCURVE",
"472 430 CURVE",
"472 437 LINE",
"436 484 OFFCURVE",
"351 518 OFFCURVE",
"259 518 CURVE SMOOTH",
"128 518 OFFCURVE",
"43 455 OFFCURVE",
"43 380 CURVE SMOOTH",
"43 204 OFFCURVE",
"375 223 OFFCURVE",
"375 114 CURVE SMOOTH",
"375 81 OFFCURVE",
"331 57 OFFCURVE",
"266 57 CURVE SMOOTH",
"175 57 OFFCURVE",
"160 94 OFFCURVE",
"160 127 CURVE",
"156 133 LINE",
"102 153 OFFCURVE",
"58 172 OFFCURVE",
"46 181 CURVE",
"40 177 LINE"
);
}
);
width = 600;
},
{
layerId = "E103E4E6-9333-477C-9ADC-F52051F3C867";
paths = (
{
closed = 1;
nodes = (
"34 62 OFFCURVE",
"122 -15 OFFCURVE",
"246 -15 CURVE SMOOTH",
"390 -15 OFFCURVE",
"435 30 OFFCURVE",
"435 112 CURVE SMOOTH",
"435 276 OFFCURVE",
"113 217 OFFCURVE",
"113 388 CURVE SMOOTH",
"113 462 OFFCURVE",
"195 485 OFFCURVE",
"239 485 CURVE SMOOTH",
"321 485 OFFCURVE",
"375 464 OFFCURVE",
"394 382 CURVE",
"401 380 LINE",
"413 403 OFFCURVE",
"429 420 OFFCURVE",
"452 430 CURVE",
"452 437 LINE",
"416 484 OFFCURVE",
"331 515 OFFCURVE",
"239 515 CURVE SMOOTH",
"128 515 OFFCURVE",
"73 465 OFFCURVE",
"73 380 CURVE SMOOTH",
"73 204 OFFCURVE",
"395 244 OFFCURVE",
"395 94 CURVE SMOOTH",
"395 31 OFFCURVE",
"311 15 OFFCURVE",
"246 15 CURVE SMOOTH",
"155 15 OFFCURVE",
"105 64 OFFCURVE",
"100 127 CURVE",
"96 133 LINE",
"76 149 OFFCURVE",
"56 165 OFFCURVE",
"36 181 CURVE",
"30 177 LINE"
);
}
);
width = 482;
}
);
leftKerningGroup = s;
rightKerningGroup = s;
unicode = 0073;
},
{
glyphname = t;
lastChange = "2020-08-01 17:33:03 +0000";
layers = (
{
layerId = "AEA248FC-48D8-43C3-8E42-77E797A92BBC";
paths = (
{
closed = 1;
nodes = (
"259 -15 OFFCURVE",
"291 1 OFFCURVE",
"300 5 CURVE",
"305 9 LINE",
"305 62 LINE",
"301 68 LINE",
"292 64 OFFCURVE",
"274 15 OFFCURVE",
"231 15 CURVE SMOOTH",
"180 15 OFFCURVE",
"177 84 OFFCURVE",
"177 156 CURVE",
"177 371 LINE",
"177 448 OFFCURVE",
"182 539 OFFCURVE",
"191 615 CURVE",
"186 620 LINE",
"161 615 OFFCURVE",
"105 615 OFFCURVE",
"80 620 CURVE",
"75 615 LINE",
"84 538 OFFCURVE",
"89 448 OFFCURVE",
"89 371 CURVE",
"89 156 LINE",
"89 84 OFFCURVE",
"89 -15 OFFCURVE",
"206 -15 CURVE SMOOTH"
);
},
{
closed = 1;
nodes = (
"302 470 LINE",
"307 475 LINE",
"307 495 LINE",
"302 500 LINE",
"34 500 LINE",
"19 472 LINE",
"19 475 LINE",
"24 470 LINE"
);
}
);
width = 332;
},
{
associatedMasterId = "E103E4E6-9333-477C-9ADC-F52051F3C867";
layerId = "8E169918-2BDA-47B4-A650-6EBA9D9168E8";
paths = (
{
closed = 1;
nodes = (
"259 -15 OFFCURVE",
"291 1 OFFCURVE",
"300 5 CURVE",
"305 9 LINE",
"305 62 LINE",
"301 68 LINE",
"292 64 OFFCURVE",
"274 15 OFFCURVE",
"231 15 CURVE SMOOTH",
"180 15 OFFCURVE",
"177 84 OFFCURVE",
"177 156 CURVE",
"177 371 LINE",
"177 448 OFFCURVE",
"182 539 OFFCURVE",
"191 615 CURVE",
"186 620 LINE",
"161 615 OFFCURVE",
"105 615 OFFCURVE",
"80 620 CURVE",
"75 615 LINE",
"84 538 OFFCURVE",
"89 448 OFFCURVE",
"89 371 CURVE",
"89 156 LINE",
"89 84 OFFCURVE",
"89 -15 OFFCURVE",
"206 -15 CURVE SMOOTH"
);
},
{
closed = 1;
nodes = (
"302 470 LINE",
"307 475 LINE",
"307 495 LINE",
"302 500 LINE",
"34 500 LINE",
"19 472 LINE",
"19 475 LINE",
"24 470 LINE"
);
}
);
width = 332;
},
{
layerId = "B6F795C8-F751-4DF7-955B-5EAABF4BC2BE";
width = 600;
},
{
layerId = "E103E4E6-9333-477C-9ADC-F52051F3C867";
width = 600;
}
);
leftKerningGroup = t;
rightKerningGroup = t;
unicode = 0074;
},
{
glyphname = u;
lastChange = "2020-08-01 17:34:34 +0000";
layers = (
{
anchors = (
{
name = bottom;
position = "{280, 0}";
},
{
name = ogonek;
position = "{504, 10}";
},
{
name = top;
position = "{280, 500}";
},
{
name = topright;
position = "{540, 500}";
}
);
layerId = "AEA248FC-48D8-43C3-8E42-77E797A92BBC";
paths = (
{
closed = 1;
nodes = (
"138 330 OFFCURVE",
"142 419 OFFCURVE",
"151 500 CURVE",
"146 505 LINE",
"121 500 OFFCURVE",
"65 500 OFFCURVE",
"40 505 CURVE",
"35 500 LINE",
"45 419 OFFCURVE",
"49 322 OFFCURVE",
"50 174 CURVE",
"50 7 OFFCURVE",
"162 -15 OFFCURVE",
"231 -15 CURVE SMOOTH",
"354 -15 OFFCURVE",
"423 75 OFFCURVE",
"437 101 CURVE",
"439 155 LINE",
"422 117 OFFCURVE",
"360 26 OFFCURVE",
"270 25 CURVE SMOOTH",
"171 24 OFFCURVE",
"138 111 OFFCURVE",
"138 204 CURVE"
);
},
{
closed = 1;
nodes = (
"434 0 OFFCURVE",
"490 0 OFFCURVE",
"515 0 CURVE",
"520 5 LINE",
"511 87 OFFCURVE",
"506 175 OFFCURVE",
"506 256 CURVE SMOOTH",
"506 332 OFFCURVE",
"511 424 OFFCURVE",
"520 500 CURVE",
"515 505 LINE",
"490 500 OFFCURVE",
"434 500 OFFCURVE",
"409 505 CURVE",
"404 500 LINE",
"413 423 OFFCURVE",
"418 333 OFFCURVE",
"418 256 CURVE SMOOTH",
"418 176 OFFCURVE",
"413 86 OFFCURVE",
"404 5 CURVE",
"409 0 LINE"
);
}
);
width = 560;
},
{
associatedMasterId = "E103E4E6-9333-477C-9ADC-F52051F3C867";
layerId = "8E169918-2BDA-47B4-A650-6EBA9D9168E8";
paths = (
{
closed = 1;
nodes = (
"138 333 OFFCURVE",
"142 423 OFFCURVE",
"151 500 CURVE",
"146 505 LINE",
"121 500 OFFCURVE",
"65 500 OFFCURVE",
"40 505 CURVE",
"35 500 LINE",
"44 424 OFFCURVE",
"49 332 OFFCURVE",
"49 256 CURVE SMOOTH",
"50 231 OFFCURVE",
"50 204 OFFCURVE",
"50 174 CURVE SMOOTH",
"50 7 OFFCURVE",
"162 -15 OFFCURVE",
"231 -15 CURVE SMOOTH",
"354 -15 OFFCURVE",
"423 75 OFFCURVE",
"437 101 CURVE",
"439 155 LINE",
"422 117 OFFCURVE",
"360 26 OFFCURVE",
"270 25 CURVE SMOOTH",
"171 24 OFFCURVE",
"138 111 OFFCURVE",
"138 204 CURVE SMOOTH",
"138 222 OFFCURVE",
"138 240 OFFCURVE",
"138 256 CURVE SMOOTH"
);
},
{
closed = 1;
nodes = (
"434 0 OFFCURVE",
"490 0 OFFCURVE",
"515 0 CURVE",
"520 5 LINE",
"511 87 OFFCURVE",
"506 175 OFFCURVE",
"506 256 CURVE SMOOTH",
"506 332 OFFCURVE",
"511 424 OFFCURVE",
"520 500 CURVE",
"515 505 LINE",
"490 500 OFFCURVE",
"434 500 OFFCURVE",
"409 505 CURVE",
"404 500 LINE",
"413 423 OFFCURVE",
"418 333 OFFCURVE",
"418 256 CURVE SMOOTH",
"418 176 OFFCURVE",
"413 86 OFFCURVE",
"404 5 CURVE",
"409 0 LINE"
);
}
);
width = 560;
},
{
layerId = "B6F795C8-F751-4DF7-955B-5EAABF4BC2BE";
paths = (
{
closed = 1;
nodes = (
"142 330 OFFCURVE",
"146 419 OFFCURVE",
"155 500 CURVE",
"150 505 LINE",
"125 500 OFFCURVE",
"30 500 OFFCURVE",
"5 505 CURVE",
"0 500 LINE",
"10 419 OFFCURVE",
"14 322 OFFCURVE",
"15 174 CURVE",
"15 7 OFFCURVE",
"156 -18 OFFCURVE",
"225 -18 CURVE SMOOTH",
"348 -18 OFFCURVE",
"417 45 OFFCURVE",
"431 71 CURVE",
"433 155 LINE",
"416 117 OFFCURVE",
"354 63 OFFCURVE",
"264 62 CURVE SMOOTH",
"165 61 OFFCURVE",
"142 111 OFFCURVE",
"142 204 CURVE"
);
},
{
closed = 1;
nodes = (
"428 0 OFFCURVE",
"524 0 OFFCURVE",
"549 0 CURVE",
"554 5 LINE",
"545 87 OFFCURVE",
"540 175 OFFCURVE",
"540 256 CURVE SMOOTH",
"540 332 OFFCURVE",
"545 424 OFFCURVE",
"554 500 CURVE",
"549 505 LINE",
"524 500 OFFCURVE",
"428 500 OFFCURVE",
"403 505 CURVE",
"398 500 LINE",
"407 423 OFFCURVE",
"412 333 OFFCURVE",
"412 256 CURVE SMOOTH",
"412 176 OFFCURVE",
"407 86 OFFCURVE",
"398 5 CURVE",
"403 0 LINE"
);
}
);
width = 619;
},
{
layerId = "E103E4E6-9333-477C-9ADC-F52051F3C867";
paths = (
{
closed = 1;
nodes = (
"88 333 OFFCURVE",
"92 423 OFFCURVE",
"101 500 CURVE",
"96 505 LINE",
"71 500 OFFCURVE",
"60 500 OFFCURVE",
"35 505 CURVE",
"30 500 LINE",
"39 424 OFFCURVE",
"44 332 OFFCURVE",
"44 256 CURVE SMOOTH",
"44 103 OFFCURVE",
"31 -15 OFFCURVE",
"201 -15 CURVE SMOOTH",
"304 -15 OFFCURVE",
"373 75 OFFCURVE",
"387 101 CURVE",
"389 155 LINE",
"372 117 OFFCURVE",
"310 26 OFFCURVE",
"220 25 CURVE SMOOTH",
"68 24 OFFCURVE",
"88 115 OFFCURVE",
"88 256 CURVE SMOOTH"
);
},
{
closed = 1;
nodes = (
"384 0 OFFCURVE",
"395 0 OFFCURVE",
"420 0 CURVE",
"425 5 LINE",
"416 87 OFFCURVE",
"411 175 OFFCURVE",
"411 256 CURVE SMOOTH",
"411 332 OFFCURVE",
"416 424 OFFCURVE",
"425 500 CURVE",
"420 505 LINE",
"395 500 OFFCURVE",
"384 500 OFFCURVE",
"359 505 CURVE",
"354 500 LINE",
"363 423 OFFCURVE",
"368 333 OFFCURVE",
"368 256 CURVE SMOOTH",
"368 176 OFFCURVE",
"363 86 OFFCURVE",
"354 5 CURVE",
"359 0 LINE"
);
}
);
width = 455;
}
);
leftKerningGroup = u;
rightKerningGroup = u;
unicode = 0075;
},
{
glyphname = v;
lastChange = "2020-08-01 17:36:20 +0000";
layers = (
{
anchors = (
{
name = bottom;
position = "{268, 0}";
},
{
name = top;
position = "{268, 500}";
}
);
layerId = "AEA248FC-48D8-43C3-8E42-77E797A92BBC";
paths = (
{
closed = 1;
nodes = (
"331 0 LINE",
"337 4 LINE",
"368 95 OFFCURVE",
"488 425 OFFCURVE",
"521 500 CURVE",
"516 505 LINE",
"491 501 OFFCURVE",
"477 501 OFFCURVE",
"455 505 CURVE",
"450 500 LINE",
"432 426 OFFCURVE",
"315 83 OFFCURVE",
"315 40 CURVE",
"295 40 LINE",
"295 83 OFFCURVE",
"148 426 OFFCURVE",
"130 500 CURVE",
"125 505 LINE",
"103 501 OFFCURVE",
"45 501 OFFCURVE",
"20 505 CURVE",
"15 500 LINE",
"66 425 OFFCURVE",
"201 101 OFFCURVE",
"219 4 CURVE",
"225 0 LINE"
);
}
);
width = 536;
},
{
associatedMasterId = "E103E4E6-9333-477C-9ADC-F52051F3C867";
layerId = "8E169918-2BDA-47B4-A650-6EBA9D9168E8";
paths = (
{
closed = 1;
nodes = (
"331 0 LINE",
"337 4 LINE",
"368 95 OFFCURVE",
"488 425 OFFCURVE",
"521 500 CURVE",
"516 505 LINE",
"491 501 OFFCURVE",
"477 501 OFFCURVE",
"455 505 CURVE",
"450 500 LINE",
"432 426 OFFCURVE",
"315 83 OFFCURVE",
"315 40 CURVE",
"295 40 LINE",
"295 83 OFFCURVE",
"148 426 OFFCURVE",
"130 500 CURVE",
"125 505 LINE",
"103 501 OFFCURVE",
"45 501 OFFCURVE",
"20 505 CURVE",
"15 500 LINE",
"66 425 OFFCURVE",
"201 101 OFFCURVE",
"219 4 CURVE",
"225 0 LINE"
);
}
);
width = 536;
},
{
layerId = "B6F795C8-F751-4DF7-955B-5EAABF4BC2BE";
width = 600;
},
{
layerId = "E103E4E6-9333-477C-9ADC-F52051F3C867";
width = 600;
}
);
leftKerningGroup = v;
rightKerningGroup = v;
unicode = 0076;
},
{
glyphname = w;
lastChange = "2020-08-01 08:55:57 +0000";
layers = (
{
anchors = (
{
name = bottom;
position = "{396, 0}";
},
{
name = top;
position = "{396, 500}";
}
);
layerId = "AEA248FC-48D8-43C3-8E42-77E797A92BBC";
paths = (
{
closed = 1;
nodes = (
"747 501 OFFCURVE",
"720 501 OFFCURVE",
"698 505 CURVE",
"693 500 LINE",
"675 426 OFFCURVE",
"577 83 OFFCURVE",
"577 40 CURVE",
"550 40 LINE",
"550 83 OFFCURVE",
"483 426 OFFCURVE",
"465 500 CURVE",
"460 505 LINE",
"435 500 OFFCURVE",
"403 500 OFFCURVE",
"378 505 CURVE",
"373 500 LINE",
"355 426 OFFCURVE",
"298 83 OFFCURVE",
"298 40 CURVE",
"274 40 LINE",
"274 83 OFFCURVE",
"146 426 OFFCURVE",
"128 500 CURVE",
"123 505 LINE",
"101 501 OFFCURVE",
"45 501 OFFCURVE",
"20 505 CURVE",
"15 500 LINE",
"46 425 OFFCURVE",
"171 102 OFFCURVE",
"209 4 CURVE",
"215 0 LINE",
"320 0 LINE",
"326 4 LINE",
"337 72 OFFCURVE",
"363 253 OFFCURVE",
"411 440 CURVE",
"393 440 LINE",
"441 253 OFFCURVE",
"471 72 OFFCURVE",
"482 4 CURVE",
"488 0 LINE",
"597 0 LINE",
"603 4 LINE",
"618 101 OFFCURVE",
"726 425 OFFCURVE",
"777 500 CURVE",
"772 505 LINE"
);
}
);
width = 792;
},
{
associatedMasterId = "AEA248FC-48D8-43C3-8E42-77E797A92BBC";
layerId = "A4597E16-88CC-40EC-8FEB-CC62B33D21FD";
name = "Jul 17 20, 16:29";
paths = (
{
closed = 1;
nodes = (
"352 310 LINE",
"352 200 OFFCURVE",
"294 92 OFFCURVE",
"294 65 CURVE",
"268 65 LINE",
"268 108 OFFCURVE",
"149 426 OFFCURVE",
"131 500 CURVE",
"126 505 LINE",
"104 500 OFFCURVE",
"40 500 OFFCURVE",
"15 505 CURVE",
"10 500 LINE",
"61 425 OFFCURVE",
"184 71 OFFCURVE",
"214 4 CURVE",
"220 0 LINE",
"324 0 LINE",
"330 4 LINE",
"346 38 OFFCURVE",
"409 144 OFFCURVE",
"452 249 CURVE"
);
},
{
closed = 1;
nodes = (
"344 469 OFFCURVE",
"352 394 OFFCURVE",
"352 310 CURVE SMOOTH",
"352 185 OFFCURVE",
"465 45 OFFCURVE",
"483 4 CURVE",
"489 0 LINE",
"593 0 LINE",
"599 4 LINE",
"630 71 OFFCURVE",
"758 424 OFFCURVE",
"803 500 CURVE",
"798 505 LINE",
"774 500 OFFCURVE",
"709 500 OFFCURVE",
"687 505 CURVE",
"683 500 LINE",
"667 425 OFFCURVE",
"545 108 OFFCURVE",
"545 65 CURVE",
"519 65 LINE",
"519 90 OFFCURVE",
"446 199 OFFCURVE",
"446 312 CURVE SMOOTH",
"446 394 OFFCURVE",
"456 469 OFFCURVE",
"461 500 CURVE",
"456 505 LINE",
"434 500 OFFCURVE",
"370 500 OFFCURVE",
"345 505 CURVE",
"340 500 LINE"
);
}
);
width = 813;
},
{
associatedMasterId = "E103E4E6-9333-477C-9ADC-F52051F3C867";
layerId = "8E169918-2BDA-47B4-A650-6EBA9D9168E8";
paths = (
{
closed = 1;
nodes = (
"747 501 OFFCURVE",
"720 501 OFFCURVE",
"698 505 CURVE",
"693 500 LINE",
"675 426 OFFCURVE",
"577 83 OFFCURVE",
"577 40 CURVE",
"550 40 LINE",
"550 83 OFFCURVE",
"483 426 OFFCURVE",
"465 500 CURVE",
"460 505 LINE",
"435 500 OFFCURVE",
"403 500 OFFCURVE",
"378 505 CURVE",
"373 500 LINE",
"355 426 OFFCURVE",
"298 83 OFFCURVE",
"298 40 CURVE",
"274 40 LINE",
"274 83 OFFCURVE",
"146 426 OFFCURVE",
"128 500 CURVE",
"123 505 LINE",
"101 501 OFFCURVE",
"45 501 OFFCURVE",
"20 505 CURVE",
"15 500 LINE",
"46 425 OFFCURVE",
"171 102 OFFCURVE",
"209 4 CURVE",
"215 0 LINE",
"320 0 LINE",
"326 4 LINE",
"337 72 OFFCURVE",
"363 253 OFFCURVE",
"411 440 CURVE",
"393 440 LINE",
"441 253 OFFCURVE",
"471 72 OFFCURVE",
"482 4 CURVE",
"488 0 LINE",
"597 0 LINE",
"603 4 LINE",
"618 101 OFFCURVE",
"726 425 OFFCURVE",
"777 500 CURVE",
"772 505 LINE"
);
}
);
width = 792;
},
{
associatedMasterId = "E103E4E6-9333-477C-9ADC-F52051F3C867";
layerId = "DC388E6E-0F98-4DB1-9433-6C842770F7D5";
name = "Jul 17 20, 16:29";
paths = (
{
closed = 1;
nodes = (
"352 310 LINE",
"352 200 OFFCURVE",
"294 92 OFFCURVE",
"294 65 CURVE",
"268 65 LINE",
"268 108 OFFCURVE",
"149 426 OFFCURVE",
"131 500 CURVE",
"126 505 LINE",
"104 500 OFFCURVE",
"40 500 OFFCURVE",
"15 505 CURVE",
"10 500 LINE",
"61 425 OFFCURVE",
"184 71 OFFCURVE",
"214 4 CURVE",
"220 0 LINE",
"324 0 LINE",
"330 4 LINE",
"346 38 OFFCURVE",
"409 144 OFFCURVE",
"452 249 CURVE"
);
},
{
closed = 1;
nodes = (
"344 469 OFFCURVE",
"352 394 OFFCURVE",
"352 310 CURVE SMOOTH",
"352 185 OFFCURVE",
"465 45 OFFCURVE",
"483 4 CURVE",
"489 0 LINE",
"593 0 LINE",
"599 4 LINE",
"630 71 OFFCURVE",
"758 424 OFFCURVE",
"803 500 CURVE",
"798 505 LINE",
"774 500 OFFCURVE",
"709 500 OFFCURVE",
"687 505 CURVE",
"683 500 LINE",
"667 425 OFFCURVE",
"545 108 OFFCURVE",
"545 65 CURVE",
"519 65 LINE",
"519 90 OFFCURVE",
"446 199 OFFCURVE",
"446 312 CURVE SMOOTH",
"446 394 OFFCURVE",
"456 469 OFFCURVE",
"461 500 CURVE",
"456 505 LINE",
"434 500 OFFCURVE",
"370 500 OFFCURVE",
"345 505 CURVE",
"340 500 LINE"
);
}
);
width = 813;
},
{
layerId = "B6F795C8-F751-4DF7-955B-5EAABF4BC2BE";
width = 600;
},
{
layerId = "E103E4E6-9333-477C-9ADC-F52051F3C867";
width = 600;
}
);
leftKerningGroup = v;
leftMetricsKey = "=v";
rightKerningGroup = v;
rightMetricsKey = "=v";
unicode = 0077;
},
{
glyphname = x;
lastChange = "2020-08-01 17:42:14 +0000";
layers = (
{
layerId = "AEA248FC-48D8-43C3-8E42-77E797A92BBC";
paths = (
{
closed = 1;
nodes = (
"390 2 LINE",
"393 0 LINE",
"478 0 LINE",
"483 11 LINE",
"130 500 LINE",
"124 505 LINE",
"98 497 OFFCURVE",
"67 496 OFFCURVE",
"37 505 CURVE",
"32 500 LINE"
);
},
{
closed = 1;
nodes = (
"461 500 OFFCURVE",
"443 500 OFFCURVE",
"431 505 CURVE",
"426 500 LINE",
"69 8 LINE",
"76 0 LINE",
"117 0 LINE",
"120 2 LINE",
"478 500 LINE",
"473 505 LINE"
);
}
);
width = 510;
},
{
associatedMasterId = "AEA248FC-48D8-43C3-8E42-77E797A92BBC";
layerId = "C92C757C-14B0-481D-B594-B244ECD14EB3";
name = "Jul 18 20, 21:20";
paths = (
{
closed = 1;
nodes = (
"300 249 LINE",
"394 249 OFFCURVE",
"489 425 OFFCURVE",
"495 500 CURVE",
"490 505 LINE",
"433 505 LINE",
"428 500 LINE",
"435 425 OFFCURVE",
"349 244 OFFCURVE",
"224 251 CURVE",
"221 251 LINE",
"298 151 OFFCURVE",
"340 83 OFFCURVE",
"378 5 CURVE",
"383 0 LINE",
"409 0 OFFCURVE",
"463 0 OFFCURVE",
"490 0 CURVE",
"495 5 LINE",
"444 83 OFFCURVE",
"394 143 OFFCURVE",
"302 249 CURVE"
);
},
{
closed = 1;
nodes = (
"302 249 LINE",
"225 356 OFFCURVE",
"180 425 OFFCURVE",
"142 500 CURVE",
"137 505 LINE",
"100 498 OFFCURVE",
"67 498 OFFCURVE",
"30 505 CURVE",
"25 500 LINE",
"76 425 OFFCURVE",
"129 354 OFFCURVE",
"221 251 CURVE",
"224 251 LINE",
"85 251 OFFCURVE",
"31 83 OFFCURVE",
"25 5 CURVE",
"30 0 LINE",
"87 0 LINE",
"92 5 LINE",
"85 83 OFFCURVE",
"130 246 OFFCURVE",
"300 249 CURVE"
);
}
);
width = 520;
},
{
associatedMasterId = "E103E4E6-9333-477C-9ADC-F52051F3C867";
layerId = "8E169918-2BDA-47B4-A650-6EBA9D9168E8";
paths = (
{
closed = 1;
nodes = (
"390 2 LINE",
"393 0 LINE",
"478 0 LINE",
"483 11 LINE",
"130 500 LINE",
"124 505 LINE",
"98 497 OFFCURVE",
"67 496 OFFCURVE",
"37 505 CURVE",
"32 500 LINE"
);
},
{
closed = 1;
nodes = (
"461 500 OFFCURVE",
"443 500 OFFCURVE",
"431 505 CURVE",
"426 500 LINE",
"69 8 LINE",
"76 0 LINE",
"117 0 LINE",
"120 2 LINE",
"478 500 LINE",
"473 505 LINE"
);
}
);
width = 510;
},
{
associatedMasterId = "E103E4E6-9333-477C-9ADC-F52051F3C867";
layerId = "E86A9F38-29F4-4B2B-ADCF-CCA8D1F25146";
name = "Jul 18 20, 21:20";
paths = (
{
closed = 1;
nodes = (
"300 249 LINE",
"394 249 OFFCURVE",
"489 425 OFFCURVE",
"495 500 CURVE",
"490 505 LINE",
"433 505 LINE",
"428 500 LINE",
"435 425 OFFCURVE",
"349 244 OFFCURVE",
"224 251 CURVE",
"221 251 LINE",
"298 151 OFFCURVE",
"340 83 OFFCURVE",
"378 5 CURVE",
"383 0 LINE",
"409 0 OFFCURVE",
"463 0 OFFCURVE",
"490 0 CURVE",
"495 5 LINE",
"444 83 OFFCURVE",
"394 143 OFFCURVE",
"302 249 CURVE"
);
},
{
closed = 1;
nodes = (
"302 249 LINE",
"225 356 OFFCURVE",
"180 425 OFFCURVE",
"142 500 CURVE",
"137 505 LINE",
"100 498 OFFCURVE",
"67 498 OFFCURVE",
"30 505 CURVE",
"25 500 LINE",
"76 425 OFFCURVE",
"129 354 OFFCURVE",
"221 251 CURVE",
"224 251 LINE",
"85 251 OFFCURVE",
"31 83 OFFCURVE",
"25 5 CURVE",
"30 0 LINE",
"87 0 LINE",
"92 5 LINE",
"85 83 OFFCURVE",
"130 246 OFFCURVE",
"300 249 CURVE"
);
}
);
width = 520;
},
{
layerId = "B6F795C8-F751-4DF7-955B-5EAABF4BC2BE";
width = 600;
},
{
layerId = "E103E4E6-9333-477C-9ADC-F52051F3C867";
width = 600;
}
);
leftKerningGroup = x;
rightKerningGroup = x;
unicode = 0078;
},
{
glyphname = y;
lastChange = "2020-08-01 17:56:02 +0000";
layers = (
{
anchors = (
{
name = bottom;
position = "{275, 0}";
},
{
name = top;
position = "{275, 500}";
}
);
layerId = "AEA248FC-48D8-43C3-8E42-77E797A92BBC";
paths = (
{
closed = 1;
nodes = (
"136 413 OFFCURVE",
"146 500 CURVE",
"141 505 LINE",
"116 500 OFFCURVE",
"60 500 OFFCURVE",
"35 505 CURVE",
"30 500 LINE",
"41 407 OFFCURVE",
"45 289 OFFCURVE",
"45 224 CURVE SMOOTH",
"45 47 OFFCURVE",
"147 -15 OFFCURVE",
"226 -15 CURVE SMOOTH",
"349 -15 OFFCURVE",
"418 35 OFFCURVE",
"432 61 CURVE",
"434 115 LINE",
"417 77 OFFCURVE",
"355 26 OFFCURVE",
"265 25 CURVE SMOOTH",
"156 24 OFFCURVE",
"133 151 OFFCURVE",
"133 254 CURVE SMOOTH",
"133 309 OFFCURVE"
);
},
{
closed = 1;
nodes = (
"506 -152 OFFCURVE",
"506 164 CURVE SMOOTH",
"506 216 OFFCURVE",
"511 447 OFFCURVE",
"520 500 CURVE",
"515 505 LINE",
"503 503 OFFCURVE",
"482 502 OFFCURVE",
"462 502 CURVE SMOOTH",
"442 502 OFFCURVE",
"422 503 OFFCURVE",
"409 505 CURVE",
"404 500 LINE",
"413 447 OFFCURVE",
"418 217 OFFCURVE",
"418 164 CURVE SMOOTH",
"418 -91 OFFCURVE",
"369 -209 OFFCURVE",
"263 -209 CURVE SMOOTH",
"190 -209 OFFCURVE",
"122 -101 OFFCURVE",
"113 -87 CURVE",
"109 -93 LINE",
"109 -196 LINE",
"114 -200 LINE",
"124 -205 OFFCURVE",
"205 -239 OFFCURVE",
"288 -239 CURVE SMOOTH",
"456 -239 OFFCURVE"
);
}
);
width = 550;
},
{
layerId = "B6F795C8-F751-4DF7-955B-5EAABF4BC2BE";
width = 600;
},
{
layerId = "E103E4E6-9333-477C-9ADC-F52051F3C867";
width = 600;
}
);
leftKerningGroup = u;
rightKerningGroup = u;
unicode = 0079;
},
{
glyphname = z;
lastChange = "2020-08-01 17:46:58 +0000";
layers = (
{
layerId = "AEA248FC-48D8-43C3-8E42-77E797A92BBC";
paths = (
{
closed = 1;
nodes = (
"147 55 LINE",
"171 86 OFFCURVE",
"222 177 OFFCURVE",
"276 250 CURVE SMOOTH",
"335 330 OFFCURVE",
"411 440 OFFCURVE",
"429 460 CURVE",
"316 460 LINE",
"316 444 LINE",
"292 412 OFFCURVE",
"236 317 OFFCURVE",
"189 251 CURVE SMOOTH",
"127 164 OFFCURVE",
"54 62 OFFCURVE",
"34 40 CURVE",
"147 40 LINE"
);
},
{
closed = 1;
nodes = (
"236 500 LINE",
"34 500 LINE",
"30 495 LINE",
"30 465 LINE",
"34 460 LINE",
"429 460 LINE",
"434 465 LINE",
"434 495 LINE",
"429 500 LINE"
);
},
{
closed = 1;
nodes = (
"424 5 LINE",
"424 35 LINE",
"419 40 LINE",
"34 40 LINE",
"30 35 LINE",
"30 5 LINE",
"34 0 LINE",
"236 0 LINE",
"419 0 LINE"
);
}
);
width = 464;
},
{
associatedMasterId = "E103E4E6-9333-477C-9ADC-F52051F3C867";
layerId = "8E169918-2BDA-47B4-A650-6EBA9D9168E8";
paths = (
{
closed = 1;
nodes = (
"147 55 LINE",
"171 86 OFFCURVE",
"222 177 OFFCURVE",
"276 250 CURVE SMOOTH",
"335 330 OFFCURVE",
"411 440 OFFCURVE",
"429 460 CURVE",
"316 460 LINE",
"316 444 LINE",
"292 412 OFFCURVE",
"236 317 OFFCURVE",
"189 251 CURVE SMOOTH",
"127 164 OFFCURVE",
"54 62 OFFCURVE",
"34 40 CURVE",
"147 40 LINE"
);
},
{
closed = 1;
nodes = (
"236 500 LINE",
"34 500 LINE",
"30 495 LINE",
"30 465 LINE",
"34 460 LINE",
"429 460 LINE",
"434 465 LINE",
"434 495 LINE",
"429 500 LINE"
);
},
{
closed = 1;
nodes = (
"424 5 LINE",
"424 35 LINE",
"419 40 LINE",
"34 40 LINE",
"30 35 LINE",
"30 5 LINE",
"34 0 LINE",
"236 0 LINE",
"419 0 LINE"
);
}
);
width = 464;
},
{
layerId = "B6F795C8-F751-4DF7-955B-5EAABF4BC2BE";
width = 600;
},
{
layerId = "E103E4E6-9333-477C-9ADC-F52051F3C867";
width = 600;
}
);
leftKerningGroup = z;
rightKerningGroup = z;
unicode = 007A;
},
{
glyphname = a.ss.001;
lastChange = "2020-07-30 10:14:06 +0000";
layers = (
{
layerId = "E103E4E6-9333-477C-9ADC-F52051F3C867";
width = 600;
},
{
layerId = "AEA248FC-48D8-43C3-8E42-77E797A92BBC";
paths = (
{
closed = 1;
nodes = (
"548 0 LINE",
"553 5 LINE",
"544 87 OFFCURVE",
"539 175 OFFCURVE",
"539 256 CURVE SMOOTH",
"539 322 OFFCURVE",
"544 424 OFFCURVE",
"553 500 CURVE",
"548 505 LINE",
"523 500 OFFCURVE",
"467 500 OFFCURVE",
"442 505 CURVE",
"437 500 LINE",
"446 423 OFFCURVE",
"451 333 OFFCURVE",
"451 256 CURVE SMOOTH",
"451 176 OFFCURVE",
"446 86 OFFCURVE",
"437 5 CURVE",
"442 0 LINE"
);
},
{
closed = 1;
nodes = (
"138 515 OFFCURVE",
"36 409 OFFCURVE",
"36 250 CURVE SMOOTH",
"36 91 OFFCURVE",
"130 -15 OFFCURVE",
"271 -15 CURVE SMOOTH",
"391 -15 OFFCURVE",
"455 77 OFFCURVE",
"470 108 CURVE",
"472 162 LINE",
"453 117 OFFCURVE",
"401 25 OFFCURVE",
"305 25 CURVE SMOOTH",
"204 25 OFFCURVE",
"136 123 OFFCURVE",
"136 250 CURVE SMOOTH",
"136 377 OFFCURVE",
"204 485 OFFCURVE",
"295 485 CURVE SMOOTH",
"401 485 OFFCURVE",
"452 383 OFFCURVE",
"451 283 CURVE",
"500 362 LINE",
"492 423 OFFCURVE",
"422 515 OFFCURVE",
"281 515 CURVE SMOOTH"
);
}
);
width = 600;
},
{
layerId = "B6F795C8-F751-4DF7-955B-5EAABF4BC2BE";
width = 600;
}
);
},
{
glyphname = g.ss.001;
lastChange = "2020-07-30 10:14:06 +0000";
layers = (
{
layerId = "AEA248FC-48D8-43C3-8E42-77E797A92BBC";
paths = (
{
closed = 1;
nodes = (
"511 -152 OFFCURVE",
"511 164 CURVE SMOOTH",
"511 216 OFFCURVE",
"516 447 OFFCURVE",
"525 500 CURVE",
"520 505 LINE",
"508 503 OFFCURVE",
"487 502 OFFCURVE",
"467 502 CURVE SMOOTH",
"447 502 OFFCURVE",
"427 503 OFFCURVE",
"414 505 CURVE",
"409 500 LINE",
"418 447 OFFCURVE",
"423 217 OFFCURVE",
"423 164 CURVE SMOOTH",
"423 -91 OFFCURVE",
"374 -209 OFFCURVE",
"268 -209 CURVE SMOOTH",
"195 -209 OFFCURVE",
"127 -101 OFFCURVE",
"118 -87 CURVE",
"114 -93 LINE",
"114 -196 LINE",
"119 -200 LINE",
"129 -205 OFFCURVE",
"210 -239 OFFCURVE",
"293 -239 CURVE SMOOTH",
"461 -239 OFFCURVE"
);
},
{
closed = 1;
nodes = (
"431 -15 OFFCURVE",
"501 77 OFFCURVE",
"509 138 CURVE",
"460 217 LINE",
"461 117 OFFCURVE",
"410 15 OFFCURVE",
"314 15 CURVE SMOOTH",
"213 15 OFFCURVE",
"145 123 OFFCURVE",
"145 250 CURVE SMOOTH",
"145 377 OFFCURVE",
"213 475 OFFCURVE",
"314 475 CURVE SMOOTH",
"410 475 OFFCURVE",
"462 400 OFFCURVE",
"481 355 CURVE",
"479 392 LINE",
"464 423 OFFCURVE",
"400 515 OFFCURVE",
"280 515 CURVE SMOOTH",
"139 515 OFFCURVE",
"45 409 OFFCURVE",
"45 250 CURVE SMOOTH",
"45 91 OFFCURVE",
"147 -15 OFFCURVE",
"300 -15 CURVE SMOOTH"
);
}
);
width = 590;
},
{
layerId = "B6F795C8-F751-4DF7-955B-5EAABF4BC2BE";
width = 600;
},
{
layerId = "E103E4E6-9333-477C-9ADC-F52051F3C867";
width = 600;
}
);
leftKerningGroup = q;
leftMetricsKey = "=q";
rightKerningGroup = j;
rightMetricsKey = "=j";
},
{
glyphname = y.ss.001;
lastChange = "2020-08-01 09:04:03 +0000";
layers = (
{
layerId = "AEA248FC-48D8-43C3-8E42-77E797A92BBC";
paths = (
{
closed = 1;
nodes = (
"331 0 LINE",
"337 4 LINE",
"368 95 OFFCURVE",
"498 425 OFFCURVE",
"531 500 CURVE",
"526 505 LINE",
"501 501 OFFCURVE",
"487 501 OFFCURVE",
"465 505 CURVE",
"460 500 LINE",
"442 426 OFFCURVE",
"313 85 OFFCURVE",
"313 42 CURVE",
"293 42 LINE",
"293 85 OFFCURVE",
"148 426 OFFCURVE",
"130 500 CURVE",
"125 505 LINE",
"103 501 OFFCURVE",
"45 501 OFFCURVE",
"20 505 CURVE",
"15 500 LINE",
"66 425 OFFCURVE",
"206 101 OFFCURVE",
"224 4 CURVE",
"230 0 LINE"
);
},
{
closed = 1;
nodes = (
"299 25 LINE",
"267 -68 OFFCURVE",
"227 -179 OFFCURVE",
"212 -220 CURVE",
"217 -225 LINE",
"257 -225 LINE",
"262 -220 LINE",
"272 -180 OFFCURVE",
"314 -65 OFFCURVE",
"344 25 CURVE"
);
}
);
width = 546;
},
{
associatedMasterId = "AEA248FC-48D8-43C3-8E42-77E797A92BBC";
layerId = "FF41026B-A083-428C-9CCF-14CD152FD910";
name = "Jul 19 20, 23:47";
paths = (
{
closed = 1;
nodes = (
"547 256 LINE",
"547 332 OFFCURVE",
"552 424 OFFCURVE",
"561 500 CURVE",
"556 505 LINE",
"531 500 OFFCURVE",
"475 500 OFFCURVE",
"450 505 CURVE",
"445 500 LINE",
"454 423 OFFCURVE",
"459 333 OFFCURVE",
"459 256 CURVE",
"459 60 LINE",
"459 -79 OFFCURVE",
"452 -210 OFFCURVE",
"311 -210 CURVE SMOOTH",
"226 -210 OFFCURVE",
"189 -142 OFFCURVE",
"172 -47 CURVE",
"152 -47 LINE",
"142 -83 OFFCURVE",
"115 -127 OFFCURVE",
"91 -153 CURVE",
"96 -168 LINE",
"152 -215 OFFCURVE",
"226 -240 OFFCURVE",
"317 -240 CURVE SMOOTH",
"547 -240 OFFCURVE",
"547 -99 OFFCURVE",
"547 60 CURVE SMOOTH"
);
},
{
closed = 1;
nodes = (
"179 333 OFFCURVE",
"183 423 OFFCURVE",
"192 500 CURVE",
"187 505 LINE",
"162 500 OFFCURVE",
"106 500 OFFCURVE",
"81 505 CURVE",
"76 500 LINE",
"85 424 OFFCURVE",
"90 332 OFFCURVE",
"90 256 CURVE",
"91 231 OFFCURVE",
"91 204 OFFCURVE",
"91 174 CURVE SMOOTH",
"91 7 OFFCURVE",
"203 -15 OFFCURVE",
"272 -15 CURVE SMOOTH",
"395 -15 OFFCURVE",
"464 75 OFFCURVE",
"478 101 CURVE",
"480 155 LINE",
"463 117 OFFCURVE",
"401 26 OFFCURVE",
"311 25 CURVE SMOOTH",
"212 24 OFFCURVE",
"179 111 OFFCURVE",
"179 204 CURVE SMOOTH",
"179 222 OFFCURVE",
"179 240 OFFCURVE",
"179 256 CURVE SMOOTH"
);
}
);
width = 600;
},
{
associatedMasterId = "E103E4E6-9333-477C-9ADC-F52051F3C867";
layerId = "8E169918-2BDA-47B4-A650-6EBA9D9168E8";
paths = (
{
closed = 1;
nodes = (
"331 0 LINE",
"337 4 LINE",
"368 95 OFFCURVE",
"498 425 OFFCURVE",
"531 500 CURVE",
"526 505 LINE",
"501 501 OFFCURVE",
"487 501 OFFCURVE",
"465 505 CURVE",
"460 500 LINE",
"442 426 OFFCURVE",
"313 85 OFFCURVE",
"313 42 CURVE",
"293 42 LINE",
"293 85 OFFCURVE",
"148 426 OFFCURVE",
"130 500 CURVE",
"125 505 LINE",
"103 501 OFFCURVE",
"45 501 OFFCURVE",
"20 505 CURVE",
"15 500 LINE",
"66 425 OFFCURVE",
"206 101 OFFCURVE",
"224 4 CURVE",
"230 0 LINE"
);
},
{
closed = 1;
nodes = (
"299 25 LINE",
"267 -68 OFFCURVE",
"227 -179 OFFCURVE",
"212 -220 CURVE",
"217 -225 LINE",
"257 -225 LINE",
"262 -220 LINE",
"272 -180 OFFCURVE",
"314 -65 OFFCURVE",
"344 25 CURVE"
);
}
);
width = 546;
},
{
associatedMasterId = "E103E4E6-9333-477C-9ADC-F52051F3C867";
layerId = "AACD4361-579F-47C6-A627-391BFD464F47";
name = "Jul 19 20, 23:47";
paths = (
{
closed = 1;
nodes = (
"547 256 LINE",
"547 332 OFFCURVE",
"552 424 OFFCURVE",
"561 500 CURVE",
"556 505 LINE",
"531 500 OFFCURVE",
"475 500 OFFCURVE",
"450 505 CURVE",
"445 500 LINE",
"454 423 OFFCURVE",
"459 333 OFFCURVE",
"459 256 CURVE",
"459 60 LINE",
"459 -79 OFFCURVE",
"452 -210 OFFCURVE",
"311 -210 CURVE SMOOTH",
"226 -210 OFFCURVE",
"189 -142 OFFCURVE",
"172 -47 CURVE",
"152 -47 LINE",
"142 -83 OFFCURVE",
"115 -127 OFFCURVE",
"91 -153 CURVE",
"96 -168 LINE",
"152 -215 OFFCURVE",
"226 -240 OFFCURVE",
"317 -240 CURVE SMOOTH",
"547 -240 OFFCURVE",
"547 -99 OFFCURVE",
"547 60 CURVE SMOOTH"
);
},
{
closed = 1;
nodes = (
"179 333 OFFCURVE",
"183 423 OFFCURVE",
"192 500 CURVE",
"187 505 LINE",
"162 500 OFFCURVE",
"106 500 OFFCURVE",
"81 505 CURVE",
"76 500 LINE",
"85 424 OFFCURVE",
"90 332 OFFCURVE",
"90 256 CURVE",
"91 231 OFFCURVE",
"91 204 OFFCURVE",
"91 174 CURVE SMOOTH",
"91 7 OFFCURVE",
"203 -15 OFFCURVE",
"272 -15 CURVE SMOOTH",
"395 -15 OFFCURVE",
"464 75 OFFCURVE",
"478 101 CURVE",
"480 155 LINE",
"463 117 OFFCURVE",
"401 26 OFFCURVE",
"311 25 CURVE SMOOTH",
"212 24 OFFCURVE",
"179 111 OFFCURVE",
"179 204 CURVE SMOOTH",
"179 222 OFFCURVE",
"179 240 OFFCURVE",
"179 256 CURVE SMOOTH"
);
}
);
width = 600;
},
{
layerId = "B6F795C8-F751-4DF7-955B-5EAABF4BC2BE";
width = 600;
},
{
layerId = "E103E4E6-9333-477C-9ADC-F52051F3C867";
width = 600;
}
);
leftKerningGroup = y;
leftMetricsKey = "=v";
rightKerningGroup = v;
rightMetricsKey = v;
},
{
glyphname = c_t;
lastChange = "2020-07-30 10:34:08 +0000";
layers = (
{
layerId = "E103E4E6-9333-477C-9ADC-F52051F3C867";
width = 600;
},
{
components = (
{
name = c;
}
);
layerId = "AEA248FC-48D8-43C3-8E42-77E797A92BBC";
paths = (
{
closed = 1;
nodes = (
"752 701 OFFCURVE",
"656 777 OFFCURVE",
"523 735 CURVE SMOOTH",
"435 707 OFFCURVE",
"406 593 OFFCURVE",
"495 420 CURVE",
"525 443 LINE",
"470 571 OFFCURVE",
"489 655 OFFCURVE",
"546 675 CURVE SMOOTH",
"609 697 OFFCURVE",
"660 640 OFFCURVE",
"664 499 CURVE",
"752 499 LINE"
);
},
{
closed = 1;
nodes = (
"664 499 LINE",
"664 156 LINE",
"664 84 OFFCURVE",
"664 -15 OFFCURVE",
"781 -15 CURVE SMOOTH",
"834 -15 OFFCURVE",
"866 1 OFFCURVE",
"875 5 CURVE",
"880 9 LINE",
"880 62 LINE",
"876 68 LINE",
"867 64 OFFCURVE",
"849 15 OFFCURVE",
"806 15 CURVE SMOOTH",
"755 15 OFFCURVE",
"752 84 OFFCURVE",
"752 156 CURVE",
"752 499 LINE"
);
},
{
closed = 1;
nodes = (
"877 470 LINE",
"882 475 LINE",
"882 495 LINE",
"877 500 LINE",
"609 500 LINE",
"594 472 LINE",
"594 475 LINE",
"599 470 LINE"
);
}
);
width = 907;
},
{
layerId = "B6F795C8-F751-4DF7-955B-5EAABF4BC2BE";
width = 600;
}
);
},
{
glyphname = f_f_i;
lastChange = "2020-07-31 09:03:17 +0000";
layers = (
{
layerId = "AEA248FC-48D8-43C3-8E42-77E797A92BBC";
paths = (
{
closed = 1;
nodes = (
"715 479 LINE",
"715 487 LINE",
"644 479 OFFCURVE",
"583 523 OFFCURVE",
"583 606 CURVE SMOOTH",
"583 674 OFFCURVE",
"633 720 OFFCURVE",
"707 720 CURVE SMOOTH",
"816 720 OFFCURVE",
"888 647 OFFCURVE",
"888 537 CURVE",
"911 537 LINE",
"950 623 LINE",
"920 699 OFFCURVE",
"826 750 OFFCURVE",
"715 750 CURVE SMOOTH",
"588 750 OFFCURVE",
"503 692 OFFCURVE",
"503 606 CURVE SMOOTH",
"503 547 OFFCURVE",
"524 505 OFFCURVE",
"559 479 CURVE"
);
},
{
closed = 1;
nodes = (
"529 499 LINE",
"529 366 LINE SMOOTH",
"529 179 OFFCURVE",
"529 62 OFFCURVE",
"515 5 CURVE",
"520 0 LINE",
"631 0 LINE",
"636 5 LINE",
"622 62 OFFCURVE",
"622 179 OFFCURVE",
"622 366 CURVE SMOOTH",
"622 420 OFFCURVE",
"622 485 OFFCURVE",
"622 499 CURVE"
);
},
{
closed = 1;
nodes = (
"597 500 LINE",
"539 500 OFFCURVE",
"498 498 OFFCURVE",
"435 500 CURVE",
"426 497 LINE",
"426 473 LINE",
"435 469 LINE",
"498 471 OFFCURVE",
"537 470 OFFCURVE",
"597 470 CURVE"
);
},
{
closed = 1;
nodes = (
"661 469 OFFCURVE",
"848 469 OFFCURVE",
"920 468 CURVE",
"929 473 LINE",
"929 497 LINE",
"920 500 LINE",
"597 500 LINE",
"597 470 LINE"
);
},
{
closed = 1;
nodes = (
"894 0 OFFCURVE",
"950 0 OFFCURVE",
"975 0 CURVE",
"980 5 LINE",
"971 87 OFFCURVE",
"966 175 OFFCURVE",
"966 256 CURVE SMOOTH",
"966 332 OFFCURVE",
"971 419 OFFCURVE",
"980 495 CURVE",
"975 500 LINE",
"873 500 LINE",
"873 420 OFFCURVE",
"878 333 OFFCURVE",
"878 256 CURVE SMOOTH",
"878 176 OFFCURVE",
"873 86 OFFCURVE",
"864 5 CURVE",
"869 0 LINE"
);
},
{
closed = 1;
nodes = (
"344 479 LINE",
"344 487 LINE",
"273 479 OFFCURVE",
"212 523 OFFCURVE",
"212 606 CURVE SMOOTH",
"212 674 OFFCURVE",
"262 720 OFFCURVE",
"336 720 CURVE SMOOTH",
"445 720 OFFCURVE",
"517 647 OFFCURVE",
"517 537 CURVE",
"540 537 LINE",
"579 623 LINE",
"549 699 OFFCURVE",
"455 750 OFFCURVE",
"344 750 CURVE SMOOTH",
"217 750 OFFCURVE",
"132 692 OFFCURVE",
"132 606 CURVE SMOOTH",
"132 547 OFFCURVE",
"153 505 OFFCURVE",
"188 479 CURVE"
);
},
{
closed = 1;
nodes = (
"158 499 LINE",
"158 366 LINE SMOOTH",
"158 179 OFFCURVE",
"158 62 OFFCURVE",
"144 5 CURVE",
"149 0 LINE",
"260 0 LINE",
"265 5 LINE",
"251 62 OFFCURVE",
"251 179 OFFCURVE",
"251 366 CURVE SMOOTH",
"251 420 OFFCURVE",
"251 485 OFFCURVE",
"251 499 CURVE"
);
},
{
closed = 1;
nodes = (
"226 500 LINE",
"168 500 OFFCURVE",
"127 500 OFFCURVE",
"64 502 CURVE",
"55 497 LINE",
"55 473 LINE",
"64 468 LINE",
"127 470 OFFCURVE",
"166 470 OFFCURVE",
"226 470 CURVE"
);
},
{
closed = 1;
nodes = (
"290 469 OFFCURVE",
"477 469 OFFCURVE",
"549 468 CURVE",
"558 473 LINE",
"558 497 LINE",
"549 500 LINE",
"226 500 LINE",
"226 470 LINE"
);
}
);
width = 1032;
},
{
associatedMasterId = "E103E4E6-9333-477C-9ADC-F52051F3C867";
components = (
{
name = f;
},
{
name = f;
transform = "{1, 0, 0, 1, 390, 0}";
},
{
name = i;
transform = "{1, 0, 0, 1, 780, 0}";
}
);
layerId = "8E169918-2BDA-47B4-A650-6EBA9D9168E8";
width = 1032;
},
{
layerId = "E103E4E6-9333-477C-9ADC-F52051F3C867";
width = 600;
},
{
layerId = "B6F795C8-F751-4DF7-955B-5EAABF4BC2BE";
width = 600;
}
);
leftKerningGroup = f;
leftMetricsKey = f;
rightKerningGroup = i;
rightMetricsKey = i;
},
{
glyphname = f_i;
lastChange = "2020-07-30 10:15:27 +0000";
layers = (
{
layerId = "AEA248FC-48D8-43C3-8E42-77E797A92BBC";
paths = (
{
closed = 1;
nodes = (
"309 479 LINE",
"309 487 LINE",
"240 479 OFFCURVE",
"177 523 OFFCURVE",
"177 606 CURVE SMOOTH",
"177 674 OFFCURVE",
"227 720 OFFCURVE",
"301 720 CURVE SMOOTH",
"410 720 OFFCURVE",
"482 647 OFFCURVE",
"482 537 CURVE",
"505 537 LINE",
"544 623 LINE",
"514 699 OFFCURVE",
"420 750 OFFCURVE",
"309 750 CURVE SMOOTH",
"182 750 OFFCURVE",
"97 692 OFFCURVE",
"97 606 CURVE SMOOTH",
"97 547 OFFCURVE",
"118 505 OFFCURVE",
"153 479 CURVE"
);
},
{
closed = 1;
nodes = (
"123 499 LINE",
"123 366 LINE SMOOTH",
"123 179 OFFCURVE",
"123 62 OFFCURVE",
"109 5 CURVE",
"114 0 LINE",
"225 0 LINE",
"230 5 LINE",
"216 62 OFFCURVE",
"216 179 OFFCURVE",
"216 366 CURVE SMOOTH",
"216 420 OFFCURVE",
"216 485 OFFCURVE",
"216 499 CURVE"
);
},
{
closed = 1;
nodes = (
"191 500 LINE",
"133 500 OFFCURVE",
"92 500 OFFCURVE",
"29 502 CURVE",
"20 497 LINE",
"20 473 LINE",
"29 468 LINE",
"92 470 OFFCURVE",
"131 470 OFFCURVE",
"191 470 CURVE"
);
},
{
closed = 1;
nodes = (
"255 470 OFFCURVE",
"442 470 OFFCURVE",
"514 468 CURVE",
"523 473 LINE",
"523 497 LINE",
"514 500 LINE",
"191 500 LINE",
"191 470 LINE"
);
},
{
closed = 1;
nodes = (
"488 0 OFFCURVE",
"544 0 OFFCURVE",
"569 0 CURVE",
"574 5 LINE",
"565 87 OFFCURVE",
"560 175 OFFCURVE",
"560 256 CURVE SMOOTH",
"560 332 OFFCURVE",
"565 419 OFFCURVE",
"574 495 CURVE",
"569 500 LINE",
"467 500 LINE",
"467 420 OFFCURVE",
"472 333 OFFCURVE",
"472 256 CURVE SMOOTH",
"472 176 OFFCURVE",
"467 86 OFFCURVE",
"458 5 CURVE",
"463 0 LINE"
);
}
);
width = 639;
},
{
associatedMasterId = "E103E4E6-9333-477C-9ADC-F52051F3C867";
layerId = "8E169918-2BDA-47B4-A650-6EBA9D9168E8";
paths = (
{
closed = 1;
nodes = (
"309 479 LINE",
"309 487 LINE",
"240 479 OFFCURVE",
"177 523 OFFCURVE",
"177 606 CURVE SMOOTH",
"177 674 OFFCURVE",
"227 720 OFFCURVE",
"301 720 CURVE SMOOTH",
"410 720 OFFCURVE",
"482 647 OFFCURVE",
"482 537 CURVE",
"505 537 LINE",
"544 623 LINE",
"514 699 OFFCURVE",
"420 750 OFFCURVE",
"309 750 CURVE SMOOTH",
"182 750 OFFCURVE",
"97 692 OFFCURVE",
"97 606 CURVE SMOOTH",
"97 547 OFFCURVE",
"118 505 OFFCURVE",
"153 479 CURVE"
);
},
{
closed = 1;
nodes = (
"123 499 LINE",
"123 366 LINE SMOOTH",
"123 179 OFFCURVE",
"123 62 OFFCURVE",
"109 5 CURVE",
"114 0 LINE",
"225 0 LINE",
"230 5 LINE",
"216 62 OFFCURVE",
"216 179 OFFCURVE",
"216 366 CURVE SMOOTH",
"216 420 OFFCURVE",
"216 485 OFFCURVE",
"216 499 CURVE"
);
},
{
closed = 1;
nodes = (
"191 500 LINE",
"133 500 OFFCURVE",
"92 500 OFFCURVE",
"29 502 CURVE",
"20 497 LINE",
"20 473 LINE",
"29 468 LINE",
"92 470 OFFCURVE",
"131 470 OFFCURVE",
"191 470 CURVE"
);
},
{
closed = 1;
nodes = (
"256 470 OFFCURVE",
"443 470 OFFCURVE",
"514 468 CURVE",
"523 473 LINE",
"523 497 LINE",
"514 500 LINE",
"191 500 LINE",
"191 470 LINE"
);
},
{
closed = 1;
nodes = (
"488 0 OFFCURVE",
"544 0 OFFCURVE",
"569 0 CURVE",
"574 5 LINE",
"565 87 OFFCURVE",
"560 175 OFFCURVE",
"560 256 CURVE SMOOTH",
"560 332 OFFCURVE",
"565 419 OFFCURVE",
"574 495 CURVE",
"569 500 LINE",
"467 500 LINE",
"467 420 OFFCURVE",
"472 333 OFFCURVE",
"472 256 CURVE SMOOTH",
"472 176 OFFCURVE",
"467 86 OFFCURVE",
"458 5 CURVE",
"463 0 LINE"
);
}
);
width = 639;
},
{
layerId = "E103E4E6-9333-477C-9ADC-F52051F3C867";
width = 600;
},
{
layerId = "B6F795C8-F751-4DF7-955B-5EAABF4BC2BE";
width = 600;
}
);
leftKerningGroup = f;
leftMetricsKey = f;
rightKerningGroup = i;
rightMetricsKey = i;
},
{
glyphname = f_l;
lastChange = "2020-07-30 10:15:30 +0000";
layers = (
{
layerId = "AEA248FC-48D8-43C3-8E42-77E797A92BBC";
paths = (
{
closed = 1;
nodes = (
"566 0 LINE",
"571 5 LINE",
"562 87 OFFCURVE",
"557 272 OFFCURVE",
"557 353 CURVE SMOOTH",
"557 429 OFFCURVE",
"562 624 OFFCURVE",
"571 700 CURVE",
"566 705 LINE",
"541 700 OFFCURVE",
"485 700 OFFCURVE",
"460 705 CURVE",
"455 700 LINE",
"464 623 OFFCURVE",
"469 430 OFFCURVE",
"469 353 CURVE SMOOTH",
"469 273 OFFCURVE",
"464 86 OFFCURVE",
"455 5 CURVE",
"460 0 LINE"
);
},
{
closed = 1;
nodes = (
"309 479 LINE",
"309 487 LINE",
"240 479 OFFCURVE",
"177 523 OFFCURVE",
"177 606 CURVE SMOOTH",
"177 674 OFFCURVE",
"227 720 OFFCURVE",
"301 720 CURVE SMOOTH",
"410 720 OFFCURVE",
"482 647 OFFCURVE",
"482 537 CURVE",
"505 537 LINE",
"544 623 LINE",
"514 699 OFFCURVE",
"420 750 OFFCURVE",
"309 750 CURVE SMOOTH",
"182 750 OFFCURVE",
"97 692 OFFCURVE",
"97 606 CURVE SMOOTH",
"97 547 OFFCURVE",
"118 505 OFFCURVE",
"153 479 CURVE"
);
},
{
closed = 1;
nodes = (
"123 499 LINE",
"123 366 LINE SMOOTH",
"123 179 OFFCURVE",
"123 62 OFFCURVE",
"109 5 CURVE",
"114 0 LINE",
"225 0 LINE",
"230 5 LINE",
"216 62 OFFCURVE",
"216 179 OFFCURVE",
"216 366 CURVE SMOOTH",
"216 420 OFFCURVE",
"216 485 OFFCURVE",
"216 499 CURVE"
);
},
{
closed = 1;
nodes = (
"191 500 LINE",
"133 500 OFFCURVE",
"92 500 OFFCURVE",
"29 502 CURVE",
"20 497 LINE",
"20 473 LINE",
"29 468 LINE",
"92 470 OFFCURVE",
"131 470 OFFCURVE",
"191 470 CURVE"
);
},
{
closed = 1;
nodes = (
"255 470 OFFCURVE",
"442 470 OFFCURVE",
"514 468 CURVE",
"523 473 LINE",
"523 497 LINE",
"514 500 LINE",
"191 500 LINE",
"191 470 LINE"
);
}
);
width = 636;
},
{
associatedMasterId = "E103E4E6-9333-477C-9ADC-F52051F3C867";
layerId = "8E169918-2BDA-47B4-A650-6EBA9D9168E8";
paths = (
{
closed = 1;
nodes = (
"309 479 LINE",
"309 487 LINE",
"208 479 OFFCURVE",
"117 527 OFFCURVE",
"117 616 CURVE SMOOTH",
"117 657 OFFCURVE",
"148 720 OFFCURVE",
"219 720 CURVE SMOOTH",
"292 720 OFFCURVE",
"302 650 OFFCURVE",
"303 589 CURVE",
"326 589 LINE",
"365 675 LINE",
"342 715 OFFCURVE",
"289 750 OFFCURVE",
"207 750 CURVE SMOOTH",
"105 750 OFFCURVE",
"37 688 OFFCURVE",
"37 616 CURVE SMOOTH",
"37 552 OFFCURVE",
"80 507 OFFCURVE",
"153 479 CURVE"
);
},
{
closed = 1;
nodes = (
"123 499 LINE",
"123 366 LINE SMOOTH",
"123 179 OFFCURVE",
"123 62 OFFCURVE",
"109 5 CURVE",
"114 0 LINE",
"225 0 LINE",
"230 5 LINE",
"216 62 OFFCURVE",
"216 179 OFFCURVE",
"216 366 CURVE SMOOTH",
"216 420 OFFCURVE",
"216 485 OFFCURVE",
"216 499 CURVE"
);
},
{
closed = 1;
nodes = (
"191 500 LINE",
"133 500 OFFCURVE",
"92 500 OFFCURVE",
"29 502 CURVE",
"20 497 LINE",
"20 473 LINE",
"29 468 LINE",
"92 470 OFFCURVE",
"131 470 OFFCURVE",
"191 470 CURVE"
);
},
{
closed = 1;
nodes = (
"256 470 OFFCURVE",
"284 470 OFFCURVE",
"355 468 CURVE",
"364 473 LINE",
"364 497 LINE",
"355 502 LINE",
"286 500 OFFCURVE",
"255 500 OFFCURVE",
"191 500 CURVE",
"191 470 LINE"
);
},
{
closed = 1;
nodes = (
"566 0 LINE",
"571 5 LINE",
"562 87 OFFCURVE",
"557 272 OFFCURVE",
"557 353 CURVE SMOOTH",
"557 429 OFFCURVE",
"562 624 OFFCURVE",
"571 700 CURVE",
"566 705 LINE",
"541 700 OFFCURVE",
"485 700 OFFCURVE",
"460 705 CURVE",
"455 700 LINE",
"464 623 OFFCURVE",
"469 430 OFFCURVE",
"469 353 CURVE SMOOTH",
"469 273 OFFCURVE",
"464 86 OFFCURVE",
"455 5 CURVE",
"460 0 LINE"
);
}
);
width = 636;
},
{
layerId = "E103E4E6-9333-477C-9ADC-F52051F3C867";
width = 600;
},
{
layerId = "B6F795C8-F751-4DF7-955B-5EAABF4BC2BE";
width = 600;
}
);
leftKerningGroup = f;
leftMetricsKey = f;
rightKerningGroup = l;
rightMetricsKey = l;
},
{
glyphname = s_t;
lastChange = "2020-07-30 10:34:50 +0000";
layers = (
{
layerId = "E103E4E6-9333-477C-9ADC-F52051F3C867";
width = 600;
},
{
components = (
{
name = s;
}
);
layerId = "AEA248FC-48D8-43C3-8E42-77E797A92BBC";
paths = (
{
closed = 1;
nodes = (
"699 695 OFFCURVE",
"603 771 OFFCURVE",
"470 729 CURVE SMOOTH",
"382 701 OFFCURVE",
"353 587 OFFCURVE",
"442 414 CURVE",
"472 437 LINE",
"417 565 OFFCURVE",
"436 649 OFFCURVE",
"493 669 CURVE SMOOTH",
"556 691 OFFCURVE",
"607 634 OFFCURVE",
"611 493 CURVE",
"699 493 LINE"
);
},
{
closed = 1;
nodes = (
"611 493 LINE",
"611 150 LINE",
"611 78 OFFCURVE",
"611 -21 OFFCURVE",
"728 -21 CURVE SMOOTH",
"781 -21 OFFCURVE",
"813 -5 OFFCURVE",
"822 -1 CURVE",
"827 3 LINE",
"827 56 LINE",
"823 62 LINE",
"814 58 OFFCURVE",
"796 9 OFFCURVE",
"753 9 CURVE SMOOTH",
"702 9 OFFCURVE",
"699 78 OFFCURVE",
"699 150 CURVE",
"699 493 LINE"
);
},
{
closed = 1;
nodes = (
"824 464 LINE",
"829 469 LINE",
"829 489 LINE",
"824 494 LINE",
"556 494 LINE",
"541 466 LINE",
"541 469 LINE",
"546 464 LINE"
);
}
);
width = 859;
},
{
layerId = "B6F795C8-F751-4DF7-955B-5EAABF4BC2BE";
width = 600;
}
);
},
{
glyphname = zero;
lastChange = "2020-07-30 10:14:06 +0000";
layers = (
{
layerId = "AEA248FC-48D8-43C3-8E42-77E797A92BBC";
paths = (
{
closed = 1;
nodes = (
"474 -15 OFFCURVE",
"566 120 OFFCURVE",
"566 348 CURVE SMOOTH",
"566 579 OFFCURVE",
"474 715 OFFCURVE",
"309 715 CURVE SMOOTH",
"144 715 OFFCURVE",
"52 579 OFFCURVE",
"52 348 CURVE SMOOTH",
"52 120 OFFCURVE",
"144 -15 OFFCURVE",
"309 -15 CURVE SMOOTH"
);
},
{
closed = 1;
nodes = (
"214 25 OFFCURVE",
"163 145 OFFCURVE",
"162 348 CURVE SMOOTH",
"161 554 OFFCURVE",
"212 675 OFFCURVE",
"309 675 CURVE SMOOTH",
"405 675 OFFCURVE",
"456 554 OFFCURVE",
"456 348 CURVE SMOOTH",
"456 145 OFFCURVE",
"405 25 OFFCURVE",
"309 25 CURVE SMOOTH"
);
}
);
width = 600;
},
{
associatedMasterId = "E103E4E6-9333-477C-9ADC-F52051F3C867";
layerId = "8E169918-2BDA-47B4-A650-6EBA9D9168E8";
paths = (
{
closed = 1;
nodes = (
"474 -15 OFFCURVE",
"566 120 OFFCURVE",
"566 348 CURVE SMOOTH",
"566 579 OFFCURVE",
"474 715 OFFCURVE",
"309 715 CURVE SMOOTH",
"144 715 OFFCURVE",
"52 579 OFFCURVE",
"52 348 CURVE SMOOTH",
"52 120 OFFCURVE",
"144 -15 OFFCURVE",
"309 -15 CURVE SMOOTH"
);
},
{
closed = 1;
nodes = (
"214 25 OFFCURVE",
"163 145 OFFCURVE",
"162 348 CURVE SMOOTH",
"161 554 OFFCURVE",
"212 675 OFFCURVE",
"309 675 CURVE SMOOTH",
"405 675 OFFCURVE",
"456 554 OFFCURVE",
"456 348 CURVE SMOOTH",
"456 145 OFFCURVE",
"405 25 OFFCURVE",
"309 25 CURVE SMOOTH"
);
}
);
width = 600;
},
{
layerId = "B6F795C8-F751-4DF7-955B-5EAABF4BC2BE";
width = 600;
},
{
layerId = "E103E4E6-9333-477C-9ADC-F52051F3C867";
width = 600;
}
);
unicode = 0030;
},
{
glyphname = one;
lastChange = "2020-07-30 10:14:06 +0000";
layers = (
{
layerId = "AEA248FC-48D8-43C3-8E42-77E797A92BBC";
paths = (
{
closed = 1;
nodes = (
"162 596 OFFCURVE",
"168 432 OFFCURVE",
"167 356 CURVE SMOOTH",
"166 276 OFFCURVE",
"162 86 OFFCURVE",
"153 5 CURVE",
"158 0 LINE",
"284 0 LINE",
"289 5 LINE",
"281 86 OFFCURVE",
"274 276 OFFCURVE",
"275 356 CURVE SMOOTH",
"276 432 OFFCURVE",
"280 616 OFFCURVE",
"289 695 CURVE",
"284 700 LINE",
"158 670 LINE",
"153 668 LINE"
);
},
{
closed = 1;
nodes = (
"196 686 OFFCURVE",
"128 677 OFFCURVE",
"40 670 CURVE",
"30 660 LINE",
"30 643 LINE",
"40 633 LINE",
"274 643 LINE",
"284 700 LINE"
);
}
);
width = 319;
},
{
layerId = "B6F795C8-F751-4DF7-955B-5EAABF4BC2BE";
width = 600;
},
{
associatedMasterId = "E103E4E6-9333-477C-9ADC-F52051F3C867";
layerId = "8E169918-2BDA-47B4-A650-6EBA9D9168E8";
paths = (
{
closed = 1;
nodes = (
"162 596 OFFCURVE",
"168 432 OFFCURVE",
"167 356 CURVE SMOOTH",
"166 276 OFFCURVE",
"162 86 OFFCURVE",
"153 5 CURVE",
"158 0 LINE",
"284 0 LINE",
"289 5 LINE",
"281 86 OFFCURVE",
"274 276 OFFCURVE",
"275 356 CURVE SMOOTH",
"276 432 OFFCURVE",
"280 616 OFFCURVE",
"289 695 CURVE",
"284 700 LINE",
"158 670 LINE",
"153 668 LINE"
);
},
{
closed = 1;
nodes = (
"196 686 OFFCURVE",
"128 677 OFFCURVE",
"40 670 CURVE",
"30 660 LINE",
"30 643 LINE",
"40 633 LINE",
"274 643 LINE",
"284 700 LINE"
);
}
);
width = 319;
},
{
layerId = "E103E4E6-9333-477C-9ADC-F52051F3C867";
width = 600;
}
);
unicode = 0031;
},
{
glyphname = two;
lastChange = "2020-07-30 10:14:06 +0000";
layers = (
{
layerId = "AEA248FC-48D8-43C3-8E42-77E797A92BBC";
paths = (
{
closed = 1;
nodes = (
"93 80 LINE",
"100 27 LINE",
"211 216 OFFCURVE",
"533 289 OFFCURVE",
"533 528 CURVE SMOOTH",
"533 644 OFFCURVE",
"450 715 OFFCURVE",
"309 715 CURVE SMOOTH",
"178 715 OFFCURVE",
"84 627 OFFCURVE",
"84 477 CURVE",
"194 497 LINE",
"194 609 OFFCURVE",
"237 675 OFFCURVE",
"309 675 CURVE SMOOTH",
"381 675 OFFCURVE",
"423 619 OFFCURVE",
"423 528 CURVE SMOOTH",
"423 308 OFFCURVE",
"106 191 OFFCURVE",
"64 41 CURVE",
"64 5 LINE",
"68 0 LINE",
"540 0 LINE",
"543 5 LINE",
"543 75 LINE",
"540 80 LINE"
);
}
);
width = 600;
},
{
layerId = "B6F795C8-F751-4DF7-955B-5EAABF4BC2BE";
width = 600;
},
{
associatedMasterId = "E103E4E6-9333-477C-9ADC-F52051F3C867";
layerId = "8E169918-2BDA-47B4-A650-6EBA9D9168E8";
paths = (
{
closed = 1;
nodes = (
"93 80 LINE",
"100 27 LINE",
"211 216 OFFCURVE",
"533 289 OFFCURVE",
"533 528 CURVE SMOOTH",
"533 644 OFFCURVE",
"450 715 OFFCURVE",
"309 715 CURVE SMOOTH",
"178 715 OFFCURVE",
"84 627 OFFCURVE",
"84 477 CURVE",
"194 497 LINE",
"194 609 OFFCURVE",
"237 675 OFFCURVE",
"309 675 CURVE SMOOTH",
"381 675 OFFCURVE",
"423 619 OFFCURVE",
"423 528 CURVE SMOOTH",
"423 308 OFFCURVE",
"106 191 OFFCURVE",
"64 41 CURVE",
"64 5 LINE",
"68 0 LINE",
"540 0 LINE",
"543 5 LINE",
"543 75 LINE",
"540 80 LINE"
);
}
);
width = 600;
},
{
layerId = "E103E4E6-9333-477C-9ADC-F52051F3C867";
width = 600;
}
);
unicode = 0032;
},
{
glyphname = three;
lastChange = "2020-07-30 10:14:06 +0000";
layers = (
{
layerId = "AEA248FC-48D8-43C3-8E42-77E797A92BBC";
paths = (
{
closed = 1;
nodes = (
"74 222 LINE",
"87 85 OFFCURVE",
"202 -12 OFFCURVE",
"309 -12 CURVE SMOOTH",
"422 -12 OFFCURVE",
"533 80 OFFCURVE",
"533 195 CURVE SMOOTH",
"533 260 OFFCURVE",
"489 329 OFFCURVE",
"428 337 CURVE",
"428 352 LINE",
"428 367 LINE",
"489 378 OFFCURVE",
"533 432 OFFCURVE",
"533 508 CURVE SMOOTH",
"533 623 OFFCURVE",
"422 715 OFFCURVE",
"309 715 CURVE SMOOTH",
"202 715 OFFCURVE",
"87 618 OFFCURVE",
"74 480 CURVE",
"184 500 LINE",
"189 621 OFFCURVE",
"236 675 OFFCURVE",
"309 675 CURVE SMOOTH",
"385 675 OFFCURVE",
"423 612 OFFCURVE",
"423 508 CURVE SMOOTH",
"423 443 OFFCURVE",
"399 394 OFFCURVE",
"353 381 CURVE SMOOTH",
"318 371 OFFCURVE",
"284 371 OFFCURVE",
"249 371 CURVE",
"249 352 LINE",
"249 334 LINE",
"284 334 OFFCURVE",
"318 334 OFFCURVE",
"353 324 CURVE SMOOTH",
"399 311 OFFCURVE",
"423 260 OFFCURVE",
"423 195 CURVE SMOOTH",
"423 91 OFFCURVE",
"385 28 OFFCURVE",
"309 28 CURVE SMOOTH",
"237 28 OFFCURVE",
"189 82 OFFCURVE",
"184 202 CURVE"
);
}
);
width = 600;
},
{
associatedMasterId = "E103E4E6-9333-477C-9ADC-F52051F3C867";
layerId = "8E169918-2BDA-47B4-A650-6EBA9D9168E8";
paths = (
{
closed = 1;
nodes = (
"74 222 LINE",
"87 85 OFFCURVE",
"202 -12 OFFCURVE",
"309 -12 CURVE SMOOTH",
"422 -12 OFFCURVE",
"533 80 OFFCURVE",
"533 195 CURVE SMOOTH",
"533 260 OFFCURVE",
"489 329 OFFCURVE",
"428 337 CURVE",
"428 352 LINE",
"428 367 LINE",
"489 378 OFFCURVE",
"533 432 OFFCURVE",
"533 508 CURVE SMOOTH",
"533 623 OFFCURVE",
"422 715 OFFCURVE",
"309 715 CURVE SMOOTH",
"202 715 OFFCURVE",
"87 618 OFFCURVE",
"74 480 CURVE",
"184 500 LINE",
"189 621 OFFCURVE",
"236 675 OFFCURVE",
"309 675 CURVE SMOOTH",
"385 675 OFFCURVE",
"423 612 OFFCURVE",
"423 508 CURVE SMOOTH",
"423 443 OFFCURVE",
"399 394 OFFCURVE",
"353 381 CURVE SMOOTH",
"318 371 OFFCURVE",
"284 371 OFFCURVE",
"249 371 CURVE",
"249 352 LINE",
"249 334 LINE",
"284 334 OFFCURVE",
"318 334 OFFCURVE",
"353 324 CURVE SMOOTH",
"399 311 OFFCURVE",
"423 260 OFFCURVE",
"423 195 CURVE SMOOTH",
"423 91 OFFCURVE",
"385 28 OFFCURVE",
"309 28 CURVE SMOOTH",
"237 28 OFFCURVE",
"189 82 OFFCURVE",
"184 202 CURVE"
);
}
);
width = 600;
},
{
layerId = "E103E4E6-9333-477C-9ADC-F52051F3C867";
width = 600;
},
{
layerId = "B6F795C8-F751-4DF7-955B-5EAABF4BC2BE";
width = 600;
}
);
unicode = 0033;
},
{
glyphname = four;
lastChange = "2020-07-30 10:14:06 +0000";
layers = (
{
layerId = "AEA248FC-48D8-43C3-8E42-77E797A92BBC";
paths = (
{
closed = 1;
nodes = (
"328 616 OFFCURVE",
"334 432 OFFCURVE",
"333 356 CURVE SMOOTH",
"332 276 OFFCURVE",
"328 86 OFFCURVE",
"319 5 CURVE",
"324 0 LINE",
"450 0 LINE",
"455 5 LINE",
"447 86 OFFCURVE",
"440 276 OFFCURVE",
"441 356 CURVE SMOOTH",
"442 432 OFFCURVE",
"446 616 OFFCURVE",
"455 695 CURVE",
"450 700 LINE",
"324 700 LINE",
"320 689 LINE"
);
},
{
closed = 1;
nodes = (
"20 186 LINE",
"517 186 LINE",
"522 191 LINE",
"522 221 LINE",
"517 226 LINE",
"73 226 LINE",
"177 349 OFFCURVE",
"264 526 OFFCURVE",
"342 658 CURVE",
"324 700 LINE",
"237 548 OFFCURVE",
"129 356 OFFCURVE",
"20 222 CURVE"
);
}
);
width = 562;
},
{
associatedMasterId = "E103E4E6-9333-477C-9ADC-F52051F3C867";
layerId = "8E169918-2BDA-47B4-A650-6EBA9D9168E8";
paths = (
{
closed = 1;
nodes = (
"328 616 OFFCURVE",
"334 432 OFFCURVE",
"333 356 CURVE SMOOTH",
"332 276 OFFCURVE",
"328 86 OFFCURVE",
"319 5 CURVE",
"324 0 LINE",
"450 0 LINE",
"455 5 LINE",
"447 86 OFFCURVE",
"440 276 OFFCURVE",
"441 356 CURVE SMOOTH",
"442 432 OFFCURVE",
"446 616 OFFCURVE",
"455 695 CURVE",
"450 700 LINE",
"324 700 LINE",
"320 689 LINE"
);
},
{
closed = 1;
nodes = (
"20 186 LINE",
"517 186 LINE",
"522 191 LINE",
"522 221 LINE",
"517 226 LINE",
"73 226 LINE",
"177 349 OFFCURVE",
"264 526 OFFCURVE",
"342 658 CURVE",
"324 700 LINE",
"237 548 OFFCURVE",
"129 356 OFFCURVE",
"20 222 CURVE"
);
}
);
width = 562;
},
{
layerId = "E103E4E6-9333-477C-9ADC-F52051F3C867";
width = 600;
},
{
layerId = "B6F795C8-F751-4DF7-955B-5EAABF4BC2BE";
width = 600;
}
);
unicode = 0034;
},
{
glyphname = five;
lastChange = "2020-07-30 10:14:06 +0000";
layers = (
{
layerId = "AEA248FC-48D8-43C3-8E42-77E797A92BBC";
paths = (
{
closed = 1;
nodes = (
"92 184 LINE",
"112 68 OFFCURVE",
"212 -12 OFFCURVE",
"309 -12 CURVE SMOOTH",
"422 -12 OFFCURVE",
"533 80 OFFCURVE",
"533 215 CURVE SMOOTH",
"533 370 OFFCURVE",
"422 462 OFFCURVE",
"309 462 CURVE SMOOTH",
"204 462 OFFCURVE",
"146 396 OFFCURVE",
"109 323 CURVE",
"171 323 LINE",
"179 370 OFFCURVE",
"191 422 OFFCURVE",
"309 422 CURVE SMOOTH",
"405 422 OFFCURVE",
"423 359 OFFCURVE",
"423 215 CURVE SMOOTH",
"423 91 OFFCURVE",
"405 28 OFFCURVE",
"315 28 CURVE SMOOTH",
"245 28 OFFCURVE",
"218 73 OFFCURVE",
"217 165 CURVE"
);
},
{
closed = 1;
nodes = (
"136 700 LINE",
"109 323 LINE",
"147 323 LINE",
"173 620 LINE",
"502 620 LINE",
"507 625 LINE",
"507 695 LINE",
"502 700 LINE"
);
}
);
width = 600;
},
{
associatedMasterId = "E103E4E6-9333-477C-9ADC-F52051F3C867";
layerId = "8E169918-2BDA-47B4-A650-6EBA9D9168E8";
paths = (
{
closed = 1;
nodes = (
"92 184 LINE",
"112 68 OFFCURVE",
"212 -12 OFFCURVE",
"309 -12 CURVE SMOOTH",
"422 -12 OFFCURVE",
"533 80 OFFCURVE",
"533 215 CURVE SMOOTH",
"533 370 OFFCURVE",
"422 462 OFFCURVE",
"309 462 CURVE SMOOTH",
"204 462 OFFCURVE",
"146 396 OFFCURVE",
"109 323 CURVE",
"171 323 LINE",
"179 370 OFFCURVE",
"191 422 OFFCURVE",
"309 422 CURVE SMOOTH",
"405 422 OFFCURVE",
"423 359 OFFCURVE",
"423 215 CURVE SMOOTH",
"423 91 OFFCURVE",
"405 28 OFFCURVE",
"315 28 CURVE SMOOTH",
"245 28 OFFCURVE",
"218 73 OFFCURVE",
"217 165 CURVE"
);
},
{
closed = 1;
nodes = (
"136 700 LINE",
"109 323 LINE",
"147 323 LINE",
"173 620 LINE",
"502 620 LINE",
"507 625 LINE",
"507 695 LINE",
"502 700 LINE"
);
}
);
width = 600;
},
{
layerId = "E103E4E6-9333-477C-9ADC-F52051F3C867";
width = 600;
},
{
layerId = "B6F795C8-F751-4DF7-955B-5EAABF4BC2BE";
width = 600;
}
);
unicode = 0035;
},
{
glyphname = six;
lastChange = "2020-07-30 10:14:06 +0000";
layers = (
{
layerId = "AEA248FC-48D8-43C3-8E42-77E797A92BBC";
paths = (
{
closed = 1;
nodes = (
"153 715 OFFCURVE",
"47 585 OFFCURVE",
"47 307 CURVE SMOOTH",
"47 87 OFFCURVE",
"135 -15 OFFCURVE",
"283 -15 CURVE SMOOTH",
"421 -15 OFFCURVE",
"519 72 OFFCURVE",
"519 219 CURVE SMOOTH",
"519 363 OFFCURVE",
"425 447 OFFCURVE",
"293 447 CURVE SMOOTH",
"160 447 OFFCURVE",
"82 375 OFFCURVE",
"82 255 CURVE",
"128 255 LINE",
"128 351 OFFCURVE",
"186 409 OFFCURVE",
"283 409 CURVE SMOOTH",
"368 409 OFFCURVE",
"419 337 OFFCURVE",
"419 214 CURVE SMOOTH",
"419 89 OFFCURVE",
"368 15 OFFCURVE",
"283 15 CURVE SMOOTH",
"198 15 OFFCURVE",
"147 97 OFFCURVE",
"147 285 CURVE SMOOTH",
"147 561 OFFCURVE",
"206 677 OFFCURVE",
"303 677 CURVE SMOOTH",
"368 677 OFFCURVE",
"410 626 OFFCURVE",
"416 540 CURVE",
"516 520 LINE",
"516 643 OFFCURVE",
"437 715 OFFCURVE",
"303 715 CURVE SMOOTH"
);
}
);
width = 600;
},
{
layerId = "B6F795C8-F751-4DF7-955B-5EAABF4BC2BE";
width = 600;
},
{
associatedMasterId = "E103E4E6-9333-477C-9ADC-F52051F3C867";
layerId = "8E169918-2BDA-47B4-A650-6EBA9D9168E8";
paths = (
{
closed = 1;
nodes = (
"153 715 OFFCURVE",
"47 585 OFFCURVE",
"47 307 CURVE SMOOTH",
"47 87 OFFCURVE",
"135 -15 OFFCURVE",
"283 -15 CURVE SMOOTH",
"421 -15 OFFCURVE",
"519 72 OFFCURVE",
"519 219 CURVE SMOOTH",
"519 363 OFFCURVE",
"425 447 OFFCURVE",
"293 447 CURVE SMOOTH",
"160 447 OFFCURVE",
"82 375 OFFCURVE",
"82 255 CURVE",
"128 255 LINE",
"128 351 OFFCURVE",
"186 409 OFFCURVE",
"283 409 CURVE SMOOTH",
"368 409 OFFCURVE",
"419 337 OFFCURVE",
"419 214 CURVE SMOOTH",
"419 89 OFFCURVE",
"368 15 OFFCURVE",
"283 15 CURVE SMOOTH",
"198 15 OFFCURVE",
"147 97 OFFCURVE",
"147 285 CURVE SMOOTH",
"147 561 OFFCURVE",
"206 677 OFFCURVE",
"303 677 CURVE SMOOTH",
"368 677 OFFCURVE",
"410 626 OFFCURVE",
"416 540 CURVE",
"516 520 LINE",
"516 643 OFFCURVE",
"437 715 OFFCURVE",
"303 715 CURVE SMOOTH"
);
}
);
width = 600;
},
{
layerId = "E103E4E6-9333-477C-9ADC-F52051F3C867";
width = 600;
}
);
unicode = 0036;
},
{
glyphname = seven;
lastChange = "2020-07-30 10:14:06 +0000";
layers = (
{
layerId = "AEA248FC-48D8-43C3-8E42-77E797A92BBC";
paths = (
{
closed = 1;
nodes = (
"30 695 LINE",
"30 625 LINE",
"35 620 LINE",
"491 620 LINE",
"491 700 LINE",
"35 700 LINE"
);
},
{
closed = 1;
nodes = (
"270 233 OFFCURVE",
"415 536 OFFCURVE",
"491 620 CURVE",
"441 620 LINE",
"326 538 OFFCURVE",
"160 250 OFFCURVE",
"160 5 CURVE",
"165 0 LINE",
"265 0 LINE",
"270 5 LINE"
);
}
);
width = 521;
},
{
associatedMasterId = "E103E4E6-9333-477C-9ADC-F52051F3C867";
layerId = "8E169918-2BDA-47B4-A650-6EBA9D9168E8";
paths = (
{
closed = 1;
nodes = (
"30 695 LINE",
"30 625 LINE",
"35 620 LINE",
"491 620 LINE",
"491 700 LINE",
"35 700 LINE"
);
},
{
closed = 1;
nodes = (
"270 233 OFFCURVE",
"415 536 OFFCURVE",
"491 620 CURVE",
"441 620 LINE",
"326 538 OFFCURVE",
"160 250 OFFCURVE",
"160 5 CURVE",
"165 0 LINE",
"265 0 LINE",
"270 5 LINE"
);
}
);
width = 521;
},
{
layerId = "E103E4E6-9333-477C-9ADC-F52051F3C867";
width = 600;
},
{
layerId = "B6F795C8-F751-4DF7-955B-5EAABF4BC2BE";
width = 600;
}
);
unicode = 0037;
},
{
glyphname = eight;
lastChange = "2020-07-30 10:14:06 +0000";
layers = (
{
layerId = "AEA248FC-48D8-43C3-8E42-77E797A92BBC";
paths = (
{
closed = 1;
nodes = (
"227 378 LINE",
"144 340 OFFCURVE",
"30 308 OFFCURVE",
"30 186 CURVE SMOOTH",
"30 65 OFFCURVE",
"123 -15 OFFCURVE",
"262 -15 CURVE",
"262 25 LINE",
"182 25 OFFCURVE",
"129 85 OFFCURVE",
"129 176 CURVE SMOOTH",
"129 277 OFFCURVE",
"171 330 OFFCURVE",
"251 365 CURVE"
);
},
{
closed = 1;
nodes = (
"134 715 OFFCURVE",
"48 645 OFFCURVE",
"48 549 CURVE SMOOTH",
"48 352 OFFCURVE",
"395 411 OFFCURVE",
"395 176 CURVE SMOOTH",
"395 85 OFFCURVE",
"342 25 OFFCURVE",
"262 25 CURVE",
"262 -15 LINE",
"401 -15 OFFCURVE",
"494 65 OFFCURVE",
"494 186 CURVE SMOOTH",
"494 368 OFFCURVE",
"147 333 OFFCURVE",
"147 557 CURVE SMOOTH",
"147 628 OFFCURVE",
"193 675 OFFCURVE",
"262 675 CURVE",
"262 715 LINE"
);
},
{
closed = 1;
nodes = (
"275 377 LINE",
"358 414 OFFCURVE",
"476 422 OFFCURVE",
"476 549 CURVE SMOOTH",
"476 645 OFFCURVE",
"390 715 OFFCURVE",
"262 715 CURVE",
"262 675 LINE",
"331 675 OFFCURVE",
"377 628 OFFCURVE",
"377 557 CURVE SMOOTH",
"377 454 OFFCURVE",
"330 424 OFFCURVE",
"250 389 CURVE"
);
}
);
width = 524;
},
{
associatedMasterId = "E103E4E6-9333-477C-9ADC-F52051F3C867";
layerId = "8E169918-2BDA-47B4-A650-6EBA9D9168E8";
paths = (
{
closed = 1;
nodes = (
"227 378 LINE",
"144 340 OFFCURVE",
"30 308 OFFCURVE",
"30 186 CURVE SMOOTH",
"30 65 OFFCURVE",
"123 -15 OFFCURVE",
"262 -15 CURVE",
"262 25 LINE",
"182 25 OFFCURVE",
"129 85 OFFCURVE",
"129 176 CURVE SMOOTH",
"129 277 OFFCURVE",
"171 330 OFFCURVE",
"251 365 CURVE"
);
},
{
closed = 1;
nodes = (
"134 715 OFFCURVE",
"48 645 OFFCURVE",
"48 549 CURVE SMOOTH",
"48 352 OFFCURVE",
"395 411 OFFCURVE",
"395 176 CURVE SMOOTH",
"395 85 OFFCURVE",
"342 25 OFFCURVE",
"262 25 CURVE",
"262 -15 LINE",
"401 -15 OFFCURVE",
"494 65 OFFCURVE",
"494 186 CURVE SMOOTH",
"494 368 OFFCURVE",
"147 333 OFFCURVE",
"147 557 CURVE SMOOTH",
"147 628 OFFCURVE",
"193 675 OFFCURVE",
"262 675 CURVE",
"262 715 LINE"
);
},
{
closed = 1;
nodes = (
"275 377 LINE",
"358 414 OFFCURVE",
"476 422 OFFCURVE",
"476 549 CURVE SMOOTH",
"476 645 OFFCURVE",
"390 715 OFFCURVE",
"262 715 CURVE",
"262 675 LINE",
"331 675 OFFCURVE",
"377 628 OFFCURVE",
"377 557 CURVE SMOOTH",
"377 454 OFFCURVE",
"330 424 OFFCURVE",
"250 389 CURVE"
);
}
);
width = 524;
},
{
layerId = "E103E4E6-9333-477C-9ADC-F52051F3C867";
width = 600;
},
{
layerId = "B6F795C8-F751-4DF7-955B-5EAABF4BC2BE";
width = 600;
}
);
unicode = 0038;
},
{
glyphname = nine;
lastChange = "2020-07-30 10:14:06 +0000";
layers = (
{
layerId = "AEA248FC-48D8-43C3-8E42-77E797A92BBC";
paths = (
{
closed = 1;
nodes = (
"417 -15 OFFCURVE",
"509 115 OFFCURVE",
"509 393 CURVE SMOOTH",
"509 613 OFFCURVE",
"421 715 OFFCURVE",
"273 715 CURVE SMOOTH",
"135 715 OFFCURVE",
"37 628 OFFCURVE",
"37 481 CURVE SMOOTH",
"37 337 OFFCURVE",
"131 253 OFFCURVE",
"263 253 CURVE SMOOTH",
"396 253 OFFCURVE",
"474 325 OFFCURVE",
"474 445 CURVE",
"428 445 LINE",
"428 349 OFFCURVE",
"370 291 OFFCURVE",
"273 291 CURVE SMOOTH",
"188 291 OFFCURVE",
"137 363 OFFCURVE",
"137 486 CURVE SMOOTH",
"137 611 OFFCURVE",
"188 685 OFFCURVE",
"273 685 CURVE SMOOTH",
"358 685 OFFCURVE",
"409 603 OFFCURVE",
"409 415 CURVE SMOOTH",
"409 139 OFFCURVE",
"354 23 OFFCURVE",
"263 23 CURVE SMOOTH",
"192 23 OFFCURVE",
"146 74 OFFCURVE",
"140 160 CURVE",
"40 180 LINE",
"40 57 OFFCURVE",
"123 -15 OFFCURVE",
"263 -15 CURVE SMOOTH"
);
}
);
width = 546;
},
{
associatedMasterId = "E103E4E6-9333-477C-9ADC-F52051F3C867";
layerId = "8E169918-2BDA-47B4-A650-6EBA9D9168E8";
paths = (
{
closed = 1;
nodes = (
"417 -15 OFFCURVE",
"509 115 OFFCURVE",
"509 393 CURVE SMOOTH",
"509 613 OFFCURVE",
"421 715 OFFCURVE",
"273 715 CURVE SMOOTH",
"135 715 OFFCURVE",
"37 628 OFFCURVE",
"37 481 CURVE SMOOTH",
"37 337 OFFCURVE",
"131 253 OFFCURVE",
"263 253 CURVE SMOOTH",
"396 253 OFFCURVE",
"474 325 OFFCURVE",
"474 445 CURVE",
"428 445 LINE",
"428 349 OFFCURVE",
"370 291 OFFCURVE",
"273 291 CURVE SMOOTH",
"188 291 OFFCURVE",
"137 363 OFFCURVE",
"137 486 CURVE SMOOTH",
"137 611 OFFCURVE",
"188 685 OFFCURVE",
"273 685 CURVE SMOOTH",
"358 685 OFFCURVE",
"409 603 OFFCURVE",
"409 415 CURVE SMOOTH",
"409 139 OFFCURVE",
"354 23 OFFCURVE",
"263 23 CURVE SMOOTH",
"192 23 OFFCURVE",
"146 74 OFFCURVE",
"140 160 CURVE",
"40 180 LINE",
"40 57 OFFCURVE",
"123 -15 OFFCURVE",
"263 -15 CURVE SMOOTH"
);
}
);
width = 546;
},
{
layerId = "E103E4E6-9333-477C-9ADC-F52051F3C867";
width = 600;
},
{
layerId = "B6F795C8-F751-4DF7-955B-5EAABF4BC2BE";
width = 600;
}
);
unicode = 0039;
},
{
glyphname = period;
lastChange = "2020-07-30 10:14:06 +0000";
layers = (
{
layerId = "AEA248FC-48D8-43C3-8E42-77E797A92BBC";
paths = (
{
closed = 1;
nodes = (
"60 3 LINE",
"69 -2 LINE",
"84 0 OFFCURVE",
"99 2 OFFCURVE",
"114 2 CURVE SMOOTH",
"129 2 OFFCURVE",
"144 0 OFFCURVE",
"159 -2 CURVE",
"168 3 LINE",
"168 105 LINE",
"159 109 LINE",
"144 107 OFFCURVE",
"129 105 OFFCURVE",
"114 105 CURVE SMOOTH",
"99 105 OFFCURVE",
"84 107 OFFCURVE",
"69 109 CURVE",
"60 105 LINE"
);
}
);
width = 228;
},
{
associatedMasterId = "E103E4E6-9333-477C-9ADC-F52051F3C867";
layerId = "8E169918-2BDA-47B4-A650-6EBA9D9168E8";
paths = (
{
closed = 1;
nodes = (
"60 3 LINE",
"69 -2 LINE",
"84 0 OFFCURVE",
"99 2 OFFCURVE",
"114 2 CURVE SMOOTH",
"129 2 OFFCURVE",
"144 0 OFFCURVE",
"159 -2 CURVE",
"168 3 LINE",
"168 105 LINE",
"159 109 LINE",
"144 107 OFFCURVE",
"129 105 OFFCURVE",
"114 105 CURVE SMOOTH",
"99 105 OFFCURVE",
"84 107 OFFCURVE",
"69 109 CURVE",
"60 105 LINE"
);
}
);
width = 228;
},
{
layerId = "E103E4E6-9333-477C-9ADC-F52051F3C867";
width = 600;
},
{
layerId = "B6F795C8-F751-4DF7-955B-5EAABF4BC2BE";
width = 600;
}
);
unicode = 002E;
},
{
glyphname = comma;
lastChange = "2020-07-30 10:14:06 +0000";
layers = (
{
layerId = "AEA248FC-48D8-43C3-8E42-77E797A92BBC";
paths = (
{
closed = 1;
nodes = (
"35 1 LINE",
"44 -4 LINE",
"134 -4 LINE",
"143 1 LINE",
"143 54 LINE",
"143 105 LINE",
"134 109 LINE",
"119 107 OFFCURVE",
"104 105 OFFCURVE",
"89 105 CURVE SMOOTH",
"74 105 OFFCURVE",
"59 107 OFFCURVE",
"44 109 CURVE",
"35 105 LINE"
);
},
{
closed = 1;
nodes = (
"118 -123 OFFCURVE",
"143 -63 OFFCURVE",
"143 1 CURVE",
"103 0 LINE",
"103 -69 OFFCURVE",
"74 -83 OFFCURVE",
"40 -107 CURVE",
"35 -112 LINE",
"35 -142 LINE",
"40 -147 LINE"
);
}
);
width = 203;
},
{
associatedMasterId = "E103E4E6-9333-477C-9ADC-F52051F3C867";
layerId = "8E169918-2BDA-47B4-A650-6EBA9D9168E8";
paths = (
{
closed = 1;
nodes = (
"35 1 LINE",
"44 -4 LINE",
"134 -4 LINE",
"143 1 LINE",
"143 54 LINE",
"143 105 LINE",
"134 109 LINE",
"119 107 OFFCURVE",
"104 105 OFFCURVE",
"89 105 CURVE SMOOTH",
"74 105 OFFCURVE",
"59 107 OFFCURVE",
"44 109 CURVE",
"35 105 LINE"
);
},
{
closed = 1;
nodes = (
"118 -123 OFFCURVE",
"143 -63 OFFCURVE",
"143 1 CURVE",
"103 0 LINE",
"103 -69 OFFCURVE",
"74 -83 OFFCURVE",
"40 -107 CURVE",
"35 -112 LINE",
"35 -142 LINE",
"40 -147 LINE"
);
}
);
width = 203;
},
{
layerId = "E103E4E6-9333-477C-9ADC-F52051F3C867";
width = 600;
},
{
layerId = "B6F795C8-F751-4DF7-955B-5EAABF4BC2BE";
width = 600;
}
);
unicode = 002C;
},
{
glyphname = colon;
lastChange = "2020-07-30 10:14:06 +0000";
layers = (
{
layerId = "AEA248FC-48D8-43C3-8E42-77E797A92BBC";
paths = (
{
closed = 1;
nodes = (
"60 0 LINE",
"69 -5 LINE",
"84 -3 OFFCURVE",
"99 -1 OFFCURVE",
"114 -1 CURVE SMOOTH",
"129 -1 OFFCURVE",
"144 -3 OFFCURVE",
"159 -5 CURVE",
"168 0 LINE",
"168 102 LINE",
"159 106 LINE",
"144 104 OFFCURVE",
"129 102 OFFCURVE",
"114 102 CURVE SMOOTH",
"99 102 OFFCURVE",
"84 104 OFFCURVE",
"69 106 CURVE",
"60 102 LINE"
);
},
{
closed = 1;
nodes = (
"60 399 LINE",
"69 394 LINE",
"84 396 OFFCURVE",
"99 398 OFFCURVE",
"114 398 CURVE SMOOTH",
"129 398 OFFCURVE",
"144 396 OFFCURVE",
"159 394 CURVE",
"168 399 LINE",
"168 501 LINE",
"159 505 LINE",
"144 503 OFFCURVE",
"129 501 OFFCURVE",
"114 501 CURVE SMOOTH",
"99 501 OFFCURVE",
"84 503 OFFCURVE",
"69 505 CURVE",
"60 501 LINE"
);
}
);
width = 228;
},
{
associatedMasterId = "E103E4E6-9333-477C-9ADC-F52051F3C867";
layerId = "8E169918-2BDA-47B4-A650-6EBA9D9168E8";
paths = (
{
closed = 1;
nodes = (
"60 0 LINE",
"69 -5 LINE",
"84 -3 OFFCURVE",
"99 -1 OFFCURVE",
"114 -1 CURVE SMOOTH",
"129 -1 OFFCURVE",
"144 -3 OFFCURVE",
"159 -5 CURVE",
"168 0 LINE",
"168 102 LINE",
"159 106 LINE",
"144 104 OFFCURVE",
"129 102 OFFCURVE",
"114 102 CURVE SMOOTH",
"99 102 OFFCURVE",
"84 104 OFFCURVE",
"69 106 CURVE",
"60 102 LINE"
);
},
{
closed = 1;
nodes = (
"60 399 LINE",
"69 394 LINE",
"84 396 OFFCURVE",
"99 398 OFFCURVE",
"114 398 CURVE SMOOTH",
"129 398 OFFCURVE",
"144 396 OFFCURVE",
"159 394 CURVE",
"168 399 LINE",
"168 501 LINE",
"159 505 LINE",
"144 503 OFFCURVE",
"129 501 OFFCURVE",
"114 501 CURVE SMOOTH",
"99 501 OFFCURVE",
"84 503 OFFCURVE",
"69 505 CURVE",
"60 501 LINE"
);
}
);
width = 228;
},
{
layerId = "E103E4E6-9333-477C-9ADC-F52051F3C867";
width = 600;
},
{
layerId = "B6F795C8-F751-4DF7-955B-5EAABF4BC2BE";
width = 600;
}
);
unicode = 003A;
},
